<?xml version="1.0" encoding="utf-8"?>
<svg width="625px" height="625px" viewBox="0 0 625 625" version="1.1" xmlns:xlink="http://www.w3.org/1999/xlink" xmlns="http://www.w3.org/2000/svg">
  <defs>
    <linearGradient gradientUnits="userSpaceOnUse" x1="-120.22129" y1="-243.91103" x2="-120.22129" y2="-368.96295" id="gradient_1">
      <stop offset="0%" stop-color="#CB8B6A" stop-opacity="0.8" />
      <stop offset="70%" stop-color="#AC5F38" />
    </linearGradient>
    <linearGradient gradientUnits="userSpaceOnUse" x1="-22.0188" y1="-10.125716" x2="-22.0188" y2="-17.941446" id="gradient_2">
      <stop offset="9.999999%" stop-color="#D29779" />
      <stop offset="100%" stop-color="#CB8B6A" />
    </linearGradient>
    <radialGradient gradientUnits="objectBoundingBox" cx="47.858334%" cy="46.862823%" fx="47.858334%" fy="46.862823%" r="53358.88%" gradientTransform="translate(0.47858334,0.46862823),scale(0.4130595,1),rotate(24.207708),scale(1,1.0024512),translate(-0.47858334,-0.46862823)" id="gradient_3">
      <stop offset="0%" stop-color="#FFFFFF" />
      <stop offset="54.4%" stop-color="#FDFEFE" />
      <stop offset="74%" stop-color="#F6F8F9" />
      <stop offset="87.9%" stop-color="#EAEFF2" />
      <stop offset="99.19999%" stop-color="#D9E3E8" />
      <stop offset="100%" stop-color="#D8E2E7" />
    </radialGradient>
    <radialGradient gradientUnits="objectBoundingBox" cx="50.26419%" cy="48.01758%" fx="50.26419%" fy="48.01758%" r="83.817604%" gradientTransform="translate(0.5026419,0.48017576),scale(0.7629223,1),scale(1,0.7629222),translate(-0.5026419,-0.48017576)" id="gradient_4">
      <stop offset="0%" stop-color="#CB8B6A" />
      <stop offset="70%" stop-color="#CB8B6A" stop-opacity="0.3019608" />
      <stop offset="100%" stop-color="#DAA488" stop-opacity="0" />
    </radialGradient>
    <radialGradient gradientUnits="objectBoundingBox" cx="37.660454%" cy="289.50415%" fx="37.660454%" fy="289.50415%" r="11462.772%" gradientTransform="translate(0.37660453,2.8950415),scale(0.41305906,1),rotate(13.040935),scale(1,7.80192),translate(-0.37660453,-2.8950415)" id="gradient_5">
      <stop offset="95%" stop-color="#000000" stop-opacity="0" />
      <stop offset="100%" stop-color="#000000" stop-opacity="0.2" />
    </radialGradient>
    <radialGradient gradientUnits="objectBoundingBox" cx="52.141262%" cy="46.8731%" fx="52.141262%" fy="46.8731%" r="83378.2%" gradientTransform="translate(0.5214126,0.468731),scale(0.4130595,1),rotate(15.213329),scale(1,0.99805945),translate(-0.5214126,-0.468731)" id="gradient_6">
      <stop offset="0%" stop-color="#FFFFFF" />
      <stop offset="54.4%" stop-color="#FDFEFE" />
      <stop offset="74%" stop-color="#F6F8F9" />
      <stop offset="87.9%" stop-color="#EAEFF2" />
      <stop offset="99.19999%" stop-color="#D9E3E8" />
      <stop offset="100%" stop-color="#D8E2E7" />
    </radialGradient>
    <radialGradient gradientUnits="objectBoundingBox" cx="49.736042%" cy="48.014946%" fx="49.736042%" fy="48.014946%" r="83.81562%" gradientTransform="translate(0.49736044,0.48014945),scale(0.76292986,1),scale(1,0.76292986),translate(-0.49736044,-0.48014945)" id="gradient_7">
      <stop offset="0%" stop-color="#CB8B6A" />
      <stop offset="70%" stop-color="#CB8B6A" stop-opacity="0.3019608" />
      <stop offset="100%" stop-color="#DAA488" stop-opacity="0" />
    </radialGradient>
    <radialGradient gradientUnits="objectBoundingBox" cx="62.33585%" cy="289.50415%" fx="62.33585%" fy="289.50415%" r="135729.56%" gradientTransform="translate(0.6233585,2.8950415),scale(0.41305906,1),rotate(1.091886),scale(1,0.5330242),translate(-0.6233585,-2.8950415)" id="gradient_8">
      <stop offset="95%" stop-color="#000000" stop-opacity="0" />
      <stop offset="100%" stop-color="#000000" stop-opacity="0.2" />
    </radialGradient>
    <radialGradient gradientUnits="objectBoundingBox" cx="50.000607%" cy="50.00122%" fx="50.000607%" fy="50.00122%" r="50.000595%" gradientTransform="translate(0.5000061,0.5000122),scale(0.9999867,1),translate(-0.5000061,-0.5000122)" id="gradient_9">
      <stop offset="0%" stop-color="#E9BFA9" stop-opacity="0.5019608" />
      <stop offset="90%" stop-color="#DAA488" stop-opacity="0" />
    </radialGradient>
    <radialGradient gradientUnits="objectBoundingBox" cx="50.00001%" cy="50.001328%" fx="50.00001%" fy="50.001328%" r="49.33334%" gradientTransform="translate(0.5000001,0.5000133),scale(1,0.9999995),translate(-0.5000001,-0.5000133)" id="gradient_10">
      <stop offset="0%" stop-color="#E9BFA9" stop-opacity="0.5019608" />
      <stop offset="90%" stop-color="#DAA488" stop-opacity="0" />
    </radialGradient>
    <path d="M0 312.5C0 139.911 139.911 0 312.5 0C485.089 0 625 139.911 625 312.5C625 485.089 485.089 625 312.5 625C139.911 625 0 485.089 0 312.5L0 312.5Z" id="path_1" />
    <path d="M0 0L613 0L613 613L0 613L0 0L0 0Z" id="path_2" />
    <clipPath id="mask_1">
      <use xlink:href="#path_1" />
    </clipPath>
    <clipPath id="mask_2">
      <use xlink:href="#path_2" />
    </clipPath>
  </defs>
  <g id="cartoonify2">
    <g id="Mask-Mask">
      <g id="Mask-Group">
        <path d="M0 312.5C0 139.911 139.911 0 312.5 0C485.089 0 625 139.911 625 312.5C625 485.089 485.089 625 312.5 625C139.911 625 0 485.089 0 312.5L0 312.5Z" id="path_1" fill="none" stroke="none" />
        <g clip-path="url(#mask_1)">
          <g id="Group" transform="translate(12 12)">
            <g id="Mask#1">
              <path d="M0 0L613 0L613 613L0 613L0 0L0 0Z" id="Background" fill="none" fill-rule="evenodd" stroke="none" />
              <g id="Mask-Group">
                <path d="M0 0L613 0L613 613L0 613L0 0L0 0Z" id="path_2" fill="none" stroke="none" />
                <g clip-path="url(#mask_2)">
                  <g id="Group" transform="translate(38.77322 3.202899)">
                    <g id="svga-group-wrapper">
                      <g id="svga-group-humanwrap-move">
                        <g id="svga-group-humanwrap">
                          <path d="M268.966 309.042L266.361 309.042L266.361 306.437L268.966 306.437L268.966 309.042L268.966 309.042L268.966 309.042Z" id="svga-group-hair-back-move" fill="#2A232B" fill-rule="evenodd" stroke="none" />
                          <g id="svga-group-humanbody-single" transform="translate(7.1383286 365.0521)">
                            <path d="M509.11 202.634C503.389 190.269 487.76 171.946 470.396 166.884C448.931 160.624 400.479 153.056 382.513 148.848C368.111 145.472 339.104 119.425 328.939 110.681C327.115 109.118 325.622 105.89 325.586 103.491C325.224 75.1875 336.515 0 336.515 0L260.525 0L184.538 0C184.538 0 195.829 75.1849 195.461 103.491C195.433 105.89 193.932 109.118 192.114 110.681C181.948 119.425 152.941 145.472 138.539 148.848C120.571 153.056 72.1185 160.882 50.6564 167.142C33.2873 172.202 17.6636 190.266 11.9425 202.631C2.2822 223.494 0 261.249 0 293.815L260.525 293.815L521.05 293.815C521.05 261.252 518.765 223.496 509.11 202.634L509.11 202.634L509.11 202.634Z" id="SvgjsPath2911" fill="#DAA488" fill-rule="evenodd" stroke="none" />
                            <path d="M414.641 161.679C478.058 170.907 504.746 184.366 513.104 293.82L521.05 293.82C521.05 261.254 518.765 223.499 509.11 202.636C503.389 190.272 487.76 171.949 470.396 166.887C448.931 160.627 400.479 153.058 382.513 148.851C368.111 145.474 334.988 117.408 326.128 106.255C334.881 118.51 359.451 146.91 380.978 154.348C391.277 157.907 399.853 159.527 414.641 161.679L414.641 161.679L414.641 161.679ZM140.074 154.348C161.601 146.913 186.168 118.51 194.925 106.255C186.067 117.405 152.944 145.474 138.539 148.851C120.574 153.058 72.1211 160.885 50.6565 167.145C33.2925 172.204 17.6636 190.269 11.9425 202.634C2.28742 223.496 0.00261688 261.252 0.00261688 293.817L7.94862 293.817C16.2542 185.064 43.0543 170.894 106.411 161.677C121.196 159.527 129.775 157.907 140.074 154.348L140.074 154.348L140.074 154.348Z" id="SvgjsPath2912" fill="#E9BFA9" fill-rule="evenodd" stroke="none" />
                            <path d="M249.182 197.011C249.182 197.011 235.963 192.82 230.729 190.814C203.506 180.369 115.069 173.601 115.069 173.601C115.069 173.601 208.217 177.298 228.772 180.841C227.579 168.422 220.912 128.725 220.912 128.725C220.912 128.725 234.326 172.533 237.609 183.584C239.365 189.493 249.182 197.011 249.182 197.011L249.182 197.011L249.182 197.011ZM277.551 193.515C277.249 193.794 276.904 194.156 276.529 194.537C276.911 194.213 277.256 193.874 277.551 193.515L277.551 193.515L277.551 193.515ZM249.182 197.011C249.182 197.011 256.719 204.806 260.507 204.905C265.483 205.038 273.085 197.353 276.531 194.213C273.236 196.707 265.696 197.837 262.698 197.955C259.233 198.087 249.182 197.011 249.182 197.011L249.182 197.011L249.182 197.011ZM303.939 177.423C299.914 178.069 292.512 179.478 292.512 179.478L298.47 140.686C296.787 148.687 286.814 182.92 277.316 193.515C282.292 189.305 293.359 187.286 299.002 186.471C325.669 182.604 325.659 182.607 405.978 173.601C405.978 173.601 330.241 173.197 303.939 177.423L303.939 177.423L303.939 177.423Z" id="SvgjsPath2913" fill="#CB8B6A" fill-rule="evenodd" stroke="none" />
                            <path d="M509.11 202.634C503.389 190.269 487.76 171.946 470.396 166.884C448.931 160.624 400.479 153.056 382.513 148.848C368.111 145.472 339.104 119.425 328.939 110.681C327.115 109.118 325.622 105.89 325.586 103.491C325.224 75.1875 336.515 0 336.515 0L260.525 0L184.538 0C184.538 0 195.829 75.1849 195.461 103.491C195.433 105.89 193.932 109.118 192.114 110.681C181.948 119.425 152.941 145.472 138.539 148.848C120.571 153.056 72.1185 160.882 50.6564 167.142C33.2873 172.202 17.6636 190.266 11.9425 202.631C2.2822 223.494 0 261.249 0 293.815L260.525 293.815L521.05 293.815C521.05 261.252 518.765 223.496 509.11 202.634L509.11 202.634L509.11 202.634Z" id="SvgjsPath2914" fill="none" fill-rule="evenodd" stroke="#AC5F38" stroke-width="1.5" />
                          </g>
                          <path d="M202.753 474.439C219.943 483.75 241.376 489.773 267.929 489.757C294.458 489.773 315.688 483.81 332.641 474.572C331.526 472.714 330.796 470.5 330.765 468.569C330.437 442.837 339.479 379.936 341.384 367.009L193.942 367.009C195.844 379.938 204.89 442.837 204.556 468.566C204.533 470.414 203.827 472.597 202.753 474.439L202.753 474.439L202.753 474.439Z" id="svga-group-chinshadow-single" fill="url(#gradient_1)" fill-rule="evenodd" stroke="none" />
                          <g id="svga-group-clothes-single" transform="translate(0 452.80203)">
                            <path d="M342.843 214.404L191.382 214.404L191.382 68.0335C249.348 80.2755 287.463 79.3324 342.845 68.0335L342.845 214.404L342.843 214.404L342.843 214.404Z" id="SvgjsPath3546" fill="#F3F1F3" fill-rule="evenodd" stroke="none" />
                            <path d="M287.046 213.703C279.817 213.703 259.1 214.245 244.028 213.104L244.002 212.659C241.871 164.05 246.944 132.628 255.822 110.304L255.947 109.983L255.705 109.741C253.347 107.386 249.387 104.7 245.196 101.86C240.998 99.0125 236.663 96.0738 233.899 93.4034C235.527 91.4964 237.533 89.6154 240.016 87.6692C240.655 87.3435 243.044 85.473 255.58 74.7186C256.138 74.2392 256.479 73.9474 256.523 73.9109C258.654 73.4472 262.093 73.1476 266.262 73.1476C271.949 73.1476 278.587 73.7233 283.227 74.6144C287.294 78.4128 292.218 88.4977 294.06 93.294C291.517 99.2626 288.516 101.446 284.376 104.455C282.359 105.922 280.072 107.584 277.467 109.957L277.25 110.153L277.305 110.442C287.794 163.354 287.797 175.714 287.797 187.666C287.799 192.932 287.799 204.885 288.68 213.68C288.289 213.698 287.734 213.703 287.046 213.703L287.046 213.703L287.046 213.703Z" id="SvgjsPath3547" fill="#131111" fill-rule="evenodd" stroke="none" />
                            <path d="M294.627 93.3044C292.663 88.1069 287.567 77.8553 283.477 74.1323C275.984 72.6656 262.679 71.9361 256.2 73.5071C255.919 73.7363 239.922 87.5311 239.761 87.2107C237.401 89.0551 235.103 91.129 233.196 93.4372C238.565 98.8457 250.534 105.307 255.34 110.111C245.831 134.027 241.454 166.358 243.486 212.705C243.513 212.992 243.513 213.305 243.539 213.591C261.14 214.946 286.655 214.454 289.261 214.172C286.239 184.715 293.007 186.934 277.824 110.345C285.817 103.064 290.759 102.54 294.627 93.3044L294.627 93.3044L294.627 93.3044ZM280.95 142.908C280.895 142.778 280.846 142.648 280.817 142.57C286.028 170.055 284.412 191.111 288.349 212.838C276.01 212.01 257.049 212.703 244.656 212.703C245.618 193.95 247.751 130.158 257.005 109.17C257.448 109.05 257.888 108.951 258.331 108.845L255.643 199.341L262.799 107.985C262.851 107.98 262.903 107.972 262.955 107.964L267.648 192.908L268.734 107.628C268.802 107.631 268.867 107.625 268.935 107.628L279.874 202.342L273.882 108.196C274.7 108.36 275.521 108.563 276.336 108.803C276.414 108.803 276.518 108.829 276.597 108.881C276.867 111.492 279.035 130.77 280.95 142.908L280.95 142.908L280.95 142.908ZM278.655 106.932C271.428 103.673 262.078 104.259 254.871 107.558C250.492 102.834 244.242 99.5414 235.254 93.5128C236.687 92.2649 238.537 90.7251 241.012 88.7973C241.22 88.7973 250.078 81.5782 250.234 81.4244C252.631 79.2361 254.767 76.761 256.799 74.5987C264.433 74.2861 275.635 74.6508 282.383 74.9635C286.291 79.8509 290.019 87.1977 292.83 93.0438C287.721 100.524 282.667 103.856 278.655 106.932L278.655 106.932L278.655 106.932Z" id="SvgjsPath3548" fill="#000000" fill-rule="evenodd" stroke="none" />
                            <path d="M210.858 149.531C180.809 45.1359 194.38 72.465 186.372 31.4609C191.655 18.9219 196.683 4.26215 199.507 1.24527L199.716 1.02124C205.687 63.5654 223.053 36.5464 261.679 73.2439C239.599 87.974 219.133 126.214 210.858 149.531L210.858 149.531L210.858 149.531ZM348.929 31.4636C345.156 21.8189 338.307 7.68549 335.342 4.54877C339.052 58.4201 295.883 47.6682 271.905 72.8062C294.862 87.6901 316.644 126.631 324.458 149.544C358.638 36.1791 340.219 85.9523 348.929 31.4636L348.929 31.4636L348.929 31.4636Z" id="SvgjsPath3549" fill="#F3F1F4" fill-rule="evenodd" stroke="none" />
                            <path d="M334.881 3.35031C334.881 16.7335 333.787 27.2196 331.593 30.286C325.229 45.4199 297.457 55.9555 288.893 60.2724C282.393 63.469 276.018 67.5906 271.1 72.9079C281.033 79.3585 285.962 81.7215 304.785 110.528C315.847 129.048 321.821 142.958 324.484 151.274C359.337 35.7805 340.693 86.1998 349.468 31.4063C345.336 20.7612 337.486 5.74194 334.881 3.35031L334.881 3.35031L334.881 3.35031ZM344.385 54.2256C339.287 101.323 335.29 91.9627 324.221 143.276C317.145 120.756 295.367 83.5816 273.601 72.6968C283.857 64.9931 286.708 64.5398 298.947 58.9437C336.452 42.218 337.987 26.6777 335.78 6.13272C338.925 9.84 343.921 22.1836 348.004 30.9373C345.766 39.1334 344.75 50.8362 344.385 54.2256L344.385 54.2256L344.385 54.2256ZM213.471 42.2441C201.987 32.7375 205.239 20.9801 199.953 0C197.603 2.60526 191.757 17.278 185.832 31.4062C187.283 38.6905 187.606 50.6564 187.812 54.4366C189.269 86.2258 192.371 87.6926 210.817 151.248C218.713 128.048 240.928 87.7578 263.547 73.0668C245.49 56.586 222.762 50.3281 213.471 42.2441L213.471 42.2441L213.471 42.2441ZM227.696 108.701C221.91 118.252 215.928 128.189 211.101 143.299C199.528 90.4933 195.472 99.1036 190.962 54.3038C190.128 46.5636 189.355 38.602 187.315 30.9607C191.582 21.6131 197.686 4.17615 199.64 2.31601C203.199 20.756 199.812 37.3879 214.409 46.5922C221.238 51.7923 243.338 60.4521 260.053 73.5826C249.916 79.6008 244.461 83.1465 227.696 108.701L227.696 108.701L227.696 108.701Z" id="SvgjsPath3550" fill="#CFC8D7" fill-rule="evenodd" stroke="none" />
                            <path d="M320.599 141.056L317.449 134.142C317.449 134.142 341.282 60.7387 345.438 39.7665C347.814 61.5307 320.599 141.056 320.599 141.056L320.599 141.056L320.599 141.056ZM212.638 138.182L216.379 129.692C216.379 129.692 194.044 60.7387 189.889 39.7665C187.513 61.5307 212.638 138.182 212.638 138.182L212.638 138.182L212.638 138.182Z" id="SvgjsPath3551" fill="#E1E0E1" fill-rule="evenodd" stroke="none" />
                            <path d="M332.239 104.012C350.646 49.7341 339.42 45.261 348.666 27.2378C349.015 26.5579 352.302 29.963 352.659 31.5105C356.062 46.251 491.647 76.6803 495.932 79.9629C499.726 82.7192 510.652 88.1355 510.652 88.1355C523.514 111.765 530.874 116.006 534.49 179.278C534.829 187.31 534.331 210.022 534.331 216.118L311.429 214.357C311.963 194.06 314.555 157.537 332.239 104.012L332.239 104.012L332.239 104.012ZM203.087 104.012C184.681 49.7341 195.907 45.261 186.661 27.2378C186.312 26.5579 183.024 29.963 182.667 31.5105C179.265 46.251 43.6796 76.6803 39.3939 79.9629C35.6007 82.7192 24.6743 88.1355 24.6743 88.1355C11.8122 111.765 4.45233 116.006 0.836243 179.278C0.497562 187.31 0.995167 210.022 0.995167 216.118L223.898 214.357C223.364 194.06 220.771 157.537 203.087 104.012L203.087 104.012L203.087 104.012Z" id="SvgjsPath3552" fill="#335529" fill-rule="evenodd" stroke="none" />
                            <path d="M346.62 89.4095C334.761 132.102 318.559 170.474 311.434 214.357C309.115 214.339 315.318 155.231 332.24 104.015C350.646 49.7367 339.42 45.2636 348.666 27.2404C348.866 26.8497 347.053 32.3884 348.085 33.5764C347.704 53.7072 352.659 69.2762 346.62 89.4095L346.62 89.4095L346.62 89.4095ZM188.706 89.4095C200.565 132.102 216.767 170.474 223.892 214.357C226.211 214.339 220.008 155.231 203.087 104.015C184.681 49.7367 195.907 45.2636 186.661 27.2404C186.46 26.8497 188.273 32.3884 187.242 33.5764C187.622 53.7072 182.667 69.2762 188.706 89.4095L188.706 89.4095L188.706 89.4095Z" id="SvgjsPath3553" fill="#24461B" fill-rule="evenodd" stroke="none" />
                            <path d="M404.272 79.0693C404.272 79.0693 398.322 85.7414 381.773 97.1054C395.615 81.7736 401.992 75.6148 401.992 75.6148L404.272 79.0693L404.272 79.0693L404.272 79.0693ZM409.938 110.007L405.958 106.445C394.135 142.348 386.233 160.08 372.537 201.844C392.191 164.521 396.881 151.271 409.938 110.007L409.938 110.007L409.938 110.007ZM133.334 75.6147C133.334 75.6147 139.709 81.7735 153.553 97.1054C137.005 85.7413 131.054 79.0692 131.054 79.0692L133.334 75.6147L133.334 75.6147L133.334 75.6147ZM162.789 201.844C149.093 160.079 141.191 142.348 129.369 106.445L125.388 110.007C138.445 151.271 143.135 164.521 162.789 201.844L162.789 201.844L162.789 201.844Z" id="SvgjsPath3554" fill="#18360F" fill-rule="evenodd" stroke="none" />
                            <path d="M474.543 165.835C474.543 135.624 482.646 118.026 499.593 92.5176C501.177 93.4868 502.018 93.9322 503.097 94.7972C485.076 117.158 481.497 138.021 474.543 165.835L474.543 165.835L474.543 165.835ZM375.291 195.451C391.217 151.936 396.289 134.936 406.833 105.862C403.837 104.947 384.243 98.085 381.252 97.1445C382.32 99.7498 389.362 101.891 401.63 109.413C401.63 109.415 388.372 149.544 375.291 195.451L375.291 195.451L375.291 195.451ZM396.709 75.2813C396.709 75.2813 387.976 86.067 379.348 96.9778C388.174 90.0217 394.323 82.2737 401.99 75.6147C391.584 66.8402 374.606 53.4076 363.638 44.1199C372.298 53.4258 396.709 75.2813 396.709 75.2813L396.709 75.2813L396.709 75.2813ZM533.589 216.113L534.334 216.118C534.334 210.022 534.829 187.31 534.493 179.278C530.874 116.007 523.514 111.765 510.655 88.1355C510.655 88.1355 499.728 82.7192 495.935 79.9629C492.46 77.3029 394.867 54.1136 359.186 38.5915C400.898 67.1737 479.762 77.7406 503.1 94.7971C514.385 103.048 529.582 173.655 533.589 216.113L533.589 216.113L533.589 216.113ZM32.1826 94.7164C33.5946 93.7186 33.7952 93.7629 35.2255 92.8172C52.1727 118.325 60.7804 135.624 60.7804 165.832C53.8296 138.021 49.0307 116.29 32.1826 94.7164L32.1826 94.7164L32.1826 94.7164ZM133.696 109.415C145.964 101.894 153.006 99.7524 154.074 97.1471C151.084 98.085 131.489 104.95 128.493 105.864C139.039 134.939 144.109 151.938 160.035 195.454C146.954 149.544 133.696 109.415 133.696 109.415L133.696 109.415L133.696 109.415ZM171.686 44.1199C160.718 53.405 143.739 66.8402 133.334 75.6147C141.001 82.2764 147.152 90.0217 155.976 96.9778C147.345 86.067 138.615 75.2813 138.615 75.2813C138.615 75.2813 163.029 53.4258 171.686 44.1199L171.686 44.1199L171.686 44.1199ZM32.2295 94.7971C55.5673 77.7406 134.431 67.1711 176.143 38.5915C140.462 54.1136 42.8693 77.3003 39.3939 79.9629C35.6007 82.7192 24.6743 88.1355 24.6743 88.1355C11.8122 111.765 4.45233 116.006 0.836243 179.278C0.497562 187.31 0.995167 210.022 0.995167 216.118L1.74027 216.113C5.74453 173.655 20.9409 103.048 32.2295 94.7971L32.2295 94.7971L32.2295 94.7971Z" id="SvgjsPath3555" fill="#44643A" fill-rule="evenodd" stroke="none" />
                            <path d="M351.672 27.8579C351.544 27.0946 350.518 26.2061 349.749 26.1463C348.978 26.0864 348.624 27.3394 348.272 28.0272C339.026 46.0504 349.351 49.7368 330.945 104.015C313.26 157.539 311.186 194.839 310.658 215.136L534.336 216.118C534.336 210.022 535.61 187.31 535.272 179.278C531.653 116.006 524.035 111.247 511.173 87.6144C511.173 87.6144 499.726 81.9376 495.932 79.1839C483.195 69.435 494.395 79.2438 438.539 63.5524C392.749 50.1744 390.277 46.4177 373.671 41.7985C370.315 40.8372 363.101 39.657 355.564 34.371C354.874 33.889 351.92 29.3429 351.672 27.8579L351.672 27.8579L351.672 27.8579ZM311.885 212.664C321.6 151.274 327.738 135.21 341.314 89.5033C350.489 60.5746 345.419 44.1511 349.791 30.781C350.02 30.0828 351.008 30.0463 351.279 30.7367C357.62 46.9257 375.346 50.6825 400.346 75.1484C385.202 90.2927 381.304 94.3752 379.348 96.9804C381.599 98.1215 393.89 102.788 405.14 107.141C404.501 109.139 370.19 206.192 369.786 207.495C395.839 151.279 399.205 133.998 406.833 105.864C404.717 104.27 386.272 97.4962 383.151 96.3812C394.286 84.8556 397.506 82.3233 402.769 75.6148C406.994 75.6148 361.413 40.9181 359.183 38.5916C360.387 39.5399 366.353 42.2155 367.025 42.476C405.275 55.9347 375.01 49.8462 458.729 73.7416C466.733 75.7763 477.891 77.824 486.163 78.6369C486.731 78.689 500.218 85.7414 507.917 88.9797C489.188 108.454 477.182 133.615 474.543 165.835C482.93 132.836 487.442 115.579 508.776 90.7539C528.628 130.932 526.375 125.13 532.823 215.05C479.123 212.932 396.777 212.448 311.885 212.664L311.885 212.664L311.885 212.664ZM179.765 34.3736C172.225 39.6571 165.014 40.8373 161.658 41.8012C145.052 46.4177 142.58 50.1771 96.7902 63.555C40.9336 79.2465 52.131 69.4377 39.3965 79.1866C35.6033 81.9429 24.1558 87.6172 24.1558 87.6172C11.2937 111.247 3.67597 116.007 0.0572739 179.28C-0.281403 187.312 0.992561 210.025 0.992561 216.121L224.671 215.139C224.143 194.841 222.069 157.542 204.384 104.017C185.978 49.7394 196.3 46.053 187.057 28.0299C186.702 27.3421 186.351 26.089 185.58 26.1489C184.811 26.2088 183.785 27.0972 183.657 27.8605C183.407 29.3429 180.452 33.889 179.765 34.3736L179.765 34.3736L179.765 34.3736ZM2.5036 215.05C8.9542 125.13 6.69805 130.932 26.55 90.7538C47.8818 115.579 52.3967 132.836 60.783 165.834C58.1439 133.615 46.1415 108.454 27.4098 88.9796C35.1083 85.7413 48.5957 78.6889 49.1636 78.6368C57.4353 77.824 68.5935 75.7762 76.5969 73.7415C160.317 49.8462 130.054 55.9346 168.302 42.4759C168.974 42.2128 174.94 39.5398 176.143 38.5915C173.913 40.918 128.329 75.6147 132.558 75.6147C137.823 82.3232 141.04 84.8555 152.175 96.3811C149.054 97.4962 130.609 104.267 128.493 105.864C136.122 133.998 139.488 151.279 165.54 207.495C165.136 206.192 130.825 109.139 130.187 107.141C141.436 102.785 153.728 98.1188 155.979 96.9803C154.022 94.375 150.125 90.2926 134.98 75.1483C159.98 50.6824 177.707 46.9256 184.048 30.7366C184.319 30.0436 185.306 30.0827 185.535 30.7809C189.907 44.1511 184.835 60.5746 194.013 89.5032C207.589 135.21 213.727 151.274 223.442 212.664C138.55 212.448 56.203 212.932 2.5036 215.05L2.5036 215.05L2.5036 215.05Z" id="SvgjsPath3556" fill="#0E2707" fill-rule="evenodd" stroke="none" />
                          </g>
                          <g id="svga-group-head" transform="translate(90.99179 0)">
                            <g id="svga-group-ears-left-move" transform="translate(0 245.21275)">
                              <g id="svga-group-ears-left">
                                <path d="M35.1308 21.7386C31.2621 15.3246 18.6474 -2.22699 8.99759 0.234985C1.15057 2.24625 1.2522 13.1857 0.645157 19.6572C-0.240631 29.1507 -0.563675 45.6888 2.01292 52.3999C4.49051 58.8426 12.3297 71.2932 17.1963 76.0424C23.1858 81.8653 32.7496 100.422 33.9272 102.348C35.7795 105.391 39.4946 109.747 45.1949 109.403C53.1956 108.921 60.1074 101.36 60.7352 97.7182C64.1247 77.9444 45.2001 38.4279 35.1308 21.7386L35.1308 21.7386L35.1308 21.7386Z" id="SvgjsPath2924" fill="#DAA488" fill-rule="evenodd" stroke="#AC5F38" stroke-width="1.5" />
                                <path d="M31.2985 60.8097C30.926 59.3429 31.3167 56.8679 31.6997 54.4814C32.0462 52.3061 32.3719 50.2505 32.1739 48.7969C31.421 43.3519 27.1848 33.0091 24.4206 27.4026C21.2344 20.952 16.0865 12.8262 9.62544 10.7316C6.95767 9.86398 5.19913 10.9008 4.18309 11.9508C3.43277 12.722 3.26343 13.6312 3.50832 13.7406C3.75581 13.8475 4.30814 13.0945 5.11577 12.3885C5.77751 11.8101 3.7923 12.2843 5.11577 12.3885C4.58168 15.098 2.86223 28.8068 4.04761 38.8136C4.9803 46.6866 6.78313 52.5666 7.33804 53.4472C7.41879 54.3747 7.55428 55.2839 7.75488 56.1645C10.3653 67.6536 27.3411 82.6781 31.2907 86.9585C32.0202 87.7479 32.7861 88.2169 32.9737 88.024C33.1612 87.8313 32.7106 87.0522 31.9863 86.2577C28.0836 82.0059 11.2199 67.0284 8.69798 55.9456C6.02238 44.1855 18.8897 26.7486 20.94 23.0596C21.9847 24.7921 22.8731 26.4542 23.5557 27.8401C24.095 28.9266 24.6864 30.2005 25.3012 31.5787C24.095 33.5014 11.9676 47.5411 15.0522 58.7801C16.1933 62.925 25.0094 68.2684 28.4197 69.7299C30.2955 70.5376 30.9989 71.7413 31.8169 73.1324C32.7653 74.7581 31.9029 78.9395 35.0214 80.2682C35.6571 80.5391 36.2302 80.6486 36.7383 80.6486C37.6188 80.6486 38.2858 80.3099 38.7782 79.9087C38.8303 80.6146 38.8277 81.5214 38.8016 82.3603C38.7704 83.4492 38.9241 83.9469 39.1872 83.9677C39.4555 83.9911 39.7343 83.5143 39.7682 82.4384C39.8125 81.1096 39.8046 79.4658 39.5676 78.6764C38.8667 76.3604 36.7331 73.7421 34.4691 70.9727C32.2442 68.2502 31.8769 63.0814 31.2985 60.8097L31.2985 60.8097L31.2985 60.8097ZM7.24947 50.6257C1.13235 32.5896 10.592 16.1609 11.965 13.6859C14.6015 14.7254 18.6396 19.3992 20.3565 22.1139C19.1059 24.2841 7.50478 38.4931 7.24947 50.6257L7.24947 50.6257L7.24947 50.6257ZM35.394 79.3668C32.5699 78.1631 33.5547 74.198 32.6428 72.6349C31.8144 71.2228 30.9598 69.7639 28.7897 68.8312C28.3207 68.628 27.8023 68.3206 27.2708 67.9662C20.2835 52.1394 28.0341 45.2225 29.9776 43.8078C30.5742 45.7408 31.0171 47.515 31.2177 48.9401C31.3949 50.2427 31.0641 52.3217 30.7462 54.3278C30.3476 56.8158 29.9386 59.3924 30.3632 61.0598C30.9989 63.5426 31.434 68.7973 33.7266 71.6058C35.7613 74.0964 37.8507 76.6652 38.5646 78.7598C38.2571 79.1766 37.2906 80.1771 35.394 79.3668L35.394 79.3668L35.394 79.3668Z" id="SvgjsPath2925" fill="#AC5F38" fill-rule="evenodd" stroke="none" />
                              </g>
                            </g>
                            <g id="svga-group-ears-right-move" transform="translate(291.52194 245.21275)">
                              <g id="svga-group-ears-right">
                                <path d="M26.0048 21.7386C29.8761 15.3246 42.4908 -2.22699 52.138 0.234985C59.985 2.24625 59.8834 13.1857 60.493 19.6572C61.3788 29.1507 61.6993 45.6888 59.1253 52.3999C56.6477 58.8426 48.8059 71.2932 43.9419 76.0424C37.9524 81.8653 28.386 100.422 27.211 102.348C25.3587 105.391 21.6436 109.747 15.9407 109.403C7.94257 108.921 1.03082 101.36 0.400391 97.7182C-2.98642 77.9444 15.9407 38.4279 26.0048 21.7386L26.0048 21.7386L26.0048 21.7386Z" id="SvgjsPath2926" fill="#DAA488" fill-rule="evenodd" stroke="#AC5F38" stroke-width="1.5" />
                                <path d="M26.6717 70.9753C24.4077 73.7447 22.274 76.363 21.5732 78.6791C21.3336 79.4709 21.3284 81.115 21.37 82.441C21.4065 83.517 21.6853 83.9938 21.9562 83.9703C22.2219 83.9494 22.3731 83.4518 22.3418 82.3629C22.3157 81.524 22.3105 80.6172 22.3626 79.9113C22.855 80.3125 23.5219 80.6512 24.4025 80.6512C24.9106 80.6512 25.4863 80.5417 26.122 80.2708C29.2353 78.9396 28.3755 74.7581 29.3239 73.1351C30.1419 71.7439 30.8453 70.5376 32.7237 69.7325C36.134 68.2711 44.9501 62.9303 46.0912 58.7827C49.1758 47.5437 37.0484 33.5014 35.8421 31.5813C36.4518 30.2032 37.0484 28.9292 37.5825 27.8428C38.2703 26.4568 39.156 24.7921 40.2033 23.0622C42.2537 26.7512 55.1184 44.1855 52.4454 55.9482C49.9209 67.0309 33.0598 82.0085 29.1571 86.2603C28.4302 87.0549 27.9769 87.8339 28.1645 88.0267C28.3573 88.2194 29.1207 87.7505 29.8475 86.9611C33.7971 82.6807 50.7702 67.6562 53.3807 56.1671C53.5839 55.2865 53.722 54.3773 53.8027 53.4498C54.3525 52.5719 56.1579 46.6918 57.0905 38.8162C58.276 28.8094 56.5565 15.1006 56.0224 12.3911C57.3458 12.2869 55.3607 11.8128 56.0224 12.3911C56.8326 13.097 57.3849 13.8501 57.6298 13.7432C57.8747 13.6338 57.7054 12.7272 56.9577 11.9534C55.939 10.9035 54.1805 9.86658 51.5128 10.7342C45.0517 12.8288 39.9012 20.9546 36.715 27.4052C33.9508 33.0117 29.7173 43.3545 28.9643 48.7995C28.7663 50.2532 29.092 52.3087 29.4385 54.4841C29.8189 56.8705 30.2123 59.3455 29.8397 60.8123C29.2613 63.0814 28.8965 68.2502 26.6717 70.9753L26.6717 70.9753L26.6717 70.9753ZM40.7817 22.1139C42.5012 19.3992 46.5367 14.728 49.1732 13.6859C50.5462 16.1609 60.0058 32.5896 53.8913 50.6257C53.636 38.4931 42.0348 24.2841 40.7817 22.1139L40.7817 22.1139L40.7817 22.1139ZM22.5762 78.7546C23.2875 76.66 25.3795 74.0912 27.4142 71.6006C29.7042 68.7921 30.1419 63.5373 30.7775 61.0546C31.1996 59.3871 30.7932 56.8105 30.3972 54.3226C30.0768 52.3165 29.7459 50.2375 29.923 48.9349C30.121 47.5099 30.5639 45.7357 31.1605 43.8026C33.1041 45.2172 40.8546 52.1367 33.8674 67.9611C33.3385 68.3154 32.8201 68.6228 32.3459 68.826C30.1783 69.7587 29.3238 71.2176 28.4927 72.6296C27.5809 74.1927 28.5683 78.1606 25.7442 79.3616C23.8476 80.1771 22.8811 79.1766 22.5762 78.7546L22.5762 78.7546L22.5762 78.7546Z" id="SvgjsPath2927" fill="#AC5F38" fill-rule="evenodd" stroke="none" />
                              </g>
                            </g>
                            <g id="svga-group-faceshape-wrap" transform="translate(18.358032 49.47291)">
                              <g id="svga-group-faceshape-single">
                                <path d="M158.582 0.000198364C70.988 -0.137886 0.13829 71.0714 0.00283813 159.082C-0.0180206 173.059 1.74573 186.617 5.09087 199.541L5.1013 199.541C5.12997 199.682 26.2585 273.986 30.6536 313.219C33.8945 342.142 63.4458 419.503 158.579 419.443C253.71 419.5 280.864 342.768 285.968 313.219C292.689 274.325 312.023 199.682 312.054 199.541L312.067 199.541C315.41 186.617 317.176 173.059 317.153 159.082C317.022 71.0714 246.17 -0.137886 158.582 0.000198364L158.582 0.000198364L158.582 0.000198364Z" id="SvgjsPath3163" fill="#DAA488" fill-rule="evenodd" stroke="none" />
                                <path d="M251.725 30.2914C282.365 59.4572 301.805 102.767 301.865 151.196C301.886 165.173 300.297 178.731 297.277 191.655L297.264 191.655C297.236 191.796 279.765 266.442 273.687 305.333C269.073 334.884 244.537 411.614 158.576 411.556C72.6137 411.611 45.9099 334.254 42.9842 305.333C39.0086 266.1 19.9199 191.793 19.8939 191.655L19.8834 191.655C16.8562 178.731 15.2669 165.173 15.2852 151.196C15.3529 102.764 34.7959 59.452 65.4362 30.2862C25.8391 59.1862 0.0809784 106.073 0.000183105 159.084C-0.0206451 173.062 1.7431 186.619 5.08826 199.544L5.09866 199.544C5.12732 199.685 26.2559 273.989 30.6509 313.221C33.8919 342.145 63.4432 419.505 158.576 419.445C253.707 419.502 280.862 342.77 285.965 313.221C292.687 274.328 312.02 199.685 312.052 199.544L312.065 199.544C315.407 186.619 317.174 173.062 317.15 159.084C317.075 106.076 291.319 59.1915 251.725 30.2914L251.725 30.2914L251.725 30.2914Z" id="SvgjsPath3164" fill="#D29779" fill-rule="evenodd" stroke="none" />
                                <path d="M158.582 0.000198364C70.988 -0.137886 0.13829 71.0714 0.00283813 159.082C-0.0180206 173.059 1.74573 186.617 5.09087 199.541L5.1013 199.541C5.12997 199.682 26.2585 273.986 30.6536 313.219C33.8945 342.142 63.4458 419.503 158.579 419.443C253.71 419.5 280.864 342.768 285.968 313.219C292.689 274.325 312.023 199.682 312.054 199.541L312.067 199.541C315.41 186.617 317.176 173.059 317.153 159.082C317.022 71.0714 246.17 -0.137886 158.582 0.000198364L158.582 0.000198364L158.582 0.000198364Z" id="SvgjsPath3165" fill="none" fill-rule="evenodd" stroke="#AC5F38" stroke-width="1.5" />
                              </g>
                            </g>
                            <g id="svga-group-mouth-single-move" transform="translate(134.99335 391.55875)">
                              <g id="svga-group-mouth-single">
                                <path d="M31.8484 18.4026L53.4642 17.8633C50.9605 29.5088 33.5601 27.8362 31.8484 18.4026L31.8484 18.4026L31.8484 18.4026Z" id="SvgjsPath3032" fill="url(#gradient_2)" fill-rule="evenodd" stroke="none" />
                                <path d="M32.1507 19.1399C31.1841 19.0096 31.33 17.6315 32.3591 17.7278C32.4711 17.7434 43.5825 19.1503 52.8832 17.1677C53.8888 16.9723 54.1858 18.3531 53.2219 18.5589C45.935 20.1169 36.5066 19.7521 32.1507 19.1399L32.1507 19.1399L32.1507 19.1399ZM41.8943 9.83914C37.9786 9.83914 34.1827 8.48178 30.3686 7.81744C26.0961 7.06973 21.8391 7.7106 17.5639 8.08841C13.1975 8.47659 3.67007 8.0545 0.981445 6.3533C-0.524384 5.39713 -0.243011 3.17233 1.453 2.57828C3.05261 2.0051 5.54584 3.19308 7.1611 3.4823C14.6434 4.82401 18.5825 3.39371 25.1425 3.17487C35.1754 2.87268 36.2409 7.08539 48.7565 4.55566C62.2126 1.83578 68.2724 3.89395 77.9275 0.986511C79.2509 0.585266 80.8245 -0.472443 82.2131 0.241394C83.8153 1.06982 83.7372 3.32861 82.0854 4.05548C73.212 7.96857 63.3954 6.38721 53.5449 8.0311C49.684 8.67197 45.836 9.83914 41.8943 9.83914L41.8943 9.83914L41.8943 9.83914Z" id="SvgjsPath3036" fill="#AC5F38" fill-rule="evenodd" stroke="none" />
                              </g>
                            </g>
                            <g id="svga-group-eyes-left-move" transform="translate(59.779083 203.52666)">
                              <g id="svga-group-eyes-left">
                                <path d="M13.8078 54.6008C17.0019 51.5292 37.4921 47.6343 49.3199 49.1949C68.0335 51.6621 83.1882 68.1742 83.1882 68.1742C83.1882 68.1742 70.5892 76.2062 47.7307 77.4489C32.6724 78.2695 17.5281 68.5441 13.8078 54.6008L13.8078 54.6008L13.8078 54.6008Z" id="svga-group-eyesback-left" fill="url(#gradient_3)" fill-rule="evenodd" stroke="none" />
                                <g id="svga-group-eyesiriswrapper-left" transform="translate(34.17566 46.89447)">
                                  <g id="svga-group-eyesiriscontrol-left">
                                    <g id="svga-group-eyesiris-left">
                                      <path d="M31.263 15.6341C31.263 24.2653 24.2627 31.263 15.6315 31.263C7.00029 31.263 0 24.2653 0 15.6341C0 6.99509 7.00029 0 15.6315 0C24.2627 0 31.263 6.99768 31.263 15.6341L31.263 15.6341L31.263 15.6341Z" id="SvgjsPath3398" fill="#4D3623" fill-rule="evenodd" stroke="none" />
                                      <path d="M6.54437 22.9418C8.82397 22.7542 6.80492 22.1446 6.80492 22.1446C5.67683 21.5376 3.55356 20.6023 3.55356 19.7452C3.55356 17.0592 7.23738 16.361 3.46498 15.3032C-0.453308 11.708 6.50529 11.7809 6.45322 11.6611C3.91309 5.47101 7.23218 8.87085 8.62859 7.04196C13.8078 0.270935 10.0719 7.73755 12.883 7.04196C13.9016 6.79187 10.8509 3.05334 12.9715 3.577C14.3758 3.9209 14.6962 5.08804 14.6962 5.08804C15.7201 4.88742 17.3223 3.31125 17.3223 3.31125C19.2736 3.90005 20.644 6.67203 20.0396 6.15359C20.9983 6.03635 22.3426 5.57782 23.3899 5.2652C23.3899 5.2652 23.5723 4.64255 23.7521 5.17923C26.1411 12.1118 32.3077 11.6142 25.2084 13.6202C25.2084 13.6202 24.7499 13.6202 26.2036 14.7718C33.2638 20.4095 20.7274 18.6666 27.3786 21.2588C27.6495 20.9879 23.3926 23.7729 23.3926 24.544C23.3926 25.8493 20.6779 29.2804 18.3227 27.9309C17.0097 27.1805 16.8091 29.494 16.0379 28.4259C14.5243 26.3339 11.4996 28.3347 12.6172 26.412C14.269 25.0547 10.9134 26.9435 10.2621 26.9435C8.10493 26.9435 13.0836 19.6931 20.4069 25.0807C22.5484 26.6491 18.156 21.3474 22.0352 21.3474C22.4234 21.4751 22.3061 19.9901 22.3061 19.5706C20.2897 19.1773 25.9274 19.5629 25.9274 16.2828C26.2844 16.3532 27.2535 15.371 21.6679 16.2828C21.6679 16.2828 21.4907 14.3289 21.5793 13.9746C21.8659 12.8335 24.742 13.1982 23.9344 12.0206C23.9344 12.018 21.8528 7.84183 21.8528 7.84183C15.1495 6.76324 18.9818 6.09109 14.79 6.95343C14.592 7.9382 5.81493 12.1223 6.09369 14.0631C6.35422 15.892 11.6038 16.5069 6.63557 19.7478C14.0814 34.0037 1.13847 19.4221 6.54437 22.9418L6.54437 22.9418L6.54437 22.9418Z" id="SvgjsPath3399" fill="#5C4633" fill-rule="evenodd" stroke="none" />
                                      <path d="M15.6315 1.95392L16.077 13.3988L20.8628 2.99603L16.895 13.7375L25.3021 5.96082L17.5255 14.3653L28.2695 10.3975L17.8694 15.1886L29.3116 15.6315L17.8694 16.0743L28.2695 20.8654L17.5255 16.8976L25.3021 25.3021L16.895 17.5255L20.8628 28.2669L16.077 17.8642L15.6315 29.3091L15.186 17.8642L10.3975 28.2669L14.3628 17.5255L5.95822 25.3022L13.7349 16.8977L2.99086 20.8654L13.391 16.0744L1.95396 15.6315L13.391 15.1886L2.99086 10.3976L13.7349 14.3654L5.95822 5.96085L14.3628 13.7375L10.3975 2.99609L15.186 13.3988L15.6315 1.95392L15.6315 1.95392L15.6315 1.95392Z" id="SvgjsPath3400" fill="#2E1B0C" fill-rule="evenodd" stroke="none" />
                                      <path d="M17.7053 5.38766L16.301 14.0241L21.462 6.96124L16.8612 14.4044L24.3382 9.85046L17.2389 14.9672L25.8857 13.6255L17.3718 15.6341L25.8805 17.7027L17.2389 16.301L24.3043 21.4646L16.8585 16.8664L21.4125 24.3408L16.2958 17.2416L17.6401 25.8884L15.6315 17.3692L13.5603 25.8727L14.9645 17.2364L9.79572 24.2992L14.4018 16.856L6.92732 21.4099L14.0266 16.2933L5.37981 17.6376L13.8964 15.6289L5.39282 13.5629L14.0292 14.962L6.96381 9.79834L14.4096 14.3966L9.85823 6.92215L14.9749 14.0214L13.6306 5.37723L15.6419 13.8964L17.7053 5.38766L17.7053 5.38766L17.7053 5.38766Z" id="SvgjsPath3401" fill="#1F1105" fill-rule="evenodd" stroke="none" />
                                      <path d="M21.4933 15.6341C21.4933 18.8724 18.8672 21.4959 15.6315 21.4959C12.3958 21.4959 9.76967 18.8724 9.76967 15.6341C9.76967 12.3958 12.3958 9.77228 15.6315 9.77228C18.8672 9.77228 21.4933 12.3958 21.4933 15.6341L21.4933 15.6341L21.4933 15.6341Z" id="SvgjsPath3402" fill="#000000" fill-opacity="0.8980392" fill-rule="evenodd" stroke="none" />
                                      <path d="M9.47528 26.8653C8.61295 27.7303 6.9091 27.4254 5.67162 26.1854C4.43153 24.9479 4.12671 23.244 4.99165 22.3791C5.85399 21.5167 7.55783 21.8216 8.79532 23.0591C10.0354 24.2992 10.3402 26.0004 9.47528 26.8653L9.47528 26.8653L9.47528 26.8653Z" id="SvgjsPath3403" fill="#FFFFFF" fill-opacity="0.69803923" fill-rule="evenodd" stroke="none" />
                                      <path d="M28.1523 12.5547C26.8601 13.8469 23.7312 12.8152 21.165 10.2464C18.5963 7.67767 17.5646 4.54877 18.8568 3.25656C20.149 1.96432 23.2779 2.99603 25.844 5.56482C28.4128 8.1362 29.4445 11.2625 28.1523 12.5547L28.1523 12.5547L28.1523 12.5547Z" id="SvgjsPath3404" fill="#FFFFFF" fill-opacity="0.8980392" fill-rule="evenodd" stroke="none" />
                                    </g>
                                  </g>
                                </g>
                                <g id="svga-group-eyesfront-left">
                                  <path d="M0 65.1338C0 101.107 33.0033 119.841 46.8945 119.841C72.7906 119.841 93.7889 101.107 93.7889 65.1338C93.7889 29.158 72.7906 0 46.8945 0C20.9983 0 0 29.158 0 65.1338L0 65.1338L0 65.1338ZM13.8078 54.6008C17.0019 51.5292 37.4921 47.6344 49.3199 49.1949C68.0335 51.6621 83.1882 68.1742 83.1882 68.1742C83.1882 68.1742 70.5892 76.2062 47.7307 77.4489C32.6724 78.2695 17.5281 68.5441 13.8078 54.6008L13.8078 54.6008L13.8078 54.6008Z" id="SvgjsPath3249" fill="#DAA488" fill-rule="evenodd" stroke="none" />
                                  <path d="M49.1063 87.5181C73.6269 93.3096 97.1758 83.3237 101.717 65.2041C106.245 47.082 90.0504 27.7016 65.5246 21.8997C40.9988 16.1056 17.45 26.0916 12.9116 44.2137C8.3837 62.3384 24.5727 81.7162 49.1063 87.5181L49.1063 87.5181L49.1063 87.5181ZM13.8078 54.6008C17.0019 51.5292 37.4921 47.6343 49.3199 49.1949C68.0335 51.6621 83.1882 68.1742 83.1882 68.1742C83.1882 68.1742 70.5892 76.2062 47.7307 77.4489C32.6724 78.2695 17.5281 68.5441 13.8078 54.6008L13.8078 54.6008L13.8078 54.6008Z" id="SvgjsPath3250" fill="url(#gradient_4)" fill-rule="evenodd" stroke="none" />
                                  <path d="M13.8078 54.6008C17.0019 51.5292 37.4921 47.6344 49.3199 49.1949C68.0335 51.6621 83.1882 68.1742 83.1882 68.1742C83.1882 68.1742 70.5892 76.2062 47.7307 77.4489C32.6724 78.2695 17.5281 68.5441 13.8078 54.6008L13.8078 54.6008L13.8078 54.6008Z" id="SvgjsPath3255" fill="url(#gradient_5)" fill-rule="evenodd" stroke="none" />
                                  <path d="M82.0653 58.5113C65.126 47.4364 71.5037 50.4611 39.7822 41.0483C48.4941 42.3509 64.7196 46.4307 70.2818 49.6977C73.3117 51.4015 79.4601 56.2343 82.0653 58.5113L82.0653 58.5113L82.0653 58.5113Z" id="SvgjsPath3259" fill="#AC5F38" fill-rule="evenodd" stroke="none" />
                                  <path d="M9.69414 54.4158C14.7666 67.2493 35.0536 90.7877 85.9888 68.8307C77.9204 60.077 57.3181 45.089 38.6801 45.2193C23.0669 45.3261 14.3419 50.1927 9.69414 54.4158L9.69414 54.4158L9.69414 54.4158ZM13.8078 54.9056C17.0019 51.9434 37.4921 48.1841 49.3199 49.6925C68.0334 52.0711 83.1882 67.997 83.1882 67.997C83.1882 67.997 70.5892 75.745 47.7307 76.9434C32.6724 77.7328 17.5281 68.3539 13.8078 54.9056L13.8078 54.9056L13.8078 54.9056Z" id="SvgjsPath3260" fill="#131111" fill-rule="evenodd" stroke="none" />
                                </g>
                              </g>
                            </g>
                            <g id="svga-group-eyes-right-move" transform="translate(190.0458 203.52666)">
                              <g id="svga-group-eyes-right">
                                <path d="M88.6706 54.6008C85.4765 51.5292 64.9862 47.6343 53.1584 49.1949C34.4449 51.6621 19.2902 68.1742 19.2902 68.1742C19.2902 68.1742 31.8892 76.2062 54.7476 77.4489C69.8059 78.2695 84.9477 68.5441 88.6706 54.6008L88.6706 54.6008L88.6706 54.6008Z" id="svga-group-eyesback-right" fill="url(#gradient_6)" fill-rule="evenodd" stroke="none" />
                                <g id="svga-group-eyesiriswrapper-right" transform="translate(38.079224 46.89447)">
                                  <g id="svga-group-eyesiriscontrol-right">
                                    <g id="svga-group-eyesiris-right">
                                      <path d="M31.263 15.6315C31.263 24.2705 24.2705 31.263 15.6315 31.263C6.99249 31.263 0 24.2705 0 15.6315C0 6.99249 6.99249 0 15.6315 0C24.2705 0 31.263 6.99249 31.263 15.6315L31.263 15.6315L31.263 15.6315Z" id="SvgjsPath3405" fill="#4D3623" fill-rule="evenodd" stroke="none" />
                                      <path d="M6.53397 22.9444C8.82397 22.7464 6.80756 22.1498 6.80756 22.1498C5.67688 21.5402 3.54056 20.6075 3.54056 19.7374C3.54056 17.0513 7.2348 16.3636 3.48065 15.2954C-0.458527 11.708 6.50275 11.7835 6.44281 11.6611C3.9079 5.4632 7.2374 8.86829 8.64163 7.03677C13.8 0.273529 10.0771 7.74017 12.8856 7.03677C13.8938 6.79187 10.8405 3.05334 12.9768 3.57178C14.381 3.92349 14.6858 5.08282 14.6858 5.08282C15.7227 4.88483 17.3119 3.31125 17.3119 3.31125C19.2658 3.89221 20.6388 6.66943 20.0292 6.15097C21.0062 6.02853 22.3505 5.57001 23.3873 5.2652C23.3873 5.2652 23.5697 4.63992 23.7547 5.17401C26.1359 12.104 32.3025 11.6168 25.2215 13.615C25.2215 13.615 24.7629 13.615 26.1984 14.7587C33.2508 20.4069 20.7326 18.651 27.389 21.2458C27.6626 20.9853 23.39 23.7651 23.39 24.544C23.39 25.8414 20.6727 29.2752 18.3227 27.9178C17.0097 27.1701 16.7961 29.4914 16.0328 28.4206C14.5373 26.3286 11.484 28.3294 12.612 26.4067C14.2612 25.0494 10.903 26.9408 10.2621 26.9408C8.09454 26.9408 13.0706 19.6904 20.3991 25.0781C22.5354 26.636 18.1404 21.337 22.0483 21.337C22.4156 21.4594 22.3218 19.9796 22.3218 19.5654C20.2767 19.1694 25.9249 19.5498 25.9249 16.2672C26.2922 16.3427 27.2692 15.3657 21.6809 16.2672C21.6809 16.2672 21.4985 14.3132 21.5897 13.9615C21.8633 12.8178 24.7342 13.1825 23.9396 12.0076L21.8633 7.82614C15.1469 6.75797 18.9923 6.08582 14.7796 6.94037C14.5972 7.93298 5.8045 12.1144 6.07806 14.0527C6.35162 15.8842 11.6038 16.4964 6.62778 19.7322C14.0735 34.0115 1.13068 19.4169 6.53397 22.9444L6.53397 22.9444L6.53397 22.9444Z" id="SvgjsPath3406" fill="#5C4633" fill-rule="evenodd" stroke="none" />
                                      <path d="M15.6315 1.95392L16.09 13.404L20.8524 2.99341L16.8846 13.7401L25.31 5.9556L17.5255 14.3679L28.2721 10.4001L17.8615 15.1938L29.3116 15.6367L17.8616 16.0796L28.2721 20.8732L17.5255 16.9054L25.31 25.3178L16.8846 17.5333L20.8524 28.2799L16.09 17.8693L15.6315 29.3091L15.173 17.859L10.3793 28.2696L14.3471 17.5229L5.95041 25.3074L13.7349 16.8951L2.98825 20.8629L13.3988 16.0692L1.94876 15.6263L13.3988 15.1834L2.98825 10.3898L13.7349 14.3576L5.95041 5.94522L14.3471 13.7297L10.3793 2.98306L15.173 13.3936L15.6315 1.95392L15.6315 1.95392L15.6315 1.95392Z" id="SvgjsPath3407" fill="#2E1B0C" fill-rule="evenodd" stroke="none" />
                                      <path d="M17.7079 5.38766L16.3036 14.0267L21.462 6.95862L16.8507 14.407L24.3304 9.84265L17.2467 14.9724L25.8857 13.6281L17.3666 15.6289L25.8857 17.7053L17.2467 16.3011L24.2991 21.4595L16.8507 16.8638L21.3994 24.3435L16.301 17.2442L17.6453 25.8832L15.6315 17.3718L13.5551 25.8753L14.9594 17.2363L9.80096 24.3044L14.4122 16.8559L6.93256 21.4203L14.0162 16.2906L5.37723 17.6349L13.8964 15.6341L5.37723 13.5577L14.0162 14.9619L6.96381 9.80356L14.4122 14.3992L9.86346 6.91949L14.9619 14.0188L13.6176 5.37982L15.6315 13.899L17.7079 5.38766L17.7079 5.38766L17.7079 5.38766Z" id="SvgjsPath3408" fill="#1F1105" fill-rule="evenodd" stroke="none" />
                                      <path d="M21.4933 15.6315C21.4933 18.8672 18.8672 21.4933 15.6315 21.4933C12.3958 21.4933 9.76971 18.8672 9.76971 15.6315C9.76971 12.3958 12.3958 9.76968 15.6315 9.76968C18.8672 9.76968 21.4933 12.3958 21.4933 15.6315L21.4933 15.6315L21.4933 15.6315Z" id="SvgjsPath3409" fill="#000000" fill-opacity="0.8980392" fill-rule="evenodd" stroke="none" />
                                      <path d="M9.46487 26.8679C8.61038 27.7224 6.90131 27.4333 5.67944 26.1801C4.42892 24.9427 4.12152 23.2492 5.00729 22.3791C5.86179 21.5246 7.57086 21.8294 8.79272 23.0668C10.0432 24.3018 10.3506 25.9978 9.46487 26.8679L9.46487 26.8679L9.46487 26.8679Z" id="SvgjsPath3410" fill="#FFFFFF" fill-opacity="0.69803923" fill-rule="evenodd" stroke="none" />
                                      <path d="M28.1497 12.5469C26.8679 13.8443 23.7233 12.8204 21.1572 10.2412C18.5936 7.67767 17.5541 4.54617 18.8672 3.26437C20.1489 1.96695 23.2649 2.99081 25.8284 5.57001C28.4233 8.1362 29.4315 11.2651 28.1497 12.5469L28.1497 12.5469L28.1497 12.5469Z" id="SvgjsPath3411" fill="#FFFFFF" fill-opacity="0.8980392" fill-rule="evenodd" stroke="none" />
                                    </g>
                                  </g>
                                </g>
                                <g id="svga-group-eyesfront-right">
                                  <path d="M55.5839 0C29.6877 0 8.68942 29.1606 8.68942 65.1338C8.68942 101.107 29.6877 119.841 55.5839 119.841C74.3443 119.841 102.478 101.107 102.478 65.1338C102.478 29.158 81.48 0 55.5839 0L55.5839 0L55.5839 0ZM54.7476 77.4488C31.8892 76.2087 19.2902 68.1742 19.2902 68.1742C19.2902 68.1742 34.4449 51.6621 53.1584 49.1949C64.9862 47.6318 85.4765 51.5292 88.6706 54.6008C84.9477 68.5441 69.8059 78.2695 54.7476 77.4488L54.7476 77.4488L54.7476 77.4488Z" id="SvgjsPath3270" fill="#DAA488" fill-rule="evenodd" stroke="none" />
                                  <path d="M89.5641 44.2163C85.0258 26.0942 61.4769 16.1056 36.9511 21.9023C12.4253 27.7042 -3.76889 47.0846 0.759033 65.2068C5.29996 83.3263 28.8488 93.3122 53.3694 87.5207C77.903 81.7162 94.0947 62.3384 89.5641 44.2163L89.5641 44.2163L89.5641 44.2163ZM54.7476 77.4488C31.8892 76.2087 19.2902 68.1742 19.2902 68.1742C19.2902 68.1742 34.4449 51.6621 53.1584 49.1949C64.9862 47.6318 85.4765 51.5292 88.6706 54.6008C84.9477 68.5441 69.8059 78.2695 54.7476 77.4488L54.7476 77.4488L54.7476 77.4488Z" id="SvgjsPath3271" fill="url(#gradient_7)" fill-rule="evenodd" stroke="none" />
                                  <path d="M88.6706 54.6008C85.4765 51.5292 64.9862 47.6344 53.1584 49.1949C34.4449 51.6621 19.2902 68.1742 19.2902 68.1742C19.2902 68.1742 31.8892 76.2062 54.7476 77.4489C69.8059 78.2695 84.9477 68.5441 88.6706 54.6008L88.6706 54.6008L88.6706 54.6008Z" id="SvgjsPath3276" fill="url(#gradient_8)" fill-rule="evenodd" stroke="none" />
                                  <path d="M20.4131 58.5113C37.3524 47.4364 30.9747 50.4611 62.6962 41.0483C53.9843 42.3509 37.7588 46.4307 32.1966 49.6977C29.1641 51.4015 23.0183 56.2343 20.4131 58.5113L20.4131 58.5113L20.4131 58.5113Z" id="SvgjsPath3280" fill="#AC5F38" fill-rule="evenodd" stroke="none" />
                                  <path d="M63.7982 45.2167C45.1603 45.0864 24.5553 60.0744 16.4895 68.8281C67.4247 90.7851 87.7118 67.2467 92.7842 54.4132C88.1365 50.1927 79.4089 45.3261 63.7982 45.2167L63.7982 45.2167L63.7982 45.2167ZM54.7476 76.9434C31.8892 75.7476 19.2902 67.997 19.2902 67.997C19.2902 67.997 34.4449 52.0711 53.1584 49.6925C64.9862 48.1841 85.4765 51.9434 88.6706 54.9056C84.9477 68.3539 69.8059 77.7328 54.7476 76.9434L54.7476 76.9434L54.7476 76.9434Z" id="SvgjsPath3281" fill="#131111" fill-rule="evenodd" stroke="none" />
                                </g>
                              </g>
                            </g>
                            <g id="svga-group-facehighlight-single" transform="translate(69.85344 90.198364)">
                              <path d="M213.633 253.947C213.724 312.882 165.978 360.746 106.979 360.827C47.9914 360.923 0.0913391 313.221 0.000137329 254.272C-0.0910339 195.341 47.6553 147.29 106.651 147.197C165.642 147.105 213.547 195.003 213.633 253.947L213.633 253.947L213.633 253.947Z" id="SvgjsPath2903" fill="url(#gradient_9)" fill-rule="evenodd" stroke="none" />
                              <path d="M204.515 97.6968C204.515 151.654 160.775 195.394 106.821 195.394C52.8632 195.394 9.12112 151.654 9.12112 97.6968C9.12112 43.7395 52.8632 0 106.821 0C160.775 0 204.515 43.7395 204.515 97.6968L204.515 97.6968L204.515 97.6968Z" id="SvgjsPath2907" fill="url(#gradient_10)" fill-rule="evenodd" stroke="none" />
                            </g>
                            <path d="M52.8908 239.664C72.365 215.219 105.876 219.286 133.336 223.215C140.32 224.215 147.511 224.965 154.36 226.695C159.268 227.933 163.127 233.526 159.182 238.044C157.338 240.193 153.313 239.794 150.827 239.742C117.946 239.078 80.78 220.169 52.8908 239.664L52.8908 239.664L52.8908 239.664Z" id="svga-group-eyebrows-left-move" fill="#504543" fill-rule="evenodd" stroke="none" />
                            <path d="M300.621 238.674C294.983 234.902 289.017 232.239 282.272 231.147C257.53 227.135 210.404 243.627 198.016 240.136C190.43 237.994 191.964 230.395 195.32 228.521C197.339 227.393 197.899 227.422 215.925 224.322C246.555 219.059 280.85 214.875 300.621 238.674L300.621 238.674L300.621 238.674Z" id="svga-group-eyebrows-right-move" fill="#504543" fill-rule="evenodd" stroke="none" />
                            <g id="svga-group-nose-single-move" transform="translate(153.32166 271.26266)">
                              <g id="svga-group-nose-single">
                                <path d="M0.202057 76.8553C-2.08533 82.2325 15.6616 88.037 22.3962 88.3939C29.6909 88.7769 50.1317 80.8387 46.6667 75.3885C43.0219 69.67 29.36 74.6434 23.4644 74.6434C17.5973 74.6409 3.26584 69.6805 0.202057 76.8553L0.202057 76.8553L0.202057 76.8553Z" id="SvgjsPath3041" fill="#CB8B6A" fill-rule="evenodd" stroke="none" />
                                <path d="M28.1877 80.9169C27.5885 78.9395 33.0751 76.7902 35.1098 76.5036C37.9782 76.0867 43.8634 78.593 43.3372 80.6512C42.8578 82.4696 37.7411 79.2626 35.8862 79.5335C33.9739 79.8123 28.7556 82.7692 28.1877 80.9169L28.1877 80.9169L28.1877 80.9169ZM10.2557 80.2734C12.7776 80.2734 16.5187 81.8964 17.2065 80.4661C18.0272 78.7597 11.6339 76.6599 9.75552 76.8917C8.20279 77.0741 2.63538 80.3177 3.40131 81.6828C4.11517 82.9359 6.93146 80.2734 10.2557 80.2734L10.2557 80.2734L10.2557 80.2734Z" id="SvgjsPath3042" fill="#AC5F38" fill-rule="evenodd" stroke="none" />
                                <path d="M23.5816 67.7369C25.163 67.7369 28.1199 65.8091 28.2502 61.9272C28.7738 46.2749 25.7595 -0.163696 23.5816 0.000427246C21.5495 0.154144 17.6755 45.9492 18.5065 61.9272C18.7124 65.8403 21.797 67.7369 23.5816 67.7369L23.5816 67.7369L23.5816 67.7369Z" id="SvgjsPath3043" fill="#F9DCCD" fill-opacity="0.2" fill-rule="evenodd" stroke="none" />
                              </g>
                            </g>
                            <g id="svga-group-beardwrap" transform="translate(30.516937 272.77676)">
                              <g id="svga-group-beard-single-move">
                                <g id="svga-group-beard-single">
                                  <path d="M278.449 5.62735C270.451 10.1865 264.641 13.3128 259.795 16.6996C230.278 36.3693 227.282 82.404 222.176 125.781C206.674 98.4523 209.071 93.789 188.672 89.6466C163.636 84.1756 155.299 81.7788 146.154 93.8671C139.068 86.6766 136.489 82.8469 119.372 86.5724C88.8911 92.5905 87.38 91.809 78.2877 111.322C77.6364 112.859 70.9148 124.322 70.1333 125.807C68.6483 115.439 70.2636 115.1 66.017 92.2519C61.536 68.6223 59.6341 49.9947 47.9365 31.5235C36.6298 15.8139 12.0362 4.03815 0 0C0 19.826 1.90182 49.4476 2.26657 53.2513C6.82574 99.781 24.9843 172.415 57.3936 202.923C84.4882 227.386 114.657 225.719 146.259 225.719C162.541 225.719 193.309 226.839 212.041 217.747C237.494 207.899 255.132 180.101 265.188 154.726C282.695 111.922 292.309 69.0912 292.309 0C283.06 3.49103 281.263 3.88181 278.449 5.62735L278.449 5.62735L278.449 5.62735ZM156.549 160.431C156.862 158.634 157.826 156.002 158.217 155.299C160.978 149.437 173.692 132.112 175.177 130.836C158.321 135.864 138.495 136.437 117.731 131.539C122.681 137.453 134.379 152.746 135.759 160.431C117.366 152.433 93.2679 148.812 95.7689 129.064C97.0976 114.631 113.667 113.98 124.583 113.276C168.299 112.443 194.69 110.254 196.566 129.064C198.937 148.76 175.281 152.459 156.549 160.431L156.549 160.431L156.549 160.431Z" id="SvgjsPath3505" fill="#2A232B" fill-rule="evenodd" stroke="none" />
                                  <path d="M292.309 0C292.309 69.0912 282.695 111.922 265.188 154.726C255.132 180.101 237.494 207.899 212.041 217.747C193.309 226.839 162.541 225.719 146.259 225.719C114.657 225.719 84.4882 227.386 57.3936 202.923C24.9843 172.415 6.82574 99.781 2.26657 53.2513C1.90182 49.4216 0 19.826 0 0C2.57919 0.859741 5.7576 2.11026 9.2226 3.64737C26.4693 81.4661 30.8461 189.349 117.497 219.935C114.891 214.725 107.076 204.304 107.076 204.304C107.076 204.304 122.707 214.725 130.523 219.935C130.523 217.33 127.97 207.221 127.97 207.221C127.97 207.221 140.423 216.157 148.239 218.763C148.239 216.157 145.633 208.133 145.633 208.133L159.259 217.121L180.023 199.093C180.023 199.093 173.51 212.771 170.904 217.981C180.283 215.454 195.602 204.173 195.602 204.173C195.602 204.173 193.049 212.119 193.049 214.725C269.148 171.92 269.278 81.3359 280.611 4.45499C282.722 3.465 285.483 2.57919 292.309 0L292.309 0L292.309 0ZM117.731 131.539C118.461 132.399 119.32 133.467 120.284 134.691C136.984 145.269 155.898 144.826 171.894 134.9C173.536 132.737 174.786 131.174 175.203 130.836C158.321 135.864 138.469 136.411 117.731 131.539L117.731 131.539L117.731 131.539ZM148.082 211.676C147.04 209.723 145.581 207.195 145.164 205.007C145.164 204.981 144.383 201.777 144.383 201.777C144.331 201.542 143.393 195.133 143.575 195.133C143.445 191.616 142.95 186.979 142.689 184.347C140.683 202.063 143.497 206.31 148.082 211.676L148.082 211.676L148.082 211.676ZM157.513 145.269C157.487 145.269 157.539 145.529 157.435 145.972C156.628 149.724 150.453 157.305 149.88 161.942C149.672 154.231 157.123 147.874 157.513 145.269L157.513 145.269L157.513 145.269ZM211.624 135.89C215.324 144.383 212.354 150.323 208.368 158.686C211.624 146.884 213.37 143.914 211.624 135.89L211.624 135.89L211.624 135.89ZM197.295 110.489C201.073 116.194 202.454 117.236 207.065 134.587C202.766 125.078 202.324 122.421 197.295 110.489L197.295 110.489L197.295 110.489ZM201.203 103.324C206.362 107.571 209.905 111.426 213.578 125.469C208.915 115.048 205.815 108.925 201.203 103.324L201.203 103.324L201.203 103.324ZM156.263 203.626C157.696 188.151 162.281 179.476 172.546 167.804C164.99 179.632 160.171 190.313 156.263 203.626L156.263 203.626L156.263 203.626ZM172.546 197.764C178.095 189.141 184.165 175.464 195.342 172.363C191.329 174.291 189.402 176.48 185.754 180.882C185.754 180.882 183.774 183.201 180.856 187.5C178.772 190.522 175.151 195.185 172.546 197.764L172.546 197.764L172.546 197.764ZM183.618 208.837C189.923 198.989 189.506 196.045 195.993 189.949C189.949 198.312 190.339 202.037 183.618 208.837L183.618 208.837L183.618 208.837ZM179.059 176.922C182.341 166.449 187.474 156.966 197.947 151.521C190.001 157.644 183.852 168.065 179.059 176.922L179.059 176.922L179.059 176.922ZM152.355 184.035C149.854 176.453 151.417 169.784 153.006 161.916C152.563 172.077 151.391 177.365 152.355 184.035L152.355 184.035L152.355 184.035ZM229.21 171.061C221.785 181.117 214.855 185.858 205.763 189.297C214.334 184.243 218.033 180.908 229.21 171.061L229.21 171.061L229.21 171.061ZM240.282 140.449C236.27 159.493 221.524 171.451 204.46 180.83C222.436 166.137 229.132 157.696 229.132 157.696C232.857 153.475 237.468 146.988 240.282 140.449L240.282 140.449L240.282 140.449ZM224.651 156.732C224.52 140.371 227.334 130.575 236.374 116.35C230.747 130.288 226.761 144.878 224.651 156.732L224.651 156.732L224.651 156.732ZM256.565 89.6466C256.435 96.5766 256.617 109.525 238.328 134.587C238.38 134.457 250.885 107.076 250.729 107.076C254.246 98.8692 255.132 95.6387 256.565 89.6466L256.565 89.6466L256.565 89.6466ZM236.374 103.324C235.983 88.9172 239.657 86.1816 245.493 70.1072C242.549 85.374 238.797 88.0053 236.374 103.324L236.374 103.324L236.374 103.324ZM267.637 37.5416C264.589 55.7263 261.02 60.2594 248.749 87.0413C253.934 64.8186 259.379 59.0349 267.637 37.5416L267.637 37.5416L267.637 37.5416ZM83.9411 158.686C79.7466 150.114 77.1153 144.696 80.6845 135.89C80.0072 138.964 79.434 140.371 80.7106 147.379C80.7106 147.405 83.9411 158.686 83.9411 158.686L83.9411 158.686L83.9411 158.686ZM85.2437 134.587C89.1516 118.2 92.4603 114.449 95.0134 110.489C88.1616 126.276 91.3921 121.379 85.2437 134.587L85.2437 134.587L85.2437 134.587ZM78.7306 125.469C81.7267 113.12 85.2698 108.352 91.1056 103.324C85.7387 109.655 82.9251 116.455 78.7306 125.469L78.7306 125.469L78.7306 125.469ZM119.763 167.804C131.148 180.153 134.483 189.975 136.046 203.626C132.347 190.131 127.605 180.726 119.763 167.804L119.763 167.804L119.763 167.804ZM96.9674 172.363C100.693 173.353 104.054 175.099 107.883 179.762C107.883 179.762 111.296 183.462 117.288 193.752C118.617 196.071 119.763 197.764 119.763 197.764C116.403 194.325 106.477 180.908 106.529 180.908C101.839 175.307 100.354 174.031 96.9674 172.363L96.9674 172.363L96.9674 172.363ZM93.7108 189.949C100.797 196.644 100.12 199.849 106.086 208.837C99.5726 202.272 99.4944 197.999 93.7108 189.949L93.7108 189.949L93.7108 189.949ZM94.3621 151.521C99.286 154.048 102.282 156.706 104.028 159.155C104.028 159.155 105.226 160.718 106.346 162.307C110.332 168.508 111.14 170.383 113.25 176.922C111.348 173.353 110.332 171.373 105.018 163.219C103.897 161.682 102.751 160.171 102.751 160.171C99.5986 155.794 96.7329 153.345 94.3621 151.521L94.3621 151.521L94.3621 151.521ZM139.303 161.942C141.048 170.982 140.371 173.457 138.651 178.876C139.667 172.494 139.589 173.275 139.303 161.942L139.303 161.942L139.303 161.942ZM138 146.311C140.605 148.134 143.601 150.688 145.503 156.471C145.503 156.471 148.994 164.86 146.467 177.001C146.649 173.145 146.076 154.96 138 146.311L138 146.311L138 146.311ZM86.5464 189.297C76.4641 185.885 69.5862 179.528 63.0991 171.061C71.6704 178.798 77.1935 183.67 86.5464 189.297L86.5464 189.297L86.5464 189.297ZM87.849 180.83C70.8888 171.425 56.3255 159.858 52.0268 140.449C54.4757 146.285 57.4978 151.469 63.1512 157.722C63.1512 157.722 70.1854 165.902 87.849 180.83L87.849 180.83L87.849 180.83ZM55.9347 116.35C63.7765 128.673 67.8146 138.703 67.6583 156.732C65.3397 143.732 61.1452 129.246 55.9347 116.35L55.9347 116.35L55.9347 116.35ZM53.9808 134.587C43.9245 121.118 36.213 106.685 35.744 89.6466C39.0006 104.054 44.6019 113.224 53.9808 134.587L53.9808 134.587L53.9808 134.587ZM46.8163 70.1072C53.121 87.0674 56.3255 89.8029 55.9347 103.324C53.9547 88.5003 49.7602 86.5464 46.8163 70.1072L46.8163 70.1072L46.8163 70.1072ZM43.5597 87.0413C33.6859 65.548 28.0325 57.6281 24.6717 37.5416C33.8161 61.3797 38.6358 65.991 43.5597 87.0413L43.5597 87.0413L43.5597 87.0413Z" id="SvgjsPath3506" fill="#1B141C" fill-rule="evenodd" stroke="none" />
                                  <path d="M278.449 5.62735C270.451 10.1865 264.641 13.3128 259.795 16.6996C230.278 36.3693 227.282 82.404 222.176 125.781C206.674 98.4523 209.071 93.789 188.672 89.6466C163.636 84.1756 155.299 81.7788 146.154 93.8671C139.068 86.6766 136.489 82.8469 119.372 86.5724C88.8911 92.5905 87.38 91.809 78.2877 111.322C77.6364 112.859 70.9148 124.322 70.1333 125.807C68.6483 115.439 70.2636 115.1 66.017 92.2519C61.536 68.6223 59.6341 49.9947 47.9365 31.5235C36.6298 15.8139 12.0362 4.03815 0 0C0 19.826 1.90182 49.4476 2.26657 53.2513C6.82574 99.781 24.9843 172.415 57.3936 202.923C84.4882 227.386 114.657 225.719 146.259 225.719C162.541 225.719 193.309 226.839 212.041 217.747C237.494 207.899 255.132 180.101 265.188 154.726C282.695 111.922 292.309 69.0912 292.309 0C283.06 3.49103 281.263 3.88181 278.449 5.62735L278.449 5.62735L278.449 5.62735ZM241.871 188.75C229.47 207.638 201.516 220.039 189.871 220.717C185.832 221.16 166.71 224.546 122.499 222.671C114.891 222.618 93.0595 220.378 81.7267 214.438C37.6198 196.019 17.377 121.769 8.33679 74.5622C5.6534 61.9268 2.26657 28.8922 0.729492 1.01605C18.0283 8.57129 39.0006 21.7539 48.5879 38.7661C56.8986 54.6842 58.8526 73.442 63.3857 92.9813C69.1433 118.304 66.2775 110.489 69.508 126.98C69.6123 127.397 69.6904 127.814 69.7946 128.204C93.8411 90.7929 81.8569 96.4723 119.815 88.6566C131.565 85.7908 138.052 85.2177 146.154 94.9092C156.237 82.9772 162.515 86.3901 188.203 91.7829C208.55 96.29 203.652 99.3642 220.326 124.739C220.977 125.729 222.306 127.84 222.514 128.23C223.999 122.29 224.729 112.677 226.422 103.559C226.917 100.953 235.358 60.8586 238.38 51.8184C246.326 26.7298 258.831 20.0604 279.204 6.98206C281.888 5.0802 284.311 4.32468 291.605 0.98996C287.854 61.8747 277.85 138.729 241.871 188.75L241.871 188.75L241.871 188.75ZM172.233 111.374C159.493 111.166 157.07 112.416 124.635 111.296C114.787 111.453 104.965 111.609 98.6087 117.809C91.0013 124.765 87.0414 145.295 113.641 154.361C122.212 157.07 134.848 160.978 136.932 161.864C136.932 153.423 122.03 135.108 119.659 132.425C143.601 138.417 165.095 135.03 173.301 131.721C169.654 135.681 155.377 153.605 155.377 161.864C178.173 154.257 191.199 152.355 197.035 140.683C202.558 130.653 199.666 110.932 172.233 111.374L172.233 111.374L172.233 111.374ZM156.549 160.431C156.862 158.634 157.826 156.002 158.217 155.299C160.978 149.437 173.692 132.112 175.177 130.836C158.321 135.864 138.495 136.437 117.731 131.539C122.681 137.453 134.379 152.746 135.759 160.431C117.366 152.433 93.2679 148.812 95.7689 129.064C97.0976 114.631 113.667 113.98 124.583 113.276C168.299 112.443 194.69 110.254 196.566 129.064C198.937 148.76 175.281 152.459 156.549 160.431L156.549 160.431L156.549 160.431Z" id="SvgjsPath3507" fill="#000000" fill-rule="evenodd" stroke="none" />
                                </g>
                              </g>
                            </g>
                            <g id="svga-group-mustache-single-move" transform="translate(116.1254 356.9784)">
                              <g id="svga-group-mustache-single">
                                <path d="M121.196 44.6019C110.775 42.1269 87.354 29.257 74.8748 29.257C71.0712 29.257 66.6422 29.9864 60.5199 31.5756C42.2832 27.5896 47.5979 27.8762 26.0004 34.3372C17.7418 36.8121 13.2086 40.8243 0.521057 44.2632C2.7355 39.4956 2.37076 29.1006 15.5273 9.24863C15.6055 9.11835 15.6836 8.96204 15.7878 8.80573C29.7259 22.4312 42.2051 4.50708 48.5618 0.338654C51.2974 2.37076 56.7684 10.0563 61.7965 9.17047C67.007 9.17047 71.1233 4.55917 74.0933 0.312622C77.6104 2.47498 84.0453 14.8239 91.2619 14.8239C95.8211 14.8239 100.172 11.2026 103.819 7.73758C108.3 12.5052 118.461 30.768 121.196 44.6019L121.196 44.6019L121.196 44.6019Z" id="SvgjsPath3522" fill="#2A232B" fill-rule="evenodd" stroke="none" />
                                <path d="M103.793 7.39893C103.454 7.73758 102.751 8.36285 102.23 8.85782C97.28 12.896 94.6227 15.1625 89.5424 14.4852C83.3159 12.7657 76.933 1.48499 73.9891 0C71.6183 3.38684 67.3457 8.936 61.7183 8.936C56.7423 9.79575 51.1411 1.8497 48.5358 0.0520935C46.165 1.40683 35.5356 13.391 27.4854 13.6254C24.2549 13.7296 19.5393 12.2968 15.6836 8.38889L15.6836 8.41495C15.5533 8.67548 15.4231 8.90997 15.2928 9.11835C1.56314 29.804 2.5271 40.1469 0 44.68C13.1826 41.189 17.6896 37.0987 26.0525 34.5977C48.4055 27.9283 41.9966 28.0325 60.572 31.8361C78.6524 27.0946 80.9711 30.4293 95.0655 34.5977C102.386 36.7861 111.114 42.5698 121.535 44.9405C118.773 30.4033 108.04 11.6455 103.793 7.39893L103.793 7.39893L103.793 7.39893ZM95.8731 31.9143C77.402 26.4432 78.3398 24.5414 60.5199 31.3411C42.8824 24.4893 43.6119 26.4693 25.2188 31.9143C16.908 34.3632 9.84781 39.2611 2.24051 42.3874C7.91995 31.8622 4.58524 29.0224 16.0744 10.1344C16.1004 10.1865 16.1525 10.2126 16.1786 10.2647C29.6477 21.9362 38.6098 9.53522 45.8524 3.20447C46.3474 2.76157 48.119 1.01605 48.3534 0.729492C54.8405 8.07632 59.1913 12.9481 67.007 8.85785C70.2115 6.92999 72.7125 4.35077 74.2756 1.06818C79.1735 6.69553 82.9772 16.0223 91.1837 16.4131C94.6487 15.9441 97.4884 15.8399 103.767 8.36288C109.525 18.341 117.288 32.4093 120.284 43.195C104.939 36.3953 101.813 33.6598 95.8731 31.9143L95.8731 31.9143L95.8731 31.9143Z" id="SvgjsPath3523" fill="#1B141C" fill-rule="evenodd" stroke="none" />
                              </g>
                            </g>
                            <g id="svga-group-hair-front" transform="translate(0.17442322 0)">
                              <path d="M314.531 304.102C302.643 271.706 316.399 222.021 293.155 185.264C282.567 167.647 273.363 155.541 275.048 135.045L274.09 134.722C271.844 138.244 268.895 142.069 266.938 144.518C268.051 141.675 269.864 137.322 271.505 134.037L270.64 133.469C263.906 141.475 258.122 145.581 250.166 147.798C258.763 141.754 268.269 131.236 272.43 125.406L271.724 124.666C242.235 143.64 208.771 143.898 179.248 144.13C152.604 144.328 136.056 143.726 116.845 132.56C102.982 137.155 92.0661 136.569 80.0689 128.3C42.5169 201.109 59.2009 164.662 36.7515 299.632C23.7148 282.255 19.9268 271.203 16.8422 254.647C16.0267 249.366 15.2295 241.219 15.7245 235.85L15.5604 235.681C3.96182 210.227 -1.5118 195.734 1.24457 145.247C3.28967 124.301 7.84364 108.576 20.9767 92.1054C19.2442 83.1563 19.0775 74.1343 20.2551 65.5058C13.3772 52.9302 8.64346 39.9874 6.79893 35.363C16.4071 42.7177 17.2017 43.1423 25.2181 45.672C27.0522 40.6256 29.7251 35.6131 31.4368 32.9975C32.2105 38.828 32.8254 42.7672 34.5709 48.4336C35.1649 48.5769 37.9916 49.3428 38.8956 49.5851C38.3772 46.1357 37.903 44.5361 37.976 41.4437C39.4636 44.8357 40.7193 45.6225 45.0362 50.8903C49.8142 51.8933 48.6679 51.7448 50.1008 51.7448C43.1474 40.8471 38.4553 31.2025 37.2647 16.5349C46.7817 21.9564 60.0971 25.0541 74.0013 25.0541C106.669 25.0541 140.094 0.533482 186.467 0.533482C226.653 0.533482 261.423 22.8292 276.825 48.2173C276.809 41.6677 276.531 36.2488 278.894 29.5169C278.894 29.5169 279.167 39.1693 279.167 46.6907L280.199 46.787C281.814 38.1871 285.222 30.856 290.849 23.9312C285.852 37.3691 287.754 30.1942 282.163 46.6021L283.07 47.0893C286.798 42.2982 289.851 38.9114 298.751 34.4225C292.321 40.8653 287.405 44.557 284.365 49.1135L285.149 49.7883C288.942 46.3494 292.889 45.0467 296.904 48.1913C290.44 45.8413 286.623 49.9602 282.189 55.1603C299.433 58.0026 308.789 67.9521 320.914 81.2519C348.821 113.432 356.171 144.849 341.034 189.385C347.378 203.097 346.401 234 332.241 258.909C332.236 273.524 322.237 291.558 314.531 304.102L314.531 304.102L314.531 304.102Z" id="SvgjsPath3498" fill="#2A232B" fill-rule="evenodd" stroke="none" />
                              <path d="M78.2765 126.338C79.2118 127.209 80.147 128.079 81.0745 128.954C80.7384 128.733 80.4024 128.527 80.0637 128.295C42.5116 201.104 59.1956 164.656 36.7462 299.626C23.7095 282.249 19.9215 271.198 16.8369 254.642C16.0215 249.361 15.2243 241.214 15.7193 235.845L15.5551 235.675C3.95656 210.222 -1.51706 195.729 1.2393 145.242C3.28441 124.296 7.83838 108.571 20.9715 92.1002C19.2676 83.2997 19.0957 74.4314 20.2081 65.9331C21.7635 68.21 23.3943 70.4271 25.0617 72.6155C26.1845 79.4517 27.1355 86.1185 25.3925 91.5036C0.541077 168.301 14.9715 203.529 30.603 258.239C24.1837 216.735 11.9964 163.969 45.2419 133.188C31.0407 167.306 34.9616 182.776 38.4188 206.135C40.8078 175.085 51.953 146.203 78.2765 126.338L78.2765 126.338L78.2765 126.338ZM320.911 81.2389C319.931 80.1655 318.978 79.1234 318.03 78.0943C317.034 78.7587 316.013 79.3683 315.01 80.0144C353.974 159.894 316.558 152.224 325.475 187.895C335.894 213.948 322.391 229.582 322.391 255.634C322.391 216.555 320.617 189.359 299.048 158.784C291.764 148.459 289.718 113.393 284.81 96.0654C224.363 133.188 134.818 140.954 40.8052 65.9278C85.0944 81.5593 175.364 69.4449 206.35 49.4731C171.029 55.8846 97.2896 56.2676 64.13 42.6187C143.59 36.4442 142.629 10.9389 210.365 6.14522C177.8 -6.01347 106.666 25.0437 74.0013 25.0437C60.0997 25.0437 46.7842 21.9486 37.2646 16.5245C38.4553 31.1921 43.1473 40.8393 50.1007 51.7345C48.6652 51.7345 49.8141 51.8829 45.0361 50.8799C40.7166 45.6121 39.4609 44.8227 37.9759 41.4333C37.9003 44.5257 38.3771 46.1254 38.8955 49.5747C37.9915 49.3324 35.1622 48.5665 34.5708 48.4232C32.8253 42.7568 32.2105 38.8176 31.4367 32.9871C29.7277 35.6027 27.0521 40.6152 25.218 45.6616C17.199 43.1319 16.407 42.7073 6.79887 35.3526C8.6434 39.977 13.3771 52.9224 20.255 65.4954C20.2368 65.6387 20.2315 65.7845 20.2133 65.9278C36.6394 89.9873 59.7323 108.839 81.0797 128.954C92.6835 136.572 103.375 137.02 116.847 132.554C136.058 143.721 152.609 144.322 179.251 144.124C208.773 143.895 242.238 143.635 271.727 124.661L272.433 125.4C268.272 131.231 258.765 141.748 250.168 147.793C258.127 145.573 263.908 141.467 270.643 133.464L271.508 134.032C269.866 137.319 268.053 141.67 266.941 144.513C268.897 142.064 271.846 138.239 274.092 134.717L275.051 135.04C273.368 155.538 282.57 167.642 293.157 185.259C316.401 222.016 302.648 271.703 314.533 304.097C322.24 291.553 332.239 273.522 332.239 258.891C346.398 233.982 347.375 203.079 341.031 189.367C356.168 144.836 348.818 113.419 320.911 81.2389L320.911 81.2389L320.911 81.2389ZM322.821 148.061C321.961 123.249 305.54 91.7563 305.54 91.7563C297.865 78.1986 291.005 71.7297 279.498 69.1037C311.871 70.7163 324.584 119.07 323.185 144.33C323.053 146.675 322.821 148.061 322.821 148.061L322.821 148.061L322.821 148.061ZM249.202 43.2882C257.755 50.226 259.797 52.206 268.21 63.8931C224.824 -13.9751 139.685 44.953 112.762 43.0512C140.13 48.7071 202.01 8.68273 249.202 43.2882L249.202 43.2882L249.202 43.2882ZM271.247 77.1356C219.244 120.247 139.839 101.984 74.8923 81.6297C139.573 111.254 221.919 127.284 271.247 77.1356L271.247 77.1356L271.247 77.1356ZM66.7352 124.03C49.6995 132.953 41.6831 155.423 40.9433 170.273C44.1243 157.458 53.6699 133.946 66.7352 124.03L66.7352 124.03L66.7352 124.03ZM45.2419 111.655C20.8594 126.502 16.1309 160.558 18.5381 189.161C21.1017 162.739 25.8641 128.264 45.2419 111.655L45.2419 111.655L45.2419 111.655ZM220.953 79.3631C218.332 79.9232 202.041 82.1559 193.15 82.4764C186.217 82.8802 159.185 83.3309 134.816 82.3513C159.969 87.7416 175.077 88.7446 193.423 87.6791C214.541 86.9157 233.44 82.7343 249.1 69.9738C238.067 76.0466 233.364 76.9116 220.953 79.3631L220.953 79.3631L220.953 79.3631ZM308.346 148.519C308.346 148.519 307.679 147.371 306.814 145.648C304.441 141.67 301.747 130.848 291.344 96.8365C299.071 159.87 311.709 148.374 317.373 180.942C317.376 169.229 316.558 163.223 308.346 148.519L308.346 148.519L308.346 148.519Z" id="SvgjsPath3499" fill="#1B141C" fill-rule="evenodd" stroke="none" />
                              <path d="M327.218 224.713C328.167 216.256 327.784 220.132 327.888 215.308C328.685 199.04 318.962 185.402 324.881 165.842C329.712 151.635 332.502 149.408 330.386 124.676C330.076 121.107 329.151 112.239 327.515 109.05C329.745 112.929 331.22 120.109 332.009 124.509C336.404 149.371 332.708 153.146 328.047 166.889C321.82 187.653 333.771 196.813 327.218 224.713L327.218 224.713L327.218 224.713ZM284.81 96.0654C287.72 175.187 303.766 156.809 317.941 204.84C308.317 148.186 299.415 195.156 284.81 96.0654L284.81 96.0654L284.81 96.0654ZM41.9854 136.405C18.0431 166.53 20.4608 188.247 26.3539 232.799C25.8224 187.702 20.3253 170.586 41.9854 136.405L41.9854 136.405L41.9854 136.405ZM24.7986 93.3637C11.0585 135.879 8.04939 155.066 14.6459 200.921C13.424 154.949 13.7158 144.802 24.7986 93.3637L24.7986 93.3637L24.7986 93.3637ZM77.3725 127.042C52.2839 145.067 39.1873 178.042 38.4188 206.134C42.2798 179.287 56.6868 145.424 77.3725 127.042L77.3725 127.042L77.3725 127.042ZM251.671 111.288C220.275 122.847 169.171 125.942 131.861 114.732C102.784 106.252 57.3824 77.7557 32.9608 59.8368C55.1002 77.4613 94.1086 103.623 121.346 113.963C149.647 124.538 193.999 128.467 228.373 119.812C252.466 113.758 264.953 108.036 284.81 96.068C275.971 100.914 262.95 107.766 251.671 111.288L251.671 111.288L251.671 111.288ZM183.826 17.0091C215.524 11.0561 252.888 31.4891 272.552 55.6449C251.979 26.1587 218.267 11.4886 198.141 11.1395C165.109 10.5663 130.939 38.8671 64.13 41.3135C126.95 44.0802 157.148 21.3286 183.826 17.0091L183.826 17.0091L183.826 17.0091ZM208.721 50.4318C163.679 66.4359 128.896 70.2656 81.5669 72.7849C130.449 75.7939 165.396 71.0524 208.721 50.4318L208.721 50.4318L208.721 50.4318ZM256.051 59.558C228.274 72.6546 216.112 74.8013 158.779 78.2924C194.723 79.7435 228.302 77.8755 256.051 59.558L256.051 59.558L256.051 59.558ZM164.117 99.3792C191.847 102.602 240.422 99.1057 264.734 73.8791C235.373 98.6133 181.056 97.7275 138.692 96.0445C154.907 98.5742 151.982 98.1522 164.117 99.3792L164.117 99.3792L164.117 99.3792ZM282.971 75.1817C302.846 82.4998 307.692 117.368 315.536 145.523C312.027 120.568 306.033 80.5954 282.971 75.1817L282.971 75.1817L282.971 75.1817Z" id="SvgjsPath3500" fill="#3A353A" fill-rule="evenodd" stroke="none" />
                              <path d="M321.294 80.8872C309.966 68.4628 299.796 57.5181 283.179 54.7826C288.635 48.3659 292.47 45.9795 299.462 49.9629C295.32 45.0885 290.56 44.1636 284.794 49.3897C288.106 44.4267 293.829 40.3756 301.208 32.638C290.185 37.8094 286.871 41.3395 282.658 46.7584C288.611 29.2954 286.045 38.6092 292.35 21.3573C285.761 28.7457 281.548 36.7803 279.691 46.6803C279.691 31.3015 279.209 33.2893 279.508 26.5678C275.895 34.6154 276.307 41.7043 276.307 46.3416C270.489 36.7491 261.941 28.6259 252.727 21.9825C187.455 -25.6649 122.362 18.1893 87.0848 23.4936C72.7846 25.9086 51.3564 24.3741 36.6732 15.5736C37.7101 30.5903 42.3605 40.5632 49.1524 51.2134C49.1498 51.2134 45.3227 50.4058 45.3227 50.4058C40.0627 44.0646 39.5547 44.2678 37.6111 39.1251C37.1135 43.7181 37.8743 46.2634 38.2625 48.8687C36.965 48.53 35.7692 48.1705 34.9799 47.9829C33.0441 41.6938 32.484 36.9106 31.7754 31.5959C30.1758 33.641 26.7681 39.8806 24.8975 45.0129C17.0844 42.5431 16.5243 42.1497 5.54054 33.7322C6.84315 36.3374 11.556 50.5647 19.7131 65.5944C18.4886 74.8013 18.8586 83.9874 20.4165 91.9595C7.32513 108.404 2.77898 124.124 0.720825 145.211C-1.99124 194.864 2.97957 209.329 15.1278 235.925C15.1539 235.952 15.1539 236.004 15.18 236.03C14.7188 241.165 15.49 249.322 16.3262 254.735C19.3979 271.232 23.165 282.593 36.9338 300.718C36.9859 300.77 37.0119 300.848 37.064 300.9C45.9089 247.837 44.997 246.537 46.8858 233.451C56.1918 166.464 55.788 176.469 80.259 129.058C90.1929 135.905 101.192 138.312 116.785 133.122C128.097 139.698 139.648 144.716 171.651 144.716C203.36 144.32 239.846 145.789 272.005 125.098C267.134 131.929 256.066 143.736 247.36 149.014C256.423 147.097 262.926 143.447 271.041 133.8C268.548 138.789 265.615 146.341 265.388 147.243C265.779 146.774 270.989 140.547 274.532 134.998C272.831 155.697 282.072 167.816 292.717 185.54C316.05 222.438 301.864 272.871 314.419 305.277C322.469 292.261 332.76 273.79 332.76 259.034C346.333 235.363 348.277 204.035 341.591 189.344C355.183 148.621 352.437 116.795 321.294 80.8872L321.294 80.8872L321.294 80.8872ZM37.8691 40.7924C39.1404 44.4111 39.4192 44.3329 44.3562 50.1974C41.9072 49.6893 40.279 49.3324 38.807 48.9989C38.2364 46.2478 37.8691 43.6321 37.8691 40.7924L37.8691 40.7924L37.8691 40.7924ZM31.3299 33.8624C31.5748 37.8537 32.5257 43.0902 33.9091 47.6963C26.4451 45.7762 29.2197 46.3833 26.6144 45.6121C28.7585 39.1667 29.5661 37.5359 31.3299 33.8624L31.3299 33.8624L31.3299 33.8624ZM35.8109 294.96C24.8272 275.148 21.9432 268.41 18.9029 248.353C18.6059 246.044 17.6732 239.375 17.6263 236.186C1.81244 200.025 -4.13274 131.361 20.7786 93.5747C20.7786 93.5487 20.7786 93.5487 20.7786 93.5487C20.7786 93.5487 21.8181 91.923 23.6965 89.5887C23.0009 86.0873 22.3131 78.6988 22.5502 70.6225C24.4781 74.0614 26.6665 77.1877 28.6204 80.1838C28.6204 80.176 30.1575 82.2185 30.1575 82.268C42.014 97.3524 52.9639 109.894 79.4488 128.511C47.6518 180.027 49.6239 162.627 35.8109 294.96L35.8109 294.96L35.8109 294.96ZM342.292 172.803C341.365 178.946 339.367 187.348 338.283 191.014C345.525 209.428 337.613 244.205 330.308 259.74C327.114 278.219 323.678 281.939 314.651 300.356C308.197 271.698 321.38 220.846 297.039 182.911C281.254 156.744 274.486 153.316 278.203 120.985C278.203 120.985 278.362 119.226 278.412 118.77C245.513 138.885 209.175 141.16 161.254 140.133C147.402 140.133 128.688 138.393 117.017 131.171C93.3583 137.9 84.5812 127.427 64.8856 112.049C43.6189 93.9759 29.1702 78.1959 11.3477 41.0034C21.3597 49.1266 41.4044 53.2194 54.0477 55.3323C45.5207 43.9656 40.503 33.5811 38.2339 18.8588C47.3001 24.903 69.0279 30.8508 88.1765 28.7327C123.436 25.4214 172.805 -10.7811 233.471 16.6704C261.618 29.0896 275.9 46.5682 279.245 55.7491C279.271 55.7491 279.298 55.7752 279.35 55.7752C279.506 55.8273 279.662 55.8533 279.842 55.8794C279.886 55.9263 280.707 56.1139 280.78 56.1139C298.954 62.1711 300.171 63.3017 317.774 83.8337C327.669 95.9716 351.486 120.203 342.292 172.803L342.292 172.803L342.292 172.803Z" id="SvgjsPath3501" fill="#000000" fill-rule="evenodd" stroke="none" />
                            </g>
                          </g>
                        </g>
                      </g>
                    </g>
                  </g>
                </g>
              </g>
            </g>
          </g>
        </g>
      </g>
    </g>
  </g>
</svg>