<svg id="visual" viewBox="0 0 960 540" width="960" height="540" xmlns="http://www.w3.org/2000/svg" xmlns:xlink="http://www.w3.org/1999/xlink" version="1.1"><rect x="0" y="0" width="960" height="540" fill="#1E2454"></rect><path d="M0 419L22.8 416.8C45.7 414.7 91.3 410.3 137 411.5C182.7 412.7 228.3 419.3 274 418.2C319.7 417 365.3 408 411.2 403.5C457 399 503 399 548.8 393.3C594.7 387.7 640.3 376.3 686 378.5C731.7 380.7 777.3 396.3 823 405.7C868.7 415 914.3 418 937.2 419.5L960 421L960 541L937.2 541C914.3 541 868.7 541 823 541C777.3 541 731.7 541 686 541C640.3 541 594.7 541 548.8 541C503 541 457 541 411.2 541C365.3 541 319.7 541 274 541C228.3 541 182.7 541 137 541C91.3 541 45.7 541 22.8 541L0 541Z" fill="#ef5b50"></path><path d="M0 403L22.8 407.2C45.7 411.3 91.3 419.7 137 424.2C182.7 428.7 228.3 429.3 274 430.3C319.7 431.3 365.3 432.7 411.2 435.2C457 437.7 503 441.3 548.8 437.5C594.7 433.7 640.3 422.3 686 417C731.7 411.7 777.3 412.3 823 415.2C868.7 418 914.3 423 937.2 425.5L960 428L960 541L937.2 541C914.3 541 868.7 541 823 541C777.3 541 731.7 541 686 541C640.3 541 594.7 541 548.8 541C503 541 457 541 411.2 541C365.3 541 319.7 541 274 541C228.3 541 182.7 541 137 541C91.3 541 45.7 541 22.8 541L0 541Z" fill="#f56046"></path><path d="M0 446L22.8 449.3C45.7 452.7 91.3 459.3 137 458.5C182.7 457.7 228.3 449.3 274 446.2C319.7 443 365.3 445 411.2 449.7C457 454.3 503 461.7 548.8 466.3C594.7 471 640.3 473 686 466C731.7 459 777.3 443 823 442.2C868.7 441.3 914.3 455.7 937.2 462.8L960 470L960 541L937.2 541C914.3 541 868.7 541 823 541C777.3 541 731.7 541 686 541C640.3 541 594.7 541 548.8 541C503 541 457 541 411.2 541C365.3 541 319.7 541 274 541C228.3 541 182.7 541 137 541C91.3 541 45.7 541 22.8 541L0 541Z" fill="#fa673b"></path><path d="M0 454L22.8 455.3C45.7 456.7 91.3 459.3 137 461.5C182.7 463.7 228.3 465.3 274 468.2C319.7 471 365.3 475 411.2 476C457 477 503 475 548.8 475.7C594.7 476.3 640.3 479.7 686 481.8C731.7 484 777.3 485 823 487.3C868.7 489.7 914.3 493.3 937.2 495.2L960 497L960 541L937.2 541C914.3 541 868.7 541 823 541C777.3 541 731.7 541 686 541C640.3 541 594.7 541 548.8 541C503 541 457 541 411.2 541C365.3 541 319.7 541 274 541C228.3 541 182.7 541 137 541C91.3 541 45.7 541 22.8 541L0 541Z" fill="#fd6f2e"></path><path d="M0 517L22.8 515C45.7 513 91.3 509 137 506.2C182.7 503.3 228.3 501.7 274 498.5C319.7 495.3 365.3 490.7 411.2 492.2C457 493.7 503 501.3 548.8 504.7C594.7 508 640.3 507 686 503C731.7 499 777.3 492 823 493.8C868.7 495.7 914.3 506.3 937.2 511.7L960 517L960 541L937.2 541C914.3 541 868.7 541 823 541C777.3 541 731.7 541 686 541C640.3 541 594.7 541 548.8 541C503 541 457 541 411.2 541C365.3 541 319.7 541 274 541C228.3 541 182.7 541 137 541C91.3 541 45.7 541 22.8 541L0 541Z" fill="#ff781d"></path></svg>