<svg xmlns="http://www.w3.org/2000/svg" xmlns:xlink="http://www.w3.org/1999/xlink" width="500" zoomAndPan="magnify" viewBox="0 0 375 374.999991" height="500" preserveAspectRatio="xMidYMid meet" version="1.0"><defs><g/><clipPath id="b885bd3bc6"><path d="M 92.21875 163.324219 L 140.433594 163.324219 L 140.433594 211.636719 L 92.21875 211.636719 Z M 92.21875 163.324219 " clip-rule="nonzero"/></clipPath><clipPath id="1e0e9832e4"><path d="M 116.296875 211.578125 C 109.867188 211.578125 103.816406 209.078125 99.273438 204.523438 C 94.722656 199.980469 92.21875 193.929688 92.21875 187.5 C 92.21875 181.070312 94.722656 175.019531 99.273438 170.476562 C 103.816406 165.921875 109.867188 163.421875 116.296875 163.421875 C 122.726562 163.421875 128.78125 165.921875 133.320312 170.476562 C 137.875 175.027344 140.375 181.070312 140.375 187.5 C 140.375 193.929688 137.875 199.980469 133.320312 204.523438 C 128.78125 209.078125 122.726562 211.578125 116.296875 211.578125 Z M 116.296875 164.863281 C 110.253906 164.863281 104.566406 167.222656 100.292969 171.496094 C 96.019531 175.769531 93.664062 181.457031 93.664062 187.5 C 93.664062 193.542969 96.019531 199.230469 100.292969 203.503906 C 104.566406 207.777344 110.253906 210.136719 116.296875 210.136719 C 122.339844 210.136719 128.027344 207.777344 132.300781 203.503906 C 136.574219 199.230469 138.933594 193.542969 138.933594 187.5 C 138.933594 181.457031 136.574219 175.769531 132.300781 171.496094 C 128.027344 167.222656 122.339844 164.863281 116.296875 164.863281 Z M 116.296875 164.863281 " clip-rule="nonzero"/></clipPath><clipPath id="2bec6f8de2"><path d="M 95.183594 166.382812 L 137.414062 166.382812 L 137.414062 208.617188 L 95.183594 208.617188 Z M 95.183594 166.382812 " clip-rule="nonzero"/></clipPath><clipPath id="f1aa11d56a"><path d="M 116.296875 166.382812 C 104.636719 166.382812 95.183594 175.839844 95.183594 187.5 C 95.183594 199.160156 104.636719 208.617188 116.296875 208.617188 C 127.960938 208.617188 137.414062 199.160156 137.414062 187.5 C 137.414062 175.839844 127.960938 166.382812 116.296875 166.382812 " clip-rule="nonzero"/></clipPath></defs><rect x="-37.5" width="450" fill="#ffffff" y="-37.499999" height="449.999989" fill-opacity="1"/><rect x="-37.5" width="450" fill="#ffffff" y="-37.499999" height="449.999989" fill-opacity="1"/><rect x="-37.5" width="450" fill="#ffffff" y="-37.499999" height="449.999989" fill-opacity="1"/><g clip-path="url(#b885bd3bc6)"><g clip-path="url(#1e0e9832e4)"><path fill="#246a45" d="M 92.21875 163.421875 L 140.335938 163.421875 L 140.335938 211.539062 L 92.21875 211.539062 Z M 92.21875 163.421875 " fill-opacity="1" fill-rule="nonzero"/></g></g><g clip-path="url(#2bec6f8de2)"><g clip-path="url(#f1aa11d56a)"><path fill="#246a45" d="M 95.183594 166.382812 L 137.414062 166.382812 L 137.414062 208.617188 L 95.183594 208.617188 Z M 95.183594 166.382812 " fill-opacity="1" fill-rule="nonzero"/></g></g><g fill="#246a45" fill-opacity="1"><g transform="translate(146.96705, 196.01237)"><g><path d="M 10.328125 0 L 6.15625 0 L -0.015625 -15.890625 L 4.296875 -15.890625 L 8.359375 -4.203125 L 12.421875 -15.890625 L 16.578125 -15.890625 Z M 10.328125 0 "/></g></g></g><g fill="#246a45" fill-opacity="1"><g transform="translate(165.377195, 196.01237)"><g><path d="M 5.625 0 L 1.59375 0 L 1.59375 -15.890625 L 5.625 -15.890625 Z M 5.625 0 "/></g></g></g><g fill="#246a45" fill-opacity="1"><g transform="translate(174.45798, 196.01237)"><g><path d="M 11.9375 0 L 7.734375 -6.25 L 5.625 -3.90625 L 5.625 0 L 1.59375 0 L 1.59375 -15.890625 L 5.625 -15.890625 L 5.625 -9.015625 L 11.71875 -15.890625 L 16.390625 -15.890625 L 10.484375 -9.3125 L 16.78125 0 Z M 11.9375 0 "/></g></g></g><g fill="#246a45" fill-opacity="1"><g transform="translate(193.276715, 196.01237)"><g><path d="M 11.171875 0 L 8.8125 -4.46875 L 5.625 -4.46875 L 5.625 0 L 1.59375 0 L 1.59375 -15.890625 L 8.703125 -15.890625 C 10.796875 -15.890625 12.414062 -15.410156 13.5625 -14.453125 C 14.71875 -13.492188 15.296875 -12.128906 15.296875 -10.359375 C 15.296875 -7.898438 14.335938 -6.195312 12.421875 -5.25 L 15.75 0 Z M 5.625 -7.65625 L 8.703125 -7.65625 C 9.578125 -7.65625 10.253906 -7.875 10.734375 -8.3125 C 11.222656 -8.75 11.46875 -9.382812 11.46875 -10.21875 C 11.46875 -11.03125 11.222656 -11.648438 10.734375 -12.078125 C 10.253906 -12.503906 9.578125 -12.71875 8.703125 -12.71875 L 5.625 -12.71875 Z M 5.625 -7.65625 "/></g></g></g><g fill="#246a45" fill-opacity="1"><g transform="translate(211.573367, 196.01237)"><g><path d="M 12.140625 -2.921875 L 5.203125 -2.921875 L 4.046875 0 L -0.109375 0 L 6.75 -15.890625 L 10.890625 -15.890625 L 17.59375 0 L 13.28125 0 Z M 10.96875 -6 L 8.703125 -11.875 L 6.375 -6 Z M 10.96875 -6 "/></g></g></g><g fill="#246a45" fill-opacity="1"><g transform="translate(230.914178, 196.01237)"><g><path d="M 19.046875 0 L 15.484375 0 L 15.453125 -10.328125 L 11.640625 -1.59375 L 9.015625 -1.59375 L 5.203125 -10.328125 L 5.203125 0 L 1.59375 0 L 1.59375 -15.921875 L 6.015625 -15.921875 L 10.328125 -6.453125 L 14.640625 -15.921875 L 19.046875 -15.921875 Z M 19.046875 0 "/></g></g></g><g fill="#ffffff" fill-opacity="1"><g transform="translate(106.249342, 196.569436)"><g><path d="M 12.546875 0 L 7.46875 0 L -0.03125 -19.296875 L 5.203125 -19.296875 L 10.140625 -5.09375 L 15.078125 -19.296875 L 20.125 -19.296875 Z M 12.546875 0 "/></g></g></g></svg>