<?xml version="1.0" encoding="utf-8"?>
<svg width="600px" height="600px" viewBox="0 0 600 600" version="1.1" xmlns:xlink="http://www.w3.org/1999/xlink" xmlns="http://www.w3.org/2000/svg">
  <g id="vlogodark">
    <g id="vlogodark">
      <path d="M50 23.1L550 23.1L550 523.1L50 523.1L50 23.1L50 23.1Z" id="Background" fill="#FFFFFF" fill-opacity="0" fill-rule="evenodd" stroke="none" />
      <path d="M0 0L600 0L600 600L0 600L0 0L0 0Z" id="Rectangle#1" fill="#246A45" fill-rule="evenodd" stroke="none" />
      <path d="M54.8893 198.803L204.239 198.803L204.239 348.152L54.8893 348.152L54.8893 198.803L54.8893 198.803Z" id="Group" fill="#FFFFFF" stroke="none" />
      <path d="M64.0918 207.993L195.169 207.993L195.169 339.083L64.0918 339.083L64.0918 207.993L64.0918 207.993Z" id="Group#1" fill="#FFFFFF" stroke="none" />
      <path d="M256.878 299.959L243.929 299.959L224.772 250.637L238.158 250.637L250.767 286.913L263.376 250.637L276.277 250.637L256.878 299.959L256.878 299.959Z" id="Group#2" fill="#FFFFFF" stroke="none" />
      <path d="M299.422 299.959L286.91 299.959L286.91 250.637L299.422 250.637L299.422 299.959L299.422 299.959Z" id="Group#3" fill="#FFFFFF" stroke="none" />
      <path d="M347.201 299.959L334.155 280.56L327.608 287.835L327.608 299.959L315.096 299.959L315.096 250.637L327.608 250.637L327.608 271.976L346.522 250.637L361.023 250.637L342.691 271.055L362.235 299.959L347.201 299.959L347.201 299.959Z" id="Group#4" fill="#FFFFFF" stroke="none" />
      <path d="M403.236 299.959L395.912 286.089L386.019 286.089L386.019 299.959L373.506 299.959L373.506 250.637L395.573 250.637C402.072 250.637 407.091 252.128 410.656 255.099C414.245 258.081 416.039 262.313 416.039 267.805C416.039 275.444 413.056 280.73 407.115 283.664L417.445 299.959L403.236 299.959L403.236 299.959ZM386.019 276.195L395.573 276.195C398.289 276.195 400.386 275.516 401.878 274.159C403.393 272.801 404.157 270.836 404.157 268.242C404.157 265.72 403.393 263.804 401.878 262.471C400.386 261.149 398.289 260.482 395.573 260.482L386.019 260.482L386.019 276.195L386.019 276.195Z" id="Group#5" fill="#FFFFFF" fill-rule="evenodd" stroke="none" />
      <path d="M463.033 290.89L441.5 290.89L437.911 299.959L425.01 299.959L446.301 250.637L459.153 250.637L479.959 299.959L466.573 299.959L463.033 290.89L463.033 290.89ZM459.395 281.336L452.363 263.101L445.137 281.336L459.395 281.336L459.395 281.336Z" id="Group#6" fill="#FFFFFF" fill-rule="evenodd" stroke="none" />
      <path d="M544.5 299.959L533.443 299.959L533.345 267.902L521.512 295.013L513.364 295.013L501.531 267.902L501.531 299.959L490.328 299.959L490.328 250.54L504.053 250.54L517.438 279.93L530.824 250.54L544.5 250.54L544.5 299.959L544.5 299.959Z" id="Group#7" fill="#FFFFFF" stroke="none" />
      <path d="M137.382 301.689L121.62 301.689L98.3414 241.794L114.588 241.794L129.913 285.878L145.239 241.794L160.904 241.794L137.382 301.689L137.382 301.689Z" id="Group#8" fill="#246A45" stroke="none" />
    </g>
  </g>
</svg>