<svg xmlns="http://www.w3.org/2000/svg" viewBox="0 0 48 48" width="48px" height="48px"><path fill="#FF5722" d="M6,10c0-2.209,1.791-4,4-4h28c2.209,0,4,1.791,4,4v28c0,2.209-1.791,4-4,4H10c-2.209,0-4-1.791-4-4V10z"/><path fill="#1C0802" d="M9,9v30h30V9H9z M23.691,31l-0.762-2.91h-3.916L18.252,31h-3.037l4.443-14.219h2.627L26.758,31H23.691z M30.85,31h-2.773V20.434h2.773V31z M30.552,18.754c-0.271,0.28-0.636,0.42-1.099,0.42s-0.828-0.14-1.099-0.42s-0.405-0.632-0.405-1.055c0-0.43,0.137-0.781,0.41-1.055s0.639-0.41,1.094-0.41s0.82,0.137,1.094,0.41s0.41,0.625,0.41,1.055C30.957,18.122,30.822,18.474,30.552,18.754z"/><path fill="#1C0802" d="M19.639 25.697L22.295 25.697 20.967 20.629z"/></svg>

<svg width="256px" height="256px" viewBox="0 0 256 256" version="1.1" xmlns="http://www.w3.org/2000/svg" xmlns:xlink="http://www.w3.org/1999/xlink" preserveAspectRatio="xMidYMid">
    <g>
        <path d="M0,222.991225 C0,241.223474 14.7785318,256 33.0087747,256 L222.991225,256 C241.223474,256 256,241.221468 256,222.991225 L256,33.0087747 C256,14.7765263 241.221468,0 222.991225,0 L33.0087747,0 C14.7765263,0 0,14.7785318 0,33.0087747 L0,222.991225 Z" fill="#563D7C"></path>
        <path d="M106.157563,113.238095 L106.157563,76.9845938 L138.069328,76.9845938 C141.108559,76.9845938 144.039202,77.2378593 146.861345,77.7443978 C149.683488,78.2509362 152.179961,79.1554557 154.35084,80.4579832 C156.52172,81.7605107 158.258397,83.5695496 159.560924,85.8851541 C160.863452,88.2007585 161.514706,91.1675823 161.514706,94.7857143 C161.514706,101.298352 159.560944,106.001853 155.653361,108.896359 C151.745779,111.790864 146.752832,113.238095 140.67437,113.238095 L106.157563,113.238095 L106.157563,113.238095 Z M72.07493,50.5 L72.07493,205.5 L147.186975,205.5 C154.133788,205.5 160.899594,204.631661 167.484594,202.894958 C174.069594,201.158255 179.93088,198.480877 185.068627,194.862745 C190.206375,191.244613 194.294803,186.577293 197.334034,180.860644 C200.373264,175.143996 201.892857,168.37819 201.892857,160.563025 C201.892857,150.866431 199.541107,142.581033 194.837535,135.706583 C190.133963,128.832132 183.00635,124.020088 173.454482,121.270308 C180.401295,117.941627 185.647508,113.672295 189.193277,108.462185 C192.739047,103.252075 194.511905,96.7395349 194.511905,88.9243697 C194.511905,81.6881057 193.317939,75.6097352 190.929972,70.6890756 C188.542005,65.7684161 185.177193,61.8247114 180.835434,58.8578431 C176.493676,55.8909749 171.283644,53.756309 165.205182,52.4537815 C159.12672,51.151254 152.397096,50.5 145.016106,50.5 L72.07493,50.5 L72.07493,50.5 Z M106.157563,179.015406 L106.157563,136.466387 L143.279412,136.466387 C150.660401,136.466387 156.594049,138.166883 161.080532,141.567927 C165.567016,144.968971 167.810224,150.649353 167.810224,158.609244 C167.810224,162.661552 167.122789,165.990183 165.747899,168.595238 C164.373009,171.200293 162.527789,173.262597 160.212185,174.782213 C157.89658,176.301828 155.219203,177.387252 152.179972,178.038515 C149.140741,178.689779 145.956833,179.015406 142.628151,179.015406 L106.157563,179.015406 L106.157563,179.015406 Z" fill="#FFFFFF"></path>
    </g>
</svg>

<svg width="256px" height="361px" viewBox="0 0 256 361" version="1.1" xmlns="http://www.w3.org/2000/svg" xmlns:xlink="http://www.w3.org/1999/xlink" preserveAspectRatio="xMidYMid">
    <g>
        <path d="M127.843868,360.087912 L23.6617143,331.166242 L0.445186813,70.7657143 L255.554813,70.7657143 L232.31367,331.125451 L127.843868,360.087912 L127.843868,360.087912 Z" fill="#264DE4"></path>
        <path d="M212.416703,314.546637 L232.277802,92.0573187 L128,92.0573187 L128,337.950242 L212.416703,314.546637 L212.416703,314.546637 Z" fill="#2965F1"></path>
        <path d="M53.6685714,188.636132 L56.530989,220.572835 L128,220.572835 L128,188.636132 L53.6685714,188.636132 L53.6685714,188.636132 Z" fill="#EBEBEB"></path>
        <path d="M47.917011,123.994725 L50.8202198,155.932132 L128,155.932132 L128,123.994725 L47.917011,123.994725 L47.917011,123.994725 Z" fill="#EBEBEB"></path>
        <path d="M128,271.580132 L127.860044,271.617407 L92.2915165,262.013187 L90.0177582,236.54189 L57.957978,236.54189 L62.4323516,286.687648 L127.853011,304.848879 L128,304.808088 L128,271.580132 L128,271.580132 Z" fill="#EBEBEB"></path>
        <path d="M60.4835165,0 L99.1648352,0 L99.1648352,16.1758242 L76.6593407,16.1758242 L76.6593407,32.3516484 L99.1648352,32.3516484 L99.1648352,48.5274725 L60.4835165,48.5274725 L60.4835165,0 L60.4835165,0 Z" fill="#000000"></path>
        <path d="M106.901099,0 L145.582418,0 L145.582418,14.0659341 L123.076923,14.0659341 L123.076923,16.8791209 L145.582418,16.8791209 L145.582418,49.2307692 L106.901099,49.2307692 L106.901099,34.4615385 L129.406593,34.4615385 L129.406593,31.6483516 L106.901099,31.6483516 L106.901099,0 L106.901099,0 Z" fill="#000000"></path>
        <path d="M153.318681,0 L192,0 L192,14.0659341 L169.494505,14.0659341 L169.494505,16.8791209 L192,16.8791209 L192,49.2307692 L153.318681,49.2307692 L153.318681,34.4615385 L175.824176,34.4615385 L175.824176,31.6483516 L153.318681,31.6483516 L153.318681,0 L153.318681,0 Z" fill="#000000"></path>
        <path d="M202.126769,188.636132 L207.892396,123.994725 L127.889582,123.994725 L127.889582,155.932132 L172.892132,155.932132 L169.98611,188.636132 L127.889582,188.636132 L127.889582,220.572835 L167.216527,220.572835 L163.509451,261.992791 L127.889582,271.606857 L127.889582,304.833407 L193.362286,286.687648 L193.842637,281.291956 L201.347516,197.212132 L202.126769,188.636132 L202.126769,188.636132 Z" fill="#FFFFFF"></path>
    </g>
</svg>

<svg width="256px" height="361px" viewBox="0 0 256 361" version="1.1" xmlns="http://www.w3.org/2000/svg" xmlns:xlink="http://www.w3.org/1999/xlink" preserveAspectRatio="xMidYMid">
    <g>
        <path d="M127.843868,360.087912 L23.6617143,331.166242 L0.445186813,70.7657143 L255.554813,70.7657143 L232.31367,331.125451 L127.843868,360.087912 L127.843868,360.087912 Z" fill="#264DE4"></path>
        <path d="M212.416703,314.546637 L232.277802,92.0573187 L128,92.0573187 L128,337.950242 L212.416703,314.546637 L212.416703,314.546637 Z" fill="#2965F1"></path>
        <path d="M53.6685714,188.636132 L56.530989,220.572835 L128,220.572835 L128,188.636132 L53.6685714,188.636132 L53.6685714,188.636132 Z" fill="#EBEBEB"></path>
        <path d="M47.917011,123.994725 L50.8202198,155.932132 L128,155.932132 L128,123.994725 L47.917011,123.994725 L47.917011,123.994725 Z" fill="#EBEBEB"></path>
        <path d="M128,271.580132 L127.860044,271.617407 L92.2915165,262.013187 L90.0177582,236.54189 L57.957978,236.54189 L62.4323516,286.687648 L127.853011,304.848879 L128,304.808088 L128,271.580132 L128,271.580132 Z" fill="#EBEBEB"></path>
        <path d="M60.4835165,0 L99.1648352,0 L99.1648352,16.1758242 L76.6593407,16.1758242 L76.6593407,32.3516484 L99.1648352,32.3516484 L99.1648352,48.5274725 L60.4835165,48.5274725 L60.4835165,0 L60.4835165,0 Z" fill="#000000"></path>
        <path d="M106.901099,0 L145.582418,0 L145.582418,14.0659341 L123.076923,14.0659341 L123.076923,16.8791209 L145.582418,16.8791209 L145.582418,49.2307692 L106.901099,49.2307692 L106.901099,34.4615385 L129.406593,34.4615385 L129.406593,31.6483516 L106.901099,31.6483516 L106.901099,0 L106.901099,0 Z" fill="#000000"></path>
        <path d="M153.318681,0 L192,0 L192,14.0659341 L169.494505,14.0659341 L169.494505,16.8791209 L192,16.8791209 L192,49.2307692 L153.318681,49.2307692 L153.318681,34.4615385 L175.824176,34.4615385 L175.824176,31.6483516 L153.318681,31.6483516 L153.318681,0 L153.318681,0 Z" fill="#000000"></path>
        <path d="M202.126769,188.636132 L207.892396,123.994725 L127.889582,123.994725 L127.889582,155.932132 L172.892132,155.932132 L169.98611,188.636132 L127.889582,188.636132 L127.889582,220.572835 L167.216527,220.572835 L163.509451,261.992791 L127.889582,271.606857 L127.889582,304.833407 L193.362286,286.687648 L193.842637,281.291956 L201.347516,197.212132 L202.126769,188.636132 L202.126769,188.636132 Z" fill="#FFFFFF"></path>
    </g>
</svg>

<svg width="256px" height="256px" viewBox="0 0 256 256" version="1.1" xmlns="http://www.w3.org/2000/svg" xmlns:xlink="http://www.w3.org/1999/xlink" preserveAspectRatio="xMidYMid">
    <g>
        <rect fill="#F26522" x="0" y="0" width="256" height="256"></rect>
        <path d="M105.536115,159.958938 L144.693011,159.958938 L144.693011,149.305958 L117.628686,149.305958 L117.628686,132.798639 L142.58161,132.798639 L142.58161,122.14566 L117.628686,122.14566 L117.628686,106.694042 L144.693011,106.694042 L144.693011,96.041063 L105.536115,96.041063 L105.536115,159.958938 L105.536115,159.958938 Z M196.998179,142.587864 C196.998179,129.823483 196.134424,127.040272 178.955295,122.913443 C167.918425,120.226205 167.72648,120.034259 167.72648,112.740327 C167.72648,107.173906 169.166071,105.446396 177.323758,105.446396 C182.89018,105.446396 189.128411,106.214178 194.406914,107.365852 L195.750532,97.1927363 C189.416329,95.7531445 182.698234,95.0813351 177.131813,95.0813351 C160.912412,95.0813351 155.633909,100.839702 155.633909,112.452409 C155.633909,125.984572 157.74531,128.959728 173.196928,132.414748 C184.713662,134.910041 184.905608,135.485878 184.905608,142.587864 C184.905608,148.730122 183.466016,150.553605 174.732493,150.553605 C168.398289,150.553605 162.639922,149.401932 156.689609,147.578448 L154.578208,157.079753 C158.801011,159.095183 167.246615,160.918665 174.540547,160.918665 C193.447186,160.918665 196.998179,154.680435 196.998179,142.587864 L196.998179,142.587864 L196.998179,142.587864 Z M219.263865,118.786613 C219.263865,108.997389 223.966531,107.077933 235.29132,107.077933 C237.306748,107.077933 241.52955,107.365852 244.312761,107.941688 L245.080544,98.1524641 C242.20136,97.4806547 237.594667,97.0007908 234.043674,97.0007908 C216.576627,97.0007908 207.555185,102.375267 207.555185,119.266477 L207.555185,142.587864 C207.555185,153.624734 210.81826,160.918665 227.325579,160.918665 C242.393306,160.918665 247,153.432789 247,143.451618 L247,138.844925 C247,127.808055 242.297333,123.009415 230.684626,123.009415 C226.557797,123.009415 222.622912,123.585252 219.263865,124.736926 L219.263865,118.786613 L219.263865,118.786613 Z M228.861143,133.086558 C233.083946,133.086558 235.29132,134.526149 235.29132,139.132844 L235.29132,143.83551 C235.29132,148.730122 233.371865,150.841523 227.325579,150.841523 C221.279294,150.841523 219.263865,149.114013 219.263865,143.83551 L219.263865,135.101987 C221.951102,133.950313 225.406123,133.086558 228.861143,133.086558 L228.861143,133.086558 L228.861143,133.086558 Z" fill="#FFFFFF"></path>
    </g>
</svg>

<svg width="512px" height="149px" viewBox="0 0 512 149" version="1.1" xmlns="http://www.w3.org/2000/svg" xmlns:xlink="http://www.w3.org/1999/xlink" preserveAspectRatio="xMidYMid">
    <g>
        <path d="M3.33224862,115.629027 L3.33224862,58.6475756 L74.4757566,58.6475756 L74.4757566,55.315327 L3.33224862,55.315327 L3.33224862,3.33224862 L78.9742922,3.33224862 L78.9742922,0 L-3.55271368e-15,0 L-3.55271368e-15,118.961276 L79.640742,118.961276 L79.640742,115.629027 L3.33224862,115.629027 L3.33224862,115.629027 Z M143.786528,33.3224862 L114.296128,72.1431826 L85.472177,33.3224862 L81.1402538,33.3224862 L112.296778,74.642369 L78.14123,118.961276 L82.1399284,118.961276 L114.296128,77.1415554 L146.618939,118.961276 L150.78425,118.961276 L116.462089,74.642369 L147.785226,33.3224862 L143.786528,33.3224862 L143.786528,33.3224862 Z M160.780996,148.285063 L160.780996,94.9690856 L161.114221,94.9690856 C163.11358,102.744371 167.056701,108.992275 172.943703,113.712984 C178.830705,118.433693 186.32819,120.794012 195.436381,120.794012 C201.323384,120.794012 206.543854,119.599969 211.09795,117.211845 C215.652046,114.823722 219.456324,111.574812 222.510902,107.465018 C225.565478,103.355224 227.898028,98.5790488 229.508624,93.1363488 C231.119218,87.6936488 231.924504,81.973346 231.924504,75.9752684 C231.924504,69.532889 231.09145,63.5904384 229.425318,58.1477384 C227.759184,52.7050384 225.343328,47.9844 222.177676,43.9856818 C219.012024,39.9869634 215.179976,36.8768958 210.681418,34.6553856 C206.18286,32.4338754 201.101232,31.323137 195.436381,31.323137 C191.104437,31.323137 187.07801,31.9618116 183.35698,33.23918 C179.635951,34.5165484 176.331504,36.3214982 173.443541,38.654084 C170.555577,40.9866696 168.056416,43.7357472 165.945981,46.9013992 C163.835546,50.0670512 162.224976,53.5381088 161.114221,57.3146762 L160.780996,57.3146762 L160.780996,33.3224862 L157.448747,33.3224862 L157.448747,148.285063 L160.780996,148.285063 L160.780996,148.285063 Z M195.436381,117.628376 C184.995284,117.628376 176.609208,114.046245 170.277904,106.881874 C163.9466,99.717504 160.780996,89.415405 160.780996,75.9752684 C160.780996,70.421493 161.558513,65.1454854 163.11357,60.1470876 C164.668627,55.1486896 166.917872,50.7612728 169.861373,46.9847054 C172.804874,43.2081382 176.442543,40.2091444 180.774487,37.9876342 C185.106432,35.766124 189.993681,34.6553856 195.436381,34.6553856 C200.990156,34.6553856 205.849638,35.766124 210.01497,37.9876342 C214.1803,40.2091444 217.62359,43.2359066 220.34494,47.0680118 C223.06629,50.9001168 225.121156,55.2875336 226.5096,60.2303938 C227.898044,65.173254 228.592256,70.421493 228.592256,75.9752684 C228.592256,80.9736664 227.95358,85.9442208 226.676212,90.887081 C225.398844,95.8299412 223.427284,100.272895 220.76147,104.216075 C218.095658,108.159256 214.680138,111.380398 210.514806,113.879596 C206.349474,116.378795 201.323384,117.628376 195.436381,117.628376 L195.436381,117.628376 L195.436381,117.628376 Z M250.251872,118.961276 L250.251872,70.4770582 C250.251872,65.8118868 250.918314,61.2578592 252.25122,56.814839 C253.584126,52.3718186 255.638992,48.4564656 258.41588,45.0686626 C261.192768,41.6808596 264.719362,39.0150872 268.99577,37.0712658 C273.272176,35.1274444 278.353806,34.322159 284.240808,34.6553856 L284.240808,31.323137 C279.131334,31.2120614 274.660612,31.7674308 270.828506,32.9892614 C266.996402,34.211092 263.691954,35.8771996 260.915066,37.9876342 C258.138178,40.098069 255.916702,42.569462 254.25057,45.4018874 C252.584436,48.2343128 251.362624,51.2610752 250.585096,54.4822648 L250.251872,54.4822648 L250.251872,33.3224862 L246.919622,33.3224862 L246.919622,118.961276 L250.251872,118.961276 L250.251872,118.961276 Z M288.406118,76.8083306 L360.049464,76.8083306 C360.271614,70.9213286 359.688476,65.2565626 358.300032,59.8138626 C356.911588,54.3711628 354.690112,49.5394506 351.635536,45.3185812 C348.580958,41.0977118 344.637838,37.7099596 339.806052,35.155223 C334.974268,32.6004862 329.226196,31.323137 322.561666,31.323137 C317.78542,31.323137 313.120318,32.3228016 308.566222,34.3221608 C304.012126,36.32152 300.013468,39.2372084 296.570126,43.0693134 C293.126786,46.9014184 290.34994,51.5942884 288.239506,57.1480638 C286.12907,62.7018392 285.07387,69.0330484 285.07387,76.1418808 C285.07387,82.473185 285.79585,88.387867 287.23983,93.8861048 C288.683812,99.3843424 290.90529,104.160518 293.904328,108.214774 C296.903366,112.26903 300.763182,115.406866 305.483892,117.628376 C310.204602,119.849886 315.897136,120.905088 322.561666,120.794012 C332.33631,120.794012 340.555776,118.044935 347.220306,112.546697 C353.884836,107.048459 357.827958,99.3010588 359.049788,89.304263 L355.71754,89.304263 C354.273558,98.7456812 350.580352,105.826639 344.637814,110.547348 C338.695274,115.268057 331.225558,117.628376 322.228442,117.628376 C316.119288,117.628376 310.954354,116.573175 306.733486,114.46274 C302.512616,112.352305 299.069326,109.464385 296.403514,105.798894 C293.737702,102.133402 291.766142,97.8292904 290.488774,92.8864302 C289.211404,87.94357 288.517194,82.5842572 288.406118,76.8083306 L288.406118,76.8083306 L288.406118,76.8083306 Z M356.717214,73.476082 L288.406118,73.476082 C288.739344,67.4780046 289.850082,62.0909232 291.738366,57.3146762 C293.62665,52.5384294 296.098044,48.4564656 299.15262,45.0686626 C302.207196,41.6808596 305.76156,39.0983926 309.815816,37.3211846 C313.870072,35.5439764 318.22972,34.6553856 322.89489,34.6553856 C328.448666,34.6553856 333.335916,35.6828186 337.556784,37.7377156 C341.777654,39.7926126 345.304248,42.597227 348.136674,46.1516434 C350.9691,49.7060596 353.107272,53.8435602 354.551252,58.5642694 C355.995234,63.2849786 356.717214,68.255533 356.717214,73.476082 L356.717214,73.476082 L356.717214,73.476082 Z M429.193622,58.6475756 L432.52587,58.6475756 C432.52587,49.0950818 429.749024,42.1529666 424.195248,37.8210218 C418.641474,33.489077 411.088452,31.323137 401.535958,31.323137 C396.204334,31.323137 391.705844,31.98958 388.040352,33.3224862 C384.37486,34.6553922 381.375866,36.3770368 379.04328,38.4874716 C376.710694,40.5979062 375.044586,42.930457 374.044908,45.4851936 C373.045228,48.0399304 372.545396,50.4835548 372.545396,52.8161406 C372.545396,57.481312 373.37845,61.2022858 375.044582,63.9791734 C376.710714,66.7560612 379.32095,68.9220012 382.875366,70.4770582 C385.319028,71.5878134 388.095874,72.587478 391.205988,73.476082 C394.316102,74.364686 397.926002,75.3088138 402.035796,76.3084934 C405.701288,77.1970974 409.311188,78.0856882 412.865604,78.9742922 C416.42002,79.8628962 419.557856,81.0569402 422.279206,82.5564594 C425.000556,84.0559788 427.222032,85.9720026 428.943704,88.3045884 C430.665374,90.637174 431.526196,93.6917048 431.526196,97.468272 C431.526196,101.133764 430.665374,104.243831 428.943704,106.798568 C427.222032,109.353305 425.028324,111.435939 422.362512,113.046534 C419.6967,114.657129 416.725474,115.823405 413.448748,116.545395 C410.17202,117.267386 406.978646,117.628376 403.868532,117.628376 C393.760662,117.628376 386.01326,115.379131 380.626098,110.880573 C375.238936,106.382015 372.545396,99.3010572 372.545396,89.6374878 L369.213146,89.6374878 C369.213146,100.411812 372.128836,108.298055 377.9603,113.296453 C383.791764,118.294851 392.427754,120.794012 403.868532,120.794012 C407.534024,120.794012 411.22723,120.377485 414.94826,119.544419 C418.669288,118.711353 422.001504,117.350698 424.945004,115.462415 C427.888506,113.574131 430.276594,111.130506 432.10934,108.131468 C433.942086,105.132429 434.858444,101.466992 434.858444,97.1350472 C434.858444,93.0252534 434.05316,89.693038 432.442564,87.1383014 C430.83197,84.5835646 428.721566,82.4731616 426.111292,80.807029 C423.501018,79.1408964 420.55756,77.8357786 417.280834,76.8916368 C414.004106,75.947495 410.699658,75.0311358 407.367394,74.1425318 C402.702222,72.9207012 398.620258,71.8654996 395.12138,70.9768956 C391.622502,70.0882914 388.373592,69.03309 385.374552,67.8112594 C382.48659,66.5894288 380.181808,64.8400158 378.460136,62.5629678 C376.738466,60.2859198 375.877644,57.03701 375.877644,52.8161406 C375.877644,52.038612 376.099792,50.650189 376.544094,48.6508298 C376.988396,46.6514706 378.043598,44.624373 379.70973,42.569476 C381.375862,40.5145792 383.93056,38.6818608 387.373902,37.0712658 C390.817242,35.460671 395.53788,34.6553856 401.535958,34.6553856 C405.645752,34.6553856 409.394494,35.099681 412.782298,35.988285 C416.1701,36.8768892 419.085788,38.2930806 421.52945,40.236902 C423.973112,42.1807234 425.861366,44.6521164 427.194272,47.6511552 C428.527178,50.650194 429.193622,54.3156308 429.193622,58.6475756 L429.193622,58.6475756 L429.193622,58.6475756 Z M506.335178,58.6475756 L509.667426,58.6475756 C509.667426,49.0950818 506.89058,42.1529666 501.336804,37.8210218 C495.783028,33.489077 488.230008,31.323137 478.677514,31.323137 C473.34589,31.323137 468.847398,31.98958 465.181906,33.3224862 C461.516416,34.6553922 458.517422,36.3770368 456.184836,38.4874716 C453.85225,40.5979062 452.186142,42.930457 451.186462,45.4851936 C450.186784,48.0399304 449.68695,50.4835548 449.68695,52.8161406 C449.68695,57.481312 450.520004,61.2022858 452.186138,63.9791734 C453.85227,66.7560612 456.462506,68.9220012 460.016922,70.4770582 C462.460582,71.5878134 465.237428,72.587478 468.347544,73.476082 C471.457658,74.364686 475.067558,75.3088138 479.177352,76.3084934 C482.842842,77.1970974 486.452742,78.0856882 490.00716,78.9742922 C493.561576,79.8628962 496.699412,81.0569402 499.420762,82.5564594 C502.142112,84.0559788 504.363588,85.9720026 506.085258,88.3045884 C507.80693,90.637174 508.667752,93.6917048 508.667752,97.468272 C508.667752,101.133764 507.80693,104.243831 506.085258,106.798568 C504.363588,109.353305 502.16988,111.435939 499.504068,113.046534 C496.838256,114.657129 493.86703,115.823405 490.590302,116.545395 C487.313576,117.267386 484.120202,117.628376 481.010088,117.628376 C470.902216,117.628376 463.154816,115.379131 457.767654,110.880573 C452.380492,106.382015 449.68695,99.3010572 449.68695,89.6374878 L446.354702,89.6374878 C446.354702,100.411812 449.27039,108.298055 455.101854,113.296453 C460.93332,118.294851 469.56931,120.794012 481.010088,120.794012 C484.67558,120.794012 488.368784,120.377485 492.089814,119.544419 C495.810844,118.711353 499.14306,117.350698 502.08656,115.462415 C505.030062,113.574131 507.418148,111.130506 509.250894,108.131468 C511.08364,105.132429 512,101.466992 512,97.1350472 C512,93.0252534 511.194714,89.693038 509.58412,87.1383014 C507.973524,84.5835646 505.863122,82.4731616 503.252848,80.807029 C500.642572,79.1408964 497.699116,77.8357786 494.422388,76.8916368 C491.145662,75.947495 487.841214,75.0311358 484.508948,74.1425318 C479.843778,72.9207012 475.761814,71.8654996 472.262936,70.9768956 C468.764056,70.0882914 465.515146,69.03309 462.516108,67.8112594 C459.628144,66.5894288 457.323362,64.8400158 455.601692,62.5629678 C453.880022,60.2859198 453.0192,57.03701 453.0192,52.8161406 C453.0192,52.038612 453.241348,50.650189 453.68565,48.6508298 C454.129952,46.6514706 455.185152,44.624373 456.851286,42.569476 C458.517418,40.5145792 461.072116,38.6818608 464.515458,37.0712658 C467.958798,35.460671 472.679436,34.6553856 478.677514,34.6553856 C482.787308,34.6553856 486.53605,35.099681 489.923852,35.988285 C493.311656,36.8768892 496.227344,38.2930806 498.671006,40.236902 C501.114666,42.1807234 503.002922,44.6521164 504.335828,47.6511552 C505.668734,50.650194 506.335178,54.3156308 506.335178,58.6475756 L506.335178,58.6475756 L506.335178,58.6475756 Z" fill="#222222"></path>
    </g>
</svg>

<svg width="256px" height="250px" viewBox="0 0 256 250" version="1.1" xmlns="http://www.w3.org/2000/svg" xmlns:xlink="http://www.w3.org/1999/xlink" preserveAspectRatio="xMidYMid">
    <g>
        <path d="M128.00106,0 C57.3172926,0 0,57.3066942 0,128.00106 C0,184.555281 36.6761997,232.535542 87.534937,249.460899 C93.9320223,250.645779 96.280588,246.684165 96.280588,243.303333 C96.280588,240.251045 96.1618878,230.167899 96.106777,219.472176 C60.4967585,227.215235 52.9826207,204.369712 52.9826207,204.369712 C47.1599584,189.574598 38.770408,185.640538 38.770408,185.640538 C27.1568785,177.696113 39.6458206,177.859325 39.6458206,177.859325 C52.4993419,178.762293 59.267365,191.04987 59.267365,191.04987 C70.6837675,210.618423 89.2115753,204.961093 96.5158685,201.690482 C97.6647155,193.417512 100.981959,187.77078 104.642583,184.574357 C76.211799,181.33766 46.324819,170.362144 46.324819,121.315702 C46.324819,107.340889 51.3250588,95.9223682 59.5132437,86.9583937 C58.1842268,83.7344152 53.8029229,70.715562 60.7532354,53.0843636 C60.7532354,53.0843636 71.5019501,49.6441813 95.9626412,66.2049595 C106.172967,63.368876 117.123047,61.9465949 128.00106,61.8978432 C138.879073,61.9465949 149.837632,63.368876 160.067033,66.2049595 C184.49805,49.6441813 195.231926,53.0843636 195.231926,53.0843636 C202.199197,70.715562 197.815773,83.7344152 196.486756,86.9583937 C204.694018,95.9223682 209.660343,107.340889 209.660343,121.315702 C209.660343,170.478725 179.716133,181.303747 151.213281,184.472614 C155.80443,188.444828 159.895342,196.234518 159.895342,208.176593 C159.895342,225.303317 159.746968,239.087361 159.746968,243.303333 C159.746968,246.709601 162.05102,250.70089 168.53925,249.443941 C219.370432,232.499507 256,184.536204 256,128.00106 C256,57.3066942 198.691187,0 128.00106,0 Z M47.9405593,182.340212 C47.6586465,182.976105 46.6581745,183.166873 45.7467277,182.730227 C44.8183235,182.312656 44.2968914,181.445722 44.5978808,180.80771 C44.8734344,180.152739 45.876026,179.97045 46.8023103,180.409216 C47.7328342,180.826786 48.2627451,181.702199 47.9405593,182.340212 Z M54.2367892,187.958254 C53.6263318,188.524199 52.4329723,188.261363 51.6232682,187.366874 C50.7860088,186.474504 50.6291553,185.281144 51.2480912,184.70672 C51.8776254,184.140775 53.0349512,184.405731 53.8743302,185.298101 C54.7115892,186.201069 54.8748019,187.38595 54.2367892,187.958254 Z M58.5562413,195.146347 C57.7719732,195.691096 56.4895886,195.180261 55.6968417,194.042013 C54.9125733,192.903764 54.9125733,191.538713 55.713799,190.991845 C56.5086651,190.444977 57.7719732,190.936735 58.5753181,192.066505 C59.3574669,193.22383 59.3574669,194.58888 58.5562413,195.146347 Z M65.8613592,203.471174 C65.1597571,204.244846 63.6654083,204.03712 62.5716717,202.981538 C61.4524999,201.94927 61.1409122,200.484596 61.8446341,199.710926 C62.5547146,198.935137 64.0575422,199.15346 65.1597571,200.200564 C66.2704506,201.230712 66.6095936,202.705984 65.8613592,203.471174 Z M75.3025151,206.281542 C74.9930474,207.284134 73.553809,207.739857 72.1039724,207.313809 C70.6562556,206.875043 69.7087748,205.700761 70.0012857,204.687571 C70.302275,203.678621 71.7478721,203.20382 73.2083069,203.659543 C74.6539041,204.09619 75.6035048,205.261994 75.3025151,206.281542 Z M86.046947,207.473627 C86.0829806,208.529209 84.8535871,209.404622 83.3316829,209.4237 C81.8013,209.457614 80.563428,208.603398 80.5464708,207.564772 C80.5464708,206.498591 81.7483088,205.631657 83.2786917,205.606221 C84.8005962,205.576546 86.046947,206.424403 86.046947,207.473627 Z M96.6021471,207.069023 C96.7844366,208.099171 95.7267341,209.156872 94.215428,209.438785 C92.7295577,209.710099 91.3539086,209.074206 91.1652603,208.052538 C90.9808515,206.996955 92.0576306,205.939253 93.5413813,205.66582 C95.054807,205.402984 96.4092596,206.021919 96.6021471,207.069023 Z" fill="#161614"></path>
    </g>
</svg>

<svg width="512px" height="144px" viewBox="0 0 512 144" version="1.1" xmlns="http://www.w3.org/2000/svg" xmlns:xlink="http://www.w3.org/1999/xlink" preserveAspectRatio="xMidYMid">
    <g fill="#430098">
        <path d="M116.494382,0 C123.538655,0 129.26992,5.62742772 129.434564,12.633833 L129.438202,12.9438202 L129.438202,130.876404 C129.438202,137.920677 123.809029,143.651942 116.804293,143.816586 L116.494382,143.820225 L12.9438202,143.820225 C5.8995473,143.820225 0.168282652,138.191051 0.00363861767,131.186316 L0,130.876404 L0,12.9438202 C0,5.89777561 5.62917374,0.168231299 12.6339089,0.00363750129 L12.9438202,0 L116.494382,0 Z M116.494382,7.19101124 L12.9438202,7.19101124 C9.84633394,7.19101124 7.31140331,9.6539073 7.19517478,12.723553 L7.19101124,12.9438202 L7.19101124,130.876404 C7.19101124,133.973891 9.6539073,136.508821 12.723553,136.62505 L12.9438202,136.629213 L116.494382,136.629213 C119.593624,136.629213 122.126881,134.166317 122.24303,131.096672 L122.247191,130.876404 L122.247191,12.9438202 C122.247191,9.77258427 119.667416,7.19101124 116.494382,7.19101124 Z M32.3595506,93.4831461 L48.5393258,107.865169 L32.3595506,122.247191 L32.3595506,93.4831461 Z M46.741573,21.5730337 L46.741573,62.4017978 C53.9217978,60.0647191 63.9586517,57.5280899 73.7078652,57.5280899 C82.5977528,57.5280899 87.9191011,61.0229213 90.8170787,63.9550562 C96.9090458,70.1178601 97.0837061,77.9431621 97.0772521,79.0552277 L97.0768539,79.1011236 L97.0786517,122.247191 L82.6966292,122.247191 L82.6966292,79.2988764 C82.6265169,75.9424719 81.0085393,71.9101124 73.7078652,71.9101124 C59.231173,71.9101124 43.0101231,79.1183624 42.5284133,79.3340461 L42.5186517,79.338427 L32.3595506,83.9406742 L32.3595506,21.5730337 L46.741573,21.5730337 Z M97.0786517,21.5730337 C96.1078652,29.7420225 92.7964045,37.5730337 86.2921348,44.9438202 L86.2921348,44.9438202 L71.9101124,44.9438202 C77.5622472,37.5280899 81.1110112,29.7240449 82.6966292,21.5730337 L82.6966292,21.5730337 Z"></path>
        <path d="M365.094831,45.8211236 C377.855281,45.8211236 391.117303,53.9253933 391.117303,73.3483146 C391.117303,92.7748315 377.855281,100.875506 365.094831,100.875506 C352.262472,100.875506 339.002247,92.7748315 339.002247,73.3483146 C339.002247,53.9253933 352.262472,45.8211236 365.094831,45.8211236 Z M481.819326,46.8260674 L481.819326,78.5132584 C481.819326,85.8211236 484.185169,89.12 489.921798,89.12 C495.654831,89.12 497.948764,85.8211236 497.948764,78.5132584 L497.948764,46.8260674 L512,46.8260674 L512,78.5833708 C512,92.6364045 505.262022,100.661573 489.777978,100.661573 C474.292135,100.661573 467.482247,92.6364045 467.482247,78.5833708 L467.482247,46.8260674 L481.819326,46.8260674 Z M176.134831,46.8260674 L176.134831,66.538427 L193.768989,66.538427 L193.768989,46.8260674 L208.107865,46.8260674 L208.107865,99.8741573 L193.768989,99.8741573 L193.768989,78.4395506 L176.134831,78.4395506 L176.134831,99.8741573 L161.797753,99.8741573 L161.797753,46.8260674 L176.134831,46.8260674 Z M264.42427,46.8260674 L264.42427,58.727191 L240.911461,58.727191 L240.911461,67.3294382 L257.686292,67.3294382 L257.686292,78.5132584 L240.911461,78.5132584 L240.911461,88.3325843 L265.644944,88.3325843 L265.644944,99.8741573 L226.574382,99.8741573 L226.574382,46.8260674 L264.42427,46.8260674 Z M302.108764,46.8260674 C315.728539,46.8260674 324.044944,51.3438202 324.044944,64.1024719 C324.044944,72.4170787 320.530337,77.2224719 313.578427,79.5847191 L324.83236,99.8741573 L309.635955,99.8741573 L299.383371,81.4525843 L295.440899,81.4525843 L295.440899,99.8741573 L281.391461,99.8741573 L281.391461,46.8260674 L302.108764,46.8260674 Z M421.413034,46.8260674 L421.413034,66.0404494 L436.039551,46.8260674 L452.668764,46.8260674 L434.818876,67.7591011 L454.245393,99.8741573 L438.044045,99.8741573 L425.501124,78.6534831 L421.413034,83.3851685 L421.413034,99.8741573 L407.077753,99.8741573 L407.077753,46.8260674 L421.413034,46.8260674 Z M365.094831,57.6503371 C357.56764,57.6503371 353.339326,63.5991011 353.339326,73.3483146 C353.339326,83.1011236 357.56764,89.4076404 365.094831,89.4076404 C372.550112,89.4076404 376.778427,83.1011236 376.778427,73.3483146 C376.778427,63.5991011 372.550112,57.6503371 365.094831,57.6503371 Z M301.605393,58.4377528 L295.440899,58.4377528 L295.440899,70.552809 L301.605393,70.552809 C307.484045,70.552809 310.06382,68.9042697 310.06382,64.4602247 C310.06382,60.0179775 307.484045,58.4377528 301.605393,58.4377528 Z"></path>
    </g>
</svg>

<svg width="256px" height="256px" viewBox="0 0 256 256" version="1.1" xmlns="http://www.w3.org/2000/svg" xmlns:xlink="http://www.w3.org/1999/xlink" preserveAspectRatio="xMidYMid">
    <g>
        <path d="M0,0 L256,0 L256,256 L0,256 L0,0 Z" fill="#F7DF1E"></path>
        <path d="M67.311746,213.932292 L86.902654,202.076241 C90.6821079,208.777346 94.1202286,214.447137 102.367086,214.447137 C110.272203,214.447137 115.256076,211.354819 115.256076,199.326883 L115.256076,117.528787 L139.313575,117.528787 L139.313575,199.666997 C139.313575,224.58433 124.707759,235.925943 103.3984,235.925943 C84.1532952,235.925943 72.9819429,225.958603 67.3113397,213.93026" fill="#000000"></path>
        <path d="M152.380952,211.354413 L171.969422,200.0128 C177.125994,208.433981 183.827911,214.619835 195.684368,214.619835 C205.652521,214.619835 212.009041,209.635962 212.009041,202.762159 C212.009041,194.513676 205.479416,191.592025 194.481168,186.78207 L188.468419,184.202565 C171.111213,176.81473 159.597308,167.53534 159.597308,147.944838 C159.597308,129.901308 173.344508,116.153295 194.825752,116.153295 C210.119924,116.153295 221.117765,121.48094 229.021663,135.400432 L210.29059,147.428775 C206.166146,140.040127 201.699556,137.119289 194.826159,137.119289 C187.78047,137.119289 183.312254,141.587098 183.312254,147.428775 C183.312254,154.646349 187.78047,157.568406 198.089956,162.036622 L204.103924,164.614095 C224.553448,173.378641 236.067352,182.313448 236.067352,202.418387 C236.067352,224.071924 219.055137,235.927975 196.200432,235.927975 C173.860978,235.927975 159.425829,225.274311 152.381359,211.354413" fill="#000000"></path>
    </g>
</svg>

<svg width="512px" height="116px" viewBox="0 0 512 116" version="1.1" xmlns="http://www.w3.org/2000/svg" xmlns:xlink="http://www.w3.org/1999/xlink">
    <defs></defs>
    <g stroke="none" stroke-width="1" fill="none" fill-rule="evenodd">
        <g>
            <path d="M489.718192,8.64613026 L511.13882,8.76383142 C511.13882,8.76383142 471.313656,62.7278468 468.06216,67.1259464 C467.005794,68.5501302 465.401134,70.0861302 464.588016,71.9899464 C462.531188,76.7764598 460.419432,87.2754022 460.419432,87.2754022 L440.82023,87.3725058 C440.82023,87.3725058 443.86967,76.4292414 443.744122,70.600092 C443.633288,65.5075556 441.034054,60.421885 439.57554,55.314636 C438.102314,50.1455938 436.101394,40.02918 436.101394,40.02918 L456.25085,40.02918 L459.029578,51.1460536 L489.718192,8.64613026" fill="#1A1918"></path>
            <path d="M449.157394,20.0268506 C453.110192,22.4102988 455.535816,35.5555556 455.535816,35.5555556 C455.535816,35.5555556 434.8518,35.8605978 423.595648,35.8605978 L413.868628,35.8605978 L402.057318,87.2754022 L383.993134,87.2754022 C383.993134,87.2754022 395.234574,31.400705 397.888736,21.2705594 C398.749916,17.9916015 403.78066,18.5536245 412.277702,18.5536245 L425.846682,18.5536245 C434.608552,18.5536245 444.849532,17.4354636 449.157394,20.0268506" fill="#1A1918"></path>
            <path d="M365.059924,45.0667892 C365.059924,45.0667892 365.622928,41.7662528 363.149242,37.9448888 C361.037486,34.6865288 359.08561,33.929318 353.527172,33.7557088 C337.831724,33.2623448 338.136766,44.89318 338.136766,44.89318 L365.059924,45.0667892 L365.059924,45.0667892 Z M382.082452,31.7479234 C384.382528,40.0438928 379.99816,59.5391264 379.99816,59.5391264 C379.99816,59.5391264 357.104306,59.1565978 344.56423,59.5391264 C340.66538,59.6578084 335.997548,59.1154022 334.83721,60.9289808 C333.204108,63.4713256 335.433564,67.383908 337.323648,69.0366284 C339.499158,70.9404444 343.736398,71.1562298 345.258666,71.3504368 C355.436874,72.6431878 376.7398,71.6839234 376.7398,71.6839234 L373.04987,88.0247662 C373.04987,88.0247662 342.94584,89.5333026 327.88892,85.940475 C324.915984,85.2323066 322.12941,83.8012568 320.246192,81.7718928 C319.73223,81.2167356 319.286928,80.459525 318.80043,79.8062836 C318.412016,79.284475 317.280122,77.5689808 316.772046,76.213456 C313.33321,67.0494406 317.175172,49.4923524 320.940628,40.0850882 C321.378084,38.9943908 321.927356,37.6123832 322.505072,36.4373334 C323.226974,34.971954 323.838038,33.3182528 324.414774,32.4423602 C324.803188,31.838161 325.2838,31.4487662 325.686928,30.8788966 C326.151846,30.2050574 326.693272,29.551816 327.194482,28.9691954 C328.583356,27.3566896 330.160552,26.2169502 332.057502,24.800613 C338.330974,20.1033564 349.68423,16.4556015 363.32285,17.8523218 C368.457564,18.3800153 376.212108,20.2141916 379.99816,25.4950498 C381.012352,26.905502 381.512582,29.7048276 382.082452,31.7479234 L382.082452,31.7479234 L382.082452,31.7479234 Z" fill="#1A1918"></path>
            <path d="M299.22869,18.4908506 L316.744582,18.3868812 C316.744582,18.3868812 306.983234,64.6944368 302.008398,87.2754022 L281.858942,87.2754022 C267.776,87.2754022 255.234942,89.019341 249.899158,78.9372568 C244.72325,69.1484444 249.662774,53.0498698 251.983448,42.1134712 C253.623418,34.3736398 257.076966,18.5536245 257.076966,18.5536245 L275.224522,18.3868812 C275.224522,18.3868812 270.096674,43.0168276 267.96334,55.314636 C267.199264,59.7196016 265.62305,63.8675862 267.268904,67.1259464 C268.832368,70.22541 271.020628,70.4470804 277.69036,70.600092 C279.803096,70.649134 286.722942,70.600092 286.722942,70.600092 L299.22869,18.4908506" fill="#1A1918"></path>
            <path d="M217.243954,51.8404904 C219.07813,45.3237702 221.752888,38.2577778 221.412536,32.3864522 C221.04472,26.106115 215.778574,20.3878008 212.380934,19.1862682 C202.14682,15.5728429 192.565946,20.624184 188.758314,24.7437242 C183.83154,30.0804904 182.164107,36.3127662 180.420169,44.89318 C179.121533,51.2637548 178.058299,57.9893946 180.420169,62.957364 C184.602483,71.7398314 197.64377,69.8222836 211.685518,69.9056552 C213.769808,64.3197548 215.49315,58.0453026 217.243954,51.8404904 L217.243954,51.8404904 L217.243954,51.8404904 Z M241.561992,26.1335786 C243.562912,40.6824214 235.885854,56.7398008 230.59813,70.7040614 C235.989824,71.1905594 240.714544,70.6285364 241.054896,71.030682 C241.40898,71.5524904 237.441472,87.6991264 236.058482,87.7403218 C231.779066,87.852138 217.59902,87.969839 211.685518,87.969839 C192.391356,87.969839 174.340904,89.2272796 165.135693,79.6326744 C161.397701,75.7348046 158.81318,69.0503602 158.187402,64.3472184 C157.144766,56.4955708 158.451249,47.8523832 160.271693,40.7245978 C161.918529,34.2902682 164.030284,28.2178698 167.219985,22.659433 C175.327632,8.50685058 189.432153,-1.99797701 213.075372,0.426666666 C217.660812,0.89943295 224.247172,2.9072184 228.360828,5.28968582 C228.645272,5.45740996 229.639846,6.2489502 229.868384,6.38822988 C235.42682,9.92514942 240.491892,18.3662835 241.561992,26.1335786 L241.561992,26.1335786 L241.561992,26.1335786 Z" fill="#1A1918"></path>
            <path d="M156.193349,18.5742222 C155.026146,23.88941 153.858943,29.9137472 152.628966,35.166161 L133.174927,35.166161 C134.682483,29.3438774 135.835954,23.5559234 137.34351,18.4908506 C143.56892,18.4908506 149.356874,18.5742222 156.193349,18.5742222" fill="#1A1918"></path>
            <path d="M132.48049,40.02918 L151.239111,40.02918 C148.787004,53.6060076 143.930851,75.5052874 140.123218,90.748567 C137.73977,100.288245 136.148843,107.250268 129.700782,112.286897 C129.124046,112.739065 128.79154,112.524261 128.311908,112.982314 C127.123126,114.115188 121.627464,115.428536 118.584889,115.761042 C113.637517,116.296582 108.044751,115.830682 101.965487,115.706115 C103.556414,109.890697 105.356261,102.908077 106.773579,97.6968582 C121.593134,99.489839 121.968797,85.4824214 124.837762,71.9899464 C126.49833,64.1942068 131.529073,43.1561072 132.48049,40.02918" fill="#1A1918"></path>
            <g transform="translate(0.000000, 8.827586)" fill="#21609B">
                <path d="M88.7084138,66.6365058 L88.3062682,67.678161 C81.4550804,81.0176246 69.3171494,89.2027586 52.0033104,89.5637088 C43.9093946,89.7304522 36.1970268,87.6540076 31.1594176,85.3951264 C20.286774,80.5105288 11.1423755,71.4514636 6.14792338,61.7725058 C-1.01615326,47.897502 -2.30792338,28.596475 12.5881379,14.180046 C12.8176552,14.180046 10.7814253,17.3059923 11.0109425,17.3059923 L10.6009502,18.6399387 C-0.133394636,52.2465594 32.9376858,81.046069 65.0857932,77.7523984 C72.8118928,76.9608582 82.6644598,72.729502 88.7084138,66.6365058"></path>
                <path d="M69.2543754,52.7399234 C77.3424062,52.7958314 85.7904062,49.0156628 90.792705,43.7083218 C86.416184,54.8183296 73.7436934,61.9598468 56.7486284,59.6882146 C42.5195402,57.7843984 28.9642912,43.4650728 27.5675708,29.1173026 C26.5465134,18.675249 30.1864214,12.4429732 36.183295,4.88361686 C34.0990038,8.83739464 33.3202146,11.8868352 33.1260076,13.8318467 C30.8475096,36.4196782 51.1695938,52.6222222 69.2543754,52.7399234"></path>
                <path d="M89.980567,24.6848736 C88.7231264,27.5685518 81.483525,33.0151724 78.2869578,33.6958774 C65.6281992,36.3922146 57.5205518,30.389456 53.2744828,23.558866 C52.64282,22.5378084 51.4756168,19.7522146 51.2666974,19.0430651 C49.619862,13.443433 50.3770728,4.9738544 55.290115,0.58948659 C53.810023,4.75806896 53.5942376,9.60049042 54.3730268,12.7480153 C54.8448122,14.6518314 56.282728,17.9739464 57.7216246,20.0641226 C60.340475,23.8717548 62.0010422,24.7966896 65.3643524,26.8182068 C66.878774,27.7284292 68.5040306,28.4581762 69.2063142,28.659249 C72.3950344,29.5969348 79.1275402,32.0706206 89.980567,24.6848736"></path>
            </g>
        </g>
    </g>
</svg>

<svg width="256px" height="204px" viewBox="0 0 256 204" version="1.1" xmlns="http://www.w3.org/2000/svg" xmlns:xlink="http://www.w3.org/1999/xlink" preserveAspectRatio="xMidYMid">
    <g>
				<polygon fill="#00B0FF" points="0 110.848 0 0 96 55.424 96 92.3733333 32 55.424 32 129.322667"></polygon>
				<polygon fill="#0081CB" points="96 55.424 192 0 192 110.848 128 147.797333 96 129.322667 160 92.3733333 160 55.424 96 92.3733333"></polygon>
				<polygon fill="#00B0FF" points="96 129.322667 96 166.272 160 203.221333 160 166.272"></polygon>
				<path d="M160,203.221333 L256,147.797333 L256,73.8986667 L224,92.3733333 L224,129.322667 L160,166.272 L160,203.221333 Z M224,55.424 L224,18.4746667 L256,5.68434189e-14 L256,36.9493333 L224,55.424 Z" fill="#0081CB"></path>
		</g>
</svg>

<svg width="291" height="291" version="1.1" viewBox="0 0 291 291" xmlns="http://www.w3.org/2000/svg" xmlns:cc="http://creativecommons.org/ns#" xmlns:dc="http://purl.org/dc/elements/1.1/" xmlns:rdf="http://www.w3.org/1999/02/22-rdf-syntax-ns#">
 <metadata>
  <rdf:RDF>
   <cc:Work rdf:about="">
    <dc:format>image/svg+xml</dc:format>
    <dc:type rdf:resource="http://purl.org/dc/dcmitype/StillImage"/>
    <dc:title/>
   </cc:Work>
  </rdf:RDF>
 </metadata>
 <g fill-rule="evenodd">
  <path d="m228.03 133.47c-0.74039 0.14836-1.4808 1.7788-1.4808 2.6676-0.14821 5.9271-0.2967 21.636-0.2967 32.305 0 0.29669 0.44368 0.88871 0.88871 0.88871 2.2225 0.1482 7.5576 0.2967 12.151 0.2967 6.3722 0 10.077-0.88872 12.152-1.7774 5.3337-2.6675 7.8529-8.4477 7.8529-14.82 0-14.373-10.077-19.857-25.044-19.857-1.0371-0.14695-3.9999-0.14695-6.2238 0.2967zm38.233 66.24c0-14.67-10.819-22.821-30.379-22.821-0.88871 0-7.1125-0.1482-8.5947 0.14821-0.44505 0.14839-1.0371 0.44507-1.0371 0.89014 0 10.52-0.14839 27.266 0.2967 33.785 0.29532 2.8159 2.3709 6.8172 4.8901 8.0027 2.6662 1.4821 8.743 1.7775 12.891 1.7775 11.707 0 21.932-6.5191 21.932-21.783zm-68.462-74.389c1.4807 0 5.9271 0.44367 17.338 0.44367 10.817 0 19.412-0.29532 29.934-0.29532 12.891 0 30.674 4.5934 30.674 23.857 0 9.4848-6.6689 17.042-15.412 20.747-0.44368 0.14839-0.44368 0.44368 0 0.59201 12.448 3.1126 23.415 10.819 23.415 25.34 0 14.226-8.8914 23.265-21.784 28.897-7.8543 3.4079-17.634 4.5933-27.563 4.5933-7.5576 0-27.858-0.88871-39.12-0.59202-1.1854-0.44507 1.0371-5.7802 2.0741-6.6689 2.6676-0.1482 4.7417-0.29669 7.5576-1.1854 4.0013-1.0371 4.445-2.2225 5.0384-8.298 0.29672-5.1867 0.29672-23.563 0.29672-36.603 0-17.931 0.14839-30.082 0-36.009-0.14821-4.5934-1.7788-6.0755-5.0384-6.9656-2.5192-0.44367-6.6689-1.0371-10.077-1.4807-0.74177-0.74176 1.7774-5.7802 2.6675-6.3722zm-85.504 92.172c3.5577 2.8145 10.522 3.9999 16.746 3.9999 8.0026 0 16.004-1.4807 23.71-8.4463 7.8543-7.1126 13.336-18.078 13.336-35.564 0-16.746-6.3722-30.379-19.412-38.38-7.4092-4.5947-16.894-6.5205-27.86-6.5205-3.2596 0-6.3722 0.14837-8.298 1.0371-0.44505 0.2967-1.4821 1.6305-1.4821 2.3708-0.29671 2.9642-0.29671 25.784-0.29671 39.122 0 13.781 0 33.045 0.29671 35.267 0 2.2239 1.0371 5.6318 3.2596 7.1139zm-33.638-92.172c2.8159 0 13.633 0.44367 18.82 0.44367 9.3364 0 16.004-0.44367 33.638-0.44367 14.818 0 27.266 4.0013 36.158 11.558 10.817 9.3364 16.449 22.229 16.449 37.936 0 22.376-10.225 35.269-20.45 42.678-10.224 7.5576-23.562 12.003-42.528 12.003-10.077 0-27.414-0.2967-41.789-0.44507h-0.14838c-0.74036-1.3324 1.1854-6.5191 2.3709-6.6675 3.853-0.44505 4.89-0.59341 6.8172-1.3338 3.1112-1.1854 3.7046-2.8159 4.1497-8.298 0.44367-10.225 0.29532-22.524 0.29532-36.454 0-9.9285 0.14838-29.342-0.14838-35.565-0.44367-5.1854-2.6662-6.5191-7.1126-7.4092-2.2225-0.44367-5.1867-1.0371-9.335-1.4807-0.59341-1.0385 2.0741-5.6318 2.8145-6.5205z" fill="#8e714e"/>
  <path d="m189.01 89.209c-2.3019-0.27655-3.9595-0.6444-5.9857-1.5653-0.27569-0.18437-0.73659-1.1044-0.73659-1.4732-0.18437-3.2229-0.18437-12.431-0.18437-18.6 0-4.9726-0.82788-9.2999-2.9463-12.338-2.4863-3.4994-6.077-5.5248-10.681-5.5248-4.0516 0-9.4843 2.7628-13.996 6.6301-0.0922 0.09131-0.82876 0.73658-0.73658-0.27654 0-1.0131 0.18438-3.0385 0.27655-4.4195 0.0922-1.2897-0.64439-1.9341-0.64439-1.9341-2.9472 1.4732-11.234 3.4072-14.272 3.6829-2.2097 0.4609-2.7619 2.5785-0.46003 3.315h0.0922c2.4854 0.73658 4.1429 1.5653 5.4317 2.3941 0.92097 0.73658 0.82876 1.7497 0.82876 2.5785 0.0922 6.9058 0.0922 17.494-0.1835 23.296-0.0922 2.3019-0.73656 3.1298-2.3941 3.4985l0.1835-0.09218c-1.2888 0.27654-2.3019 0.55222-3.8673 0.73658-0.55222 0.55223-0.55222 3.4994 0 4.1438 1.0131 0 6.3536-0.27655 10.774-0.27655 6.077 0 9.2077 0.27655 10.773 0.27655 0.64442-0.73658 0.82879-3.4994 0.46004-4.1438-1.7497-0.09218-3.0385-0.27568-4.2351-0.6444-1.6575-0.36871-2.1184-1.1966-2.2106-3.1307-0.18349-4.8804-0.18349-15.193-0.18349-22.19 0-1.9341 0.55222-2.855 1.1045-3.4072 2.1176-1.841 5.5248-3.1307 8.5633-3.1307 2.9463 0 4.8804 0.92094 6.3535 2.1184 2.0254 1.6567 2.6698 4.0508 2.9463 5.8005 0.46003 3.9594 0.27653 11.786 0.27653 18.6 0 3.6829-0.27653 4.6038-1.6575 5.0639-0.64442 0.27654-2.3019 0.64526-4.236 0.82876-0.64441 0.6444-0.46004 3.4994 0 4.1438 2.6706 0 5.8013-0.27654 10.405-0.27654 5.7083 0 9.392 0.27654 10.865 0.27654 0.46006-0.55222 0.6444-3.2229 0.27569-3.9594zm25.506-35.173c-4.8804 0-7.9189 3.7751-7.9189 9.6677 0 5.9848 2.6698 12.891 10.221 12.891 1.2888 0 3.6829-0.55223 4.7873-1.841 1.7497-1.6575 2.9472-4.9726 2.9472-8.4711 0-7.6423-3.7759-12.246-10.036-12.246zm-0.64527 40.698c-1.841 0-3.1307 0.55223-3.9586 1.0131-3.8681 2.4854-5.617 4.8795-5.617 7.7345 0 2.6698 1.0122 4.7874 3.2228 6.6292 2.6698 2.3019 6.3527 3.4072 11.049 3.4072 9.392 0 13.536-5.0647 13.536-10.036 0-3.4994-1.7497-5.8013-5.3404-7.0901-2.5785-1.1053-7.2745-1.6575-12.891-1.6575zm0.64527 23.94c-5.617 0-9.6686-1.1975-13.167-3.8673-3.4072-2.5785-4.8804-6.4457-4.8804-9.1155 0-0.73658 0.18437-2.7628 1.8419-4.6038 1.0122-1.1053 3.222-3.2229 8.4711-6.8136 0.18348-0.09218 0.27568-0.18437 0.27568-0.36871 0-0.18437-0.18437-0.36872-0.36785-0.46004-4.3282-1.6575-5.617-4.3282-5.9857-5.8013v-0.18437c-0.0913-0.55222-0.27569-1.1044 0.55307-1.6575 0.6444-0.46003 1.5654-1.0123 2.5776-1.6567 1.5653-0.92094 3.2229-1.9341 4.236-2.7628 0.18458-0.18438 0.18458-0.36786 0.18458-0.55222 0-0.18438-0.18458-0.36872-0.36872-0.46004-6.4449-2.1184-9.6677-6.9066-9.6677-14.088 0-4.696 2.1176-8.932 5.8927-11.602 2.5784-2.0262 9.0233-4.5117 13.259-4.5117h0.27655c4.3273 0.09131 6.7214 1.0123 10.128 2.2097 1.8419 0.6444 3.5916 0.92008 5.9857 0.92008 3.5907 0 5.1561-1.1044 6.4449-2.3932 0.0922 0.18349 0.27652 0.6444 0.3687 1.841 0.0922 1.1975-0.27654 2.9463-1.1975 4.236-0.73659 1.0123-2.3933 1.7497-4.0507 1.7497h-0.4609c-1.6576-0.18437-2.3941-0.36872-2.3941-0.36872l-0.36789 0.18438c-0.0922 0.18438 0 0.36786 0.0922 0.6444l0.0922 0.18438c0.18349 0.82876 0.55219 3.3142 0.55219 3.9594 0 7.5502-3.0385 10.864-6.2614 13.351-3.1307 2.3019-6.7214 3.7751-10.773 4.1438-0.0922 0-0.46005 0-1.2888 0.09218-0.46088 0-1.1053 0.09218-1.1975 0.09218h-0.0919c-0.7366 0.18349-2.5776 1.1044-2.5776 2.6698 0 1.381 0.82873 3.0385 4.7873 3.315 0.82879 0.09218 1.6576 0.09218 2.5785 0.18437 5.2482 0.36786 11.786 0.82875 14.825 1.841 4.2351 1.5653 6.9058 5.3404 6.9058 9.853 0 6.8136-4.8804 13.167-12.983 17.126-3.9594 1.7497-7.9189 2.6706-12.246 2.6706zm52.484-64.178c-1.9341 0-3.6838 0.46004-4.9726 1.381-3.5908 2.2097-5.4326 6.6301-5.4326 13.075 0 12.063 6.077 20.534 14.732 20.534 2.5784 0 4.6038-0.73658 6.3535-2.2097 2.6698-2.2106 4.0516-6.6301 4.0516-12.799 0-11.97-5.9857-19.981-14.732-19.981zm1.6575 39.409c-15.653 0-21.27-11.51-21.27-22.283 0-7.5502 3.0385-13.351 9.1155-17.495 4.3282-2.6698 9.4842-4.1429 14.088-4.1429 11.97 0 20.349 8.5633 20.349 20.902 0 8.3789-3.315 15.008-9.6686 19.06-3.0385 2.0254-8.2867 3.9594-12.615 3.9594zm-164.08-39.409c-1.9341 0-3.6829 0.46004-4.9726 1.381-3.5907 2.2097-5.4326 6.6301-5.4326 13.075 0 12.063 6.077 20.534 14.733 20.534 2.5785 0 4.6039-0.73658 6.3536-2.2097 2.6698-2.2106 4.0516-6.6301 4.0516-12.799 0-11.97-5.8935-19.981-14.732-19.981zm1.6575 39.409c-15.653 0-21.27-11.51-21.27-22.283 0-7.5502 3.0385-13.351 9.1155-17.495 4.3282-2.6698 9.4843-4.1429 14.088-4.1429 11.971 0 20.349 8.5633 20.349 20.902 0 8.3789-3.315 15.008-9.6686 19.06-2.9463 2.0254-8.1946 3.9594-12.614 3.9594zm-105.24-0.92095c-0.18437-0.27568-0.36872-1.1044-0.27654-2.1176 0-0.73658 0.18437-1.1975 0.27654-1.381 1.9332-0.27654 2.9463-0.55309 4.0508-0.82877 1.8419-0.4609 2.5785-1.4732 2.6706-3.7751 0.27654-5.5248 0.27654-16.022 0.18438-23.296v-0.18438c0-0.82876 0-1.8419-1.0131-2.5785-1.4732-0.92008-3.2229-1.7488-5.5248-2.3941-0.82876-0.27568-1.381-0.73658-1.2888-1.2888 0-0.55222 0.55222-1.1966 1.7497-1.381 3.0385-0.27654 10.957-2.2097 14.087-3.5907 0.18437 0.18349 0.4609 0.73658 0.4609 1.4732l-0.09217 1.0123c-0.09217 1.0131-0.18438 2.2106-0.18438 3.4072 0 0.36786 0.36872 0.6444 0.73658 0.6444 0.18437 0 0.36872-0.09217 0.55308-0.18438 5.8926-4.6038 11.233-6.2614 13.995-6.2614 4.5125 0 8.0111 2.1184 10.682 6.5379 0.18349 0.27654 0.36786 0.36786 0.6444 0.36786 0.18438 0 0.46004-0.09132 0.55223-0.27568 5.4326-4.1438 10.865-6.6301 14.456-6.6301 8.5633 0 13.628 6.3535 13.628 17.127 0 3.0385 0 6.998-0.0921 10.59 0 3.222-0.0921 6.1692-0.0921 8.2868 0 0.46004 0.6444 1.9332 1.6575 2.2097 1.2888 0.6444 3.0385 0.92095 5.3404 1.2888h0.09229c0.1844 0.6444-0.1844 3.0385-0.55224 3.4994-0.55306 0-1.3818 0-2.3019-0.09218-1.7497-0.09218-4.236-0.18437-6.998-0.18437-5.7091 0-8.6555 0.09218-11.51 0.27655-0.18349-0.73658-0.27567-2.9463 0-3.4994 1.6575-0.27568 2.4863-0.55221 3.4994-0.82876 1.8419-0.55222 2.3019-1.381 2.3941-3.7751 0-1.7488 0.36788-16.666-0.1844-20.257-0.55222-3.6829-3.315-8.0102-9.392-8.0102-2.3019 0-5.8926 0.92094-9.3921 3.5907-0.18349 0.18437-0.36787 0.6444-0.36787 0.92094v0.09217c0.36787 1.9332 0.36787 4.1438 0.36787 7.5502v5.9848c0 4.1438-0.09218 8.0111 0 10.957 0 2.0262 1.1975 2.4863 2.2106 2.855 0.55222 0.0913 0.92008 0.18349 1.381 0.27568 0.82876 0.18437 1.6575 0.36872 2.9463 0.6444 0.18438 0.36872 0.18438 1.5653-0.09218 2.5785-0.09218 0.55222-0.27655 0.82875-0.36786 0.92094-3.1307-0.09218-6.3535-0.18438-11.05-0.18438-1.381 0-3.7751 0.09218-5.8013 0.09218-1.6575 0-3.2229 0.09218-4.1429 0.09218-0.09218-0.18437-0.27653-0.82877-0.27653-1.8419 0-0.82875 0.18437-1.4732 0.36872-1.6575 0.46003-0.09218 0.8279-0.18349 1.2888-0.18349 1.1044-0.18438 2.0254-0.36871 2.9463-0.55307 1.5653-0.46004 2.1176-1.2888 2.2097-3.3142 0.27654-4.6038 0.55222-17.771-0.09218-21.086-1.1044-5.3404-4.1429-8.0111-9.0233-8.0111-2.8541 0-6.4457 1.381-9.3921 3.5916-0.46004 0.36786-0.82876 1.2888-0.82876 2.1176v5.4326c0 6.6292 0 14.917 0.09217 18.508 0.09217 1.1044 0.46004 2.3941 2.5785 2.8541 0.46004 0.09218 1.1966 0.27654 2.1176 0.36872l1.6575 0.27568c0.18438 0.55308 0.09218 2.7628-0.27654 3.4994-0.92095 0-2.0254-0.09218-3.315-0.09218-1.9332-0.09218-4.4195-0.18438-7.1814-0.18438-3.2229 0-5.5248 0.09218-7.3667 0.18438-1.2888-0.18438-2.3019-0.18438-3.4064-0.18438z" fill="#442d22"/>
  <g transform="translate(1.0744 98.975)">
   <path d="m35.053 142.32-3.7834-1.2925s0.46192-19.287-6.4591-20.671c-4.614-5.3522 0.73821-227.01 17.348-0.73821 0 0-5.7209 2.8605-6.7363 7.7517-1.1078 4.7988-0.36954 14.95-0.36954 14.95z" fill="#fff"/>
   <path d="m35.053 142.32-3.7834-1.2925s0.46192-19.287-6.4591-20.671c-4.614-5.3522 0.73821-227.01 17.348-0.73821 0 0-5.7209 2.8605-6.7363 7.7517-1.1078 4.7988-0.36954 14.95-0.36954 14.95z" fill="#a6a385"/>
   <path d="m37.084 123.68s33.129-21.779 25.377-67.089c-7.4745-32.944-25.101-43.741-27.038-47.894-2.1223-2.9528-4.153-8.1203-4.153-8.1203l1.3849 91.635c0 0.09238-2.8613 28.054 4.4293 31.469" fill="#fff"/>
   <path d="m37.084 123.68s33.129-21.779 25.377-67.089c-7.4745-32.944-25.101-43.741-27.038-47.894-2.1223-2.9528-4.153-8.1203-4.153-8.1203l1.3849 91.635c0 0.09238-2.8613 28.054 4.4293 31.469" fill="#499d4a"/>
   <path d="m29.333 124.88s-31.099-21.225-29.253-58.599c1.7527-37.374 23.716-55.738 27.961-59.06 2.7689-2.9528 2.8613-4.0606 3.0461-7.0135 1.9375 4.153 1.5688 62.106 1.8451 68.934 0.8306 26.3-1.4764 50.755-3.5987 55.738z" fill="#fff"/>
   <path d="m29.333 124.88s-31.099-21.225-29.253-58.599c1.7527-37.374 23.716-55.738 27.961-59.06 2.7689-2.9528 2.8613-4.0606 3.0461-7.0135 1.9375 4.153 1.5688 62.106 1.8451 68.934 0.8306 26.3-1.4764 50.755-3.5987 55.738z" fill="#58aa50"/>
  </g>
 </g>
</svg>

<svg width="256px" height="289px" viewBox="0 0 256 289" version="1.1" xmlns="http://www.w3.org/2000/svg" xmlns:xlink="http://www.w3.org/1999/xlink" preserveAspectRatio="xMidYMid">
    <g>
        <path d="M127.999999,288.463771 C124.024844,288.463771 120.314699,287.403728 116.869564,285.548656 L81.6231884,264.612838 C76.32298,261.697724 78.9730854,260.637682 80.5631458,260.107661 C87.7184259,257.72257 89.0434775,257.192547 96.4637688,252.952381 C97.2587979,252.422361 98.3188405,252.687372 99.1138718,253.217392 L126.144927,269.383024 C127.20497,269.913045 128.530021,269.913045 129.325053,269.383024 L235.064182,208.165634 C236.124225,207.635611 236.654245,206.575571 236.654245,205.250519 L236.654245,83.0807467 C236.654245,81.7556929 236.124225,80.6956526 235.064182,80.1656324 L129.325053,19.2132506 C128.26501,18.6832305 126.939959,18.6832305 126.144927,19.2132506 L20.4057954,80.1656324 C19.3457551,80.6956526 18.8157349,82.0207041 18.8157349,83.0807467 L18.8157349,205.250519 C18.8157349,206.31056 19.3457551,207.635611 20.4057954,208.165634 L49.2919247,224.861286 C64.9275364,232.811595 74.7329196,223.536234 74.7329196,214.260871 L74.7329196,93.681159 C74.7329196,92.0910985 76.0579711,90.5010358 77.9130428,90.5010358 L91.4285716,90.5010358 C93.0186343,90.5010358 94.6086948,91.8260873 94.6086948,93.681159 L94.6086948,214.260871 C94.6086948,235.196689 83.2132512,247.387164 63.3374737,247.387164 C57.2422362,247.387164 52.4720502,247.387164 38.9565214,240.761906 L11.1304347,224.861286 C4.24016581,220.886129 5.68434189e-14,213.46584 5.68434189e-14,205.515528 L5.68434189e-14,83.3457557 C5.68434189e-14,75.3954465 4.24016581,67.9751552 11.1304347,64.0000006 L116.869564,2.78260752 C123.494824,-0.927535841 132.505176,-0.927535841 139.130436,2.78260752 L244.869565,64.0000006 C251.759834,67.9751552 256,75.3954465 256,83.3457557 L256,205.515528 C256,213.46584 251.759834,220.886129 244.869565,224.861286 L139.130436,286.078676 C135.685299,287.668739 131.710145,288.463771 127.999999,288.463771 L127.999999,288.463771 Z M160.596274,204.455488 C114.219461,204.455488 104.679089,183.254659 104.679089,165.233955 C104.679089,163.643893 106.004141,162.053832 107.859212,162.053832 L121.639752,162.053832 C123.229813,162.053832 124.554864,163.113872 124.554864,164.703935 C126.674947,178.749484 132.770187,185.639753 160.861283,185.639753 C183.122154,185.639753 192.662526,180.604556 192.662526,168.67909 C192.662526,161.788821 190.012423,156.753624 155.296065,153.308489 C126.409938,150.393375 108.389235,144.033126 108.389235,120.977226 C108.389235,99.5113875 126.409938,86.7908901 156.621119,86.7908901 C190.542443,86.7908901 207.238095,98.4513472 209.358178,123.89234 C209.358178,124.687371 209.093167,125.482403 208.563147,126.277434 C208.033127,126.807454 207.238095,127.337474 206.443064,127.337474 L192.662526,127.337474 C191.337475,127.337474 190.012423,126.277434 189.747412,124.952382 C186.567289,110.376813 178.351966,105.606625 156.621119,105.606625 C132.240165,105.606625 129.325053,114.086957 129.325053,120.447205 C129.325053,128.132506 132.770187,130.5176 165.631471,134.757766 C198.227744,138.997931 213.598344,145.093169 213.598344,167.884058 C213.333333,191.20497 194.252589,204.455488 160.596274,204.455488 L160.596274,204.455488 Z" fill="#539E43"></path>
    </g>
</svg>

<svg width="256px" height="100px" viewBox="0 0 256 100" version="1.1" xmlns="http://www.w3.org/2000/svg" xmlns:xlink="http://www.w3.org/1999/xlink" preserveAspectRatio="xMidYMid">
    <g>
        <path d="M0,0 L0,85.4980695 L71.1660232,85.4980695 L71.1660232,99.8301158 L128,99.8301158 L128,85.4980695 L256,85.4980695 L256,0 L0,0 L0,0 Z" fill="#CB3837"></path>
        <path d="M42.5019305,14.3320463 L14.3320463,14.3320463 L14.3320463,28.6640927 L14.3320463,71.1660232 L42.5019305,71.1660232 L42.5019305,28.6640927 L56.8339768,28.6640927 L56.8339768,71.1660232 L71.1660232,71.1660232 L71.1660232,28.6640927 L71.1660232,14.3320463 L42.5019305,14.3320463 L42.5019305,14.3320463 Z" fill="#FFFFFF"></path>
        <path d="M85.4980695,14.3320463 L85.4980695,68.2007722 L85.4980695,71.1660232 L85.4980695,85.4980695 L114.162162,85.4980695 L114.162162,71.1660232 L142.332046,71.1660232 L142.332046,14.3320463 L85.4980695,14.3320463 L85.4980695,14.3320463 Z M128,56.8339768 L114.162162,56.8339768 L114.162162,28.6640927 L128,28.6640927 L128,56.8339768 L128,56.8339768 Z" fill="#FFFFFF"></path>
        <path d="M184.833977,14.3320463 L156.664093,14.3320463 L156.664093,28.6640927 L156.664093,71.1660232 L184.833977,71.1660232 L184.833977,28.6640927 L199.166023,28.6640927 L199.166023,71.1660232 L213.498069,71.1660232 L213.498069,28.6640927 L227.830116,28.6640927 L227.830116,71.1660232 L242.162162,71.1660232 L242.162162,28.6640927 L242.162162,15.3204633 L242.162162,14.3320463 L184.833977,14.3320463 L184.833977,14.3320463 Z" fill="#FFFFFF"></path>
    </g>
</svg>

<svg width="256px" height="228px" viewBox="0 0 256 228" version="1.1" xmlns="http://www.w3.org/2000/svg" xmlns:xlink="http://www.w3.org/1999/xlink" preserveAspectRatio="xMidYMid">
    <g>
        <path d="M210.483381,73.8236374 C207.827698,72.9095503 205.075867,72.0446761 202.24247,71.2267368 C202.708172,69.3261098 203.135596,67.4500894 203.515631,65.6059664 C209.753843,35.3248922 205.675082,10.9302478 191.747328,2.89849283 C178.392359,-4.80289661 156.551327,3.22703567 134.492936,22.4237776 C132.371761,24.2697233 130.244662,26.2241201 128.118477,28.2723861 C126.701777,26.917204 125.287358,25.6075897 123.876584,24.3549348 C100.758745,3.82852863 77.5866802,-4.82157937 63.6725966,3.23341515 C50.3303869,10.9571328 46.3792156,33.8904224 51.9945178,62.5880206 C52.5367729,65.3599011 53.1706189,68.1905639 53.8873982,71.068617 C50.6078941,71.9995641 47.4418534,72.9920277 44.4125156,74.0478303 C17.3093297,83.497195 0,98.3066828 0,113.667995 C0,129.533287 18.5815786,145.446423 46.8116526,155.095373 C49.0394553,155.856809 51.3511025,156.576778 53.7333796,157.260293 C52.9600965,160.37302 52.2875179,163.423318 51.7229345,166.398431 C46.3687351,194.597975 50.5500231,216.989464 63.8566899,224.664425 C77.6012619,232.590464 100.66852,224.443422 123.130185,204.809231 C124.905501,203.257196 126.687196,201.611293 128.472081,199.886102 C130.785552,202.113904 133.095375,204.222319 135.392897,206.199955 C157.14963,224.922338 178.637969,232.482469 191.932332,224.786092 C205.663234,216.837268 210.125675,192.78347 204.332202,163.5181 C203.88974,161.283006 203.374826,158.99961 202.796573,156.675661 C204.416503,156.196743 206.006814,155.702335 207.557482,155.188332 C236.905331,145.46465 256,129.745175 256,113.667995 C256,98.2510906 238.132466,83.3418093 210.483381,73.8236374 L210.483381,73.8236374 Z M204.118035,144.807565 C202.718197,145.270987 201.281904,145.718918 199.818271,146.153177 C196.578411,135.896354 192.205739,124.989735 186.854729,113.72131 C191.961041,102.721277 196.164656,91.9540963 199.313837,81.7638014 C201.93261,82.5215915 204.474374,83.3208483 206.923636,84.1643056 C230.613348,92.3195488 245.063763,104.377206 245.063763,113.667995 C245.063763,123.564379 229.457753,136.411268 204.118035,144.807565 L204.118035,144.807565 Z M193.603754,165.642007 C196.165567,178.582766 196.531475,190.282717 194.834536,199.429057 C193.309843,207.64764 190.243595,213.12715 186.452366,215.321689 C178.384612,219.991462 161.131788,213.921395 142.525146,197.909832 C140.392124,196.074366 138.243609,194.114502 136.088259,192.040261 C143.301619,184.151133 150.510878,174.979732 157.54698,164.793993 C169.922699,163.695814 181.614905,161.900447 192.218042,159.449363 C192.740247,161.555956 193.204126,163.621993 193.603754,165.642007 L193.603754,165.642007 Z M87.2761866,214.514686 C79.3938934,217.298414 73.1160375,217.378157 69.3211631,215.189998 C61.2461189,210.532528 57.8891498,192.554265 62.4682434,168.438039 C62.9927272,165.676183 63.6170041,162.839142 64.3365173,159.939216 C74.8234575,162.258154 86.4299951,163.926841 98.8353334,164.932519 C105.918826,174.899534 113.336329,184.06091 120.811247,192.08264 C119.178102,193.65928 117.551336,195.16028 115.933685,196.574699 C106.001303,205.256705 96.0479605,211.41654 87.2761866,214.514686 L87.2761866,214.514686 Z M50.3486141,144.746959 C37.8658105,140.48046 27.5570398,134.935332 20.4908634,128.884403 C14.1414664,123.446815 10.9357817,118.048415 10.9357817,113.667995 C10.9357817,104.34622 24.8334611,92.4562517 48.0123604,84.3748281 C50.8247961,83.3942121 53.7689223,82.4701001 56.8242337,81.6020363 C60.0276398,92.0224477 64.229889,102.917218 69.3011135,113.93411 C64.1642716,125.11459 59.9023288,136.182975 56.6674809,146.725506 C54.489347,146.099407 52.3791089,145.440499 50.3486141,144.746959 L50.3486141,144.746959 Z M62.7270678,60.4878073 C57.9160346,35.9004118 61.1112387,17.3525532 69.1516515,12.6982729 C77.7160924,7.74005624 96.6544653,14.8094222 116.614922,32.5329619 C117.890816,33.6657739 119.171723,34.8514442 120.456275,36.0781256 C113.018267,44.0647686 105.66866,53.1573386 98.6480514,63.0655695 C86.6081646,64.1815215 75.0831931,65.9741531 64.4868907,68.3746571 C63.8206914,65.6948233 63.2305903,63.0619242 62.7270678,60.4878073 L62.7270678,60.4878073 Z M173.153901,87.7550367 C170.620796,83.3796304 168.020249,79.1076627 165.369124,74.9523483 C173.537126,75.9849113 181.362914,77.3555864 188.712066,79.0329319 C186.505679,86.1041206 183.755673,93.4974728 180.518546,101.076741 C178.196419,96.6680702 175.740322,92.2229454 173.153901,87.7550367 L173.153901,87.7550367 Z M128.122121,43.8938899 C133.166461,49.3588189 138.218091,55.4603279 143.186789,62.0803968 C138.179814,61.8439007 133.110868,61.720868 128.000001,61.720868 C122.937434,61.720868 117.905854,61.8411667 112.929865,62.0735617 C117.903575,55.515009 122.99895,49.4217021 128.122121,43.8938899 L128.122121,43.8938899 Z M82.8018984,87.830679 C80.2715265,92.2183886 77.8609975,96.6393627 75.5753239,101.068539 C72.3906004,93.5156998 69.6661103,86.0886276 67.440586,78.9171899 C74.7446255,77.2826781 82.5335049,75.9461789 90.6495601,74.9332099 C87.9610684,79.1268011 85.3391054,83.4302106 82.8018984,87.8297677 L82.8018984,87.830679 L82.8018984,87.830679 Z M90.8833221,153.182899 C82.4979621,152.247395 74.5919739,150.979704 67.289757,149.390303 C69.5508242,142.09082 72.3354636,134.505173 75.5876271,126.789657 C77.8792246,131.215644 80.2993228,135.638441 82.8451877,140.03572 L82.8456433,140.03572 C85.4388987,144.515476 88.1255676,148.90364 90.8833221,153.182899 L90.8833221,153.182899 Z M128.424691,184.213105 C123.24137,178.620587 118.071264,172.434323 113.021912,165.780078 C117.923624,165.972373 122.921029,166.0708 128.000001,166.0708 C133.217953,166.0708 138.376211,165.953235 143.45336,165.727219 C138.468257,172.501308 133.434855,178.697141 128.424691,184.213105 L128.424691,184.213105 Z M180.622896,126.396409 C184.044571,134.195313 186.929004,141.741317 189.219234,148.9164 C181.796719,150.609693 173.782736,151.973534 165.339049,152.986959 C167.996555,148.775595 170.619884,144.430263 173.197646,139.960532 C175.805484,135.438399 178.28163,130.90943 180.622896,126.396409 L180.622896,126.396409 Z M163.724586,134.496971 C159.722835,141.435557 155.614455,148.059271 151.443648,154.311611 C143.847063,154.854776 135.998946,155.134562 128.000001,155.134562 C120.033408,155.134562 112.284171,154.887129 104.822013,154.402745 C100.48306,148.068386 96.285368,141.425078 92.3091341,134.556664 L92.3100455,134.556664 C88.3442923,127.706935 84.6943232,120.799333 81.3870228,113.930466 C84.6934118,107.045648 88.3338117,100.130301 92.276781,93.292874 L92.2758697,93.294241 C96.2293193,86.4385872 100.390102,79.8276317 104.688954,73.5329157 C112.302398,72.9573964 120.109505,72.6571055 127.999545,72.6571055 L128.000001,72.6571055 C135.925583,72.6571055 143.742714,72.9596746 151.353879,73.5402067 C155.587114,79.7888993 159.719645,86.3784378 163.688588,93.2350031 C167.702644,100.168578 171.389978,107.037901 174.724618,113.77508 C171.400003,120.627999 167.720871,127.566587 163.724586,134.496971 L163.724586,134.496971 Z M186.284677,12.3729198 C194.857321,17.3165548 198.191049,37.2542268 192.804953,63.3986692 C192.461372,65.0669011 192.074504,66.7661189 191.654369,68.4881206 C181.03346,66.0374921 169.500286,64.2138746 157.425315,63.0810626 C150.391035,53.0639249 143.101577,43.9572289 135.784778,36.073113 C137.751934,34.1806885 139.716356,32.3762092 141.672575,30.673346 C160.572216,14.2257007 178.236518,7.73185406 186.284677,12.3729198 L186.284677,12.3729198 Z M128.000001,90.8080696 C140.624975,90.8080696 150.859926,101.042565 150.859926,113.667995 C150.859926,126.292969 140.624975,136.527922 128.000001,136.527922 C115.375026,136.527922 105.140075,126.292969 105.140075,113.667995 C105.140075,101.042565 115.375026,90.8080696 128.000001,90.8080696 L128.000001,90.8080696 Z" fill="#00D8FF"></path>
    </g>
</svg>

<svg width="256px" height="271px" viewBox="0 0 256 271" version="1.1" xmlns="http://www.w3.org/2000/svg" xmlns:xlink="http://www.w3.org/1999/xlink" preserveAspectRatio="xMidYMid">
    <g>
        <path d="M116.553,0 L0,67.953 L0,98.096 L49.665,127.882 L91.366,105.163 L91.366,78.74 L179.665,28.034 L241.711,63.77 L241.637,135.222 L156.567,184.231 L128.082,173.694 L90.165,197.882 L91.128,255.785 L117.233,270.858 L234.743,203.897 L234.743,163.65 L221.531,170.761 L221.531,196.347 L117.267,255.461 L104.352,248.005 L103.644,205.48 L128.114,189.128 L157.607,199.658 L256,142.912 L255.065,55.656 L179.678,12.633 L78.016,71.009 L78.016,97.419 L49.824,112.41 L13.35,90.536 L13.35,75.622 L116.243,15.636 L137.841,29.399 L150.89,21.886 L116.553,0 Z M186.0696,71.0918 L164.1876,84.3678 L164.7436,109.9558 L187.1816,122.2678 L209.0636,108.9918 L208.5076,83.4048 L186.0696,71.0918 Z M186.3206,82.6508 L198.6226,89.4018 L198.9276,103.4308 L186.9306,110.7088 L174.6286,103.9588 L174.3236,89.9298 L186.3206,82.6508 Z M73.701,141.0235 L70.738,135.4095 C70.086,134.1755 68.558,133.7035 67.324,134.3545 L47.931,144.5855 C46.697,145.2365 46.224,146.7655 46.876,148.0005 L49.84,153.6175 C50.491,154.8515 52.02,155.3245 53.254,154.6725 L72.645,144.4385 C73.88,143.7865 74.352,142.2575 73.701,141.0235 M84.9168,158.0703 L81.9548,152.4543 C81.2838,151.1813 79.6868,150.7253 78.4438,151.4513 L45.7398,170.5723 C44.5718,171.2563 44.1488,172.7373 44.7798,173.9333 L47.7418,179.5493 C48.4138,180.8223 50.0108,181.2783 51.2528,180.5523 L83.9578,161.4313 C85.1248,160.7483 85.5478,159.2673 84.9168,158.0703 M87.9705,169.6055 L49.5225,191.7065 C48.3435,192.3835 47.9115,193.8735 48.5475,195.0765 L51.5105,200.6915 C52.1785,201.9575 53.7635,202.4165 55.0045,201.7035 L93.4525,179.6025 C94.6325,178.9245 95.0635,177.4345 94.4285,176.2315 L91.4645,170.6165 C90.7965,169.3515 89.2115,168.8925 87.9705,169.6055" fill="#000000"></path>
    </g>
</svg>

<svg width="256px" height="254px" viewBox="0 0 256 254" version="1.1" xmlns="http://www.w3.org/2000/svg" xmlns:xlink="http://www.w3.org/1999/xlink" preserveAspectRatio="xMidYMid">
    <defs>
        <path d="M180.82764,252.605272 C184.843951,254.170159 189.42406,254.069552 193.478224,252.11917 L245.979142,226.856851 C251.495593,224.202221 255.003889,218.618034 255.003889,212.49296 L255.003889,41.1971845 C255.003889,35.0719113 251.495593,29.4886211 245.979142,26.8339907 L193.478224,1.57068551 C188.158006,-0.989256713 181.931329,-0.362230036 177.262566,3.0323459 C176.595173,3.51727166 175.959655,4.05869672 175.363982,4.65536598 L74.8565893,96.3498444 L31.0778002,63.1181557 C27.0024197,60.0246398 21.3020866,60.2780499 17.5170718,63.7211005 L3.47578059,76.4937075 C-1.15402423,80.7052561 -1.15933349,87.9889043 3.46431538,92.2072265 L41.430759,126.844525 L3.46431538,161.482221 C-1.15933349,165.700742 -1.15402423,172.984291 3.47578059,177.19584 L17.5170718,189.967949 C21.3020866,193.411497 27.0024197,193.664509 31.0778002,190.571591 L74.8565893,157.339404 L175.363982,249.034221 C176.953772,250.625007 178.82048,251.823326 180.82764,252.605272 Z M191.291764,68.9559518 L115.029663,126.844525 L191.291764,184.733396 L191.291764,68.9559518 Z" id="path-1"></path>
        <linearGradient x1="50.0000484%" y1="-3.91645412e-07%" x2="50.0000484%" y2="99.999921%" id="linearGradient-3">
            <stop stop-color="#FFFFFF" offset="0%"></stop>
            <stop stop-color="#FFFFFF" stop-opacity="0" offset="100%"></stop>
        </linearGradient>
    </defs>
    <g>
				<mask id="mask-2" fill="white">
						<use xlink:href="#path-1"></use>
				</mask>
				<g></g>
				<path d="M246.134784,26.873337 L193.593025,1.57523773 C187.51178,-1.35300582 180.243173,-0.117807811 175.469819,4.65514684 L3.46641717,161.482221 C-1.16004072,165.700742 -1.1547215,172.984291 3.47789235,177.19584 L17.5276804,189.967949 C21.3150858,193.411497 27.0189053,193.664509 31.0966765,190.571591 L238.228667,33.4363005 C245.177523,28.1646927 255.158535,33.1209324 255.158535,41.8432608 L255.158535,41.2332436 C255.158535,35.11066 251.651235,29.5293619 246.134784,26.873337 Z" fill="#0065A9" fill-rule="nonzero" mask="url(#mask-2)"></path>
				<path d="M246.134784,226.816011 L193.593025,252.11419 C187.51178,255.041754 180.243173,253.806579 175.469819,249.034221 L3.46641717,92.2070273 C-1.16004072,87.9888047 -1.1547215,80.7049573 3.47789235,76.4935082 L17.5276804,63.7209012 C21.3150858,60.2778506 27.0189053,60.0243409 31.0966765,63.1179565 L238.228667,220.252649 C245.177523,225.524058 255.158535,220.568416 255.158535,211.84549 L255.158535,212.456104 C255.158535,218.57819 251.651235,224.159388 246.134784,226.816011 Z" fill="#007ACC" fill-rule="nonzero" mask="url(#mask-2)"></path>
				<path d="M193.428324,252.134497 C187.345086,255.060069 180.076479,253.823898 175.303125,249.050544 C181.184153,254.931571 191.240868,250.765843 191.240868,242.448334 L191.240868,11.2729623 C191.240868,2.95542269 181.184153,-1.21005093 175.303125,4.67135981 C180.076479,-0.102038107 187.345086,-1.3389793 193.428324,1.58667934 L245.961117,26.8500144 C251.481553,29.5046448 254.991841,35.0879351 254.991841,41.2132082 L254.991841,212.509283 C254.991841,218.634357 251.481553,224.217548 245.961117,226.872178 L193.428324,252.134497 Z" fill="#1F9CF0" fill-rule="nonzero" mask="url(#mask-2)"></path>
				<path d="M180.827889,252.605272 C184.8442,254.169163 189.424309,254.069552 193.477476,252.11917 L245.978395,226.855855 C251.495842,224.201225 255.004138,218.618034 255.004138,212.49296 L255.004138,41.1969853 C255.004138,35.0717121 251.495842,29.4884219 245.979391,26.8337915 L193.477476,1.57052613 C188.158255,-0.989423064 181.931578,-0.362396387 177.261819,3.03217656 C176.595422,3.51710232 175.959904,4.05852738 175.363235,4.65519664 L74.8565395,96.3496452 L31.0777504,63.1179565 C27.0024695,60.0244405 21.3020368,60.2779503 17.517022,63.7209012 L3.4757806,76.4935082 C-1.15402423,80.7050569 -1.15933349,87.9888047 3.46431539,92.2071269 L41.4308088,126.844525 L3.46431539,161.482221 C-1.15933349,165.700742 -1.15402423,172.984291 3.4757806,177.19584 L17.517022,189.967949 C21.3020368,193.411497 27.0024695,193.664509 31.0777504,190.571591 L74.8565395,157.339404 L175.363235,249.034221 C176.953025,250.625007 178.820729,251.823326 180.827889,252.605272 Z M191.292013,68.9557526 L115.029912,126.844525 L191.292013,184.733396 L191.292013,68.9557526 Z" fill-opacity="0.25" fill="url(#linearGradient-3)" mask="url(#mask-2)"></path>
		</g>
</svg>
